{
.appVersion = "1141";
DisplayStrings = (
"/hiriq_yod"
);
copyright = "Copyright 2009 by Yoram Gnat (yoram.gnat@gmail.com)\012Distributed under the terms of GNU General Public License version 2(http://www.gnu.org/licenses/gpl.html). \012\012Hebrew OpenType Layout logic copyright (c) 2003 & 2007, Ralph Hancock & John Hudson. This layout logic for Biblical Hebrew is open source software under the MIT License; for details  contact copyright holders at <license@tiro.com>.\012\012As a special exception, if you create a document which uses this font, and embed this font or unaltered portions of this font into the document, this font does not by itself cause the resulting document to be covered by the GNU General Public License. This exception does not however invalidate any other reasons why the document might be covered by the GNU General Public License. If you modify this font, you may extend this exception to your version of the font, but you are not obligated to do so. If you do not wish to do so, delete this exception statement from your version.";
customParameters = (
{
name = licenseURL;
value = "http://www.gnu.org/licenses/old-licenses/gpl-2.0.html, \012http://www.opensource.org/licenses/mit-license.php ";
},
{
name = license;

glyphs = (
{
glyphname = .notdef;
lastChange = "2018-07-29 15:09:15 +0000";
layers = (
{
layerId = "C33DBFF5-9F9F-4FD4-87E4-27DD273F2A02";
paths = (
{
closed = 1;
nodes = (
"612 0 LINE",
"612 1365 LINE",
"68 1365 LINE",
"68 0 LINE"
);
},
{
closed = 1;
nodes = (
"136 1297 LINE",
"544 1297 LINE",
"544 68 LINE",
"136 68 LINE"
);
}
);
userData = {
assembly = "PUSHB[ ]\011/* 2 values pushed */
1 0 
MDAP[1]\011/* MoveDirectAbsPt */
ALIGNRP[ ]\011/* AlignRelativePt */
PUSHB[ ]\011/* 3 values pushed */
7 4 0 
MIRP[01101]\011/* MoveIndirectRelPt */
SHP[0]\011/* ShiftPointByLastPoint */
PUSHB[ ]\011/* 2 values pushed */
6 5 
MDRP[11100]\011/* MoveDirectRelPt */
ALIGNRP[ ]\011/* AlignRelativePt */
PUSHB[ ]\011/* 3 values pushed */
3 2 0 
MIRP[01101]\011/* MoveIndirectRelPt */
SHP[0]\011/* ShiftPointByLastPoint */
SVTCA[0]\011/* SetFreedomAndProjectionVectorToAxis */
PUSHB[ ]\011/* 2 values pushed */
3 0 
MDAP[1]\011/* MoveDirectAbsPt */
ALIGNRP[ ]\011/* AlignRelativePt */
PUSHB[ ]\011/* 3 values pushed */
5 4 0 
MIRP[01101]\011/* MoveIndirectRelPt */
SHP[0]\011/* ShiftPointByLastPoint */
PUSHB[ ]\011/* 3 values pushed */
7 6 1 
MIRP[11100]\011/* MoveIndirectRelPt */
ALIGNRP[ ]\011/* AlignRelativePt */
PUSHB[ ]\011/* 3 values pushed */
1 2 0 
MIRP[01101]\011/* MoveIndirectRelPt */
SHP[0]\011/* ShiftPointByLastPoint */";
};
width = 748;
}
);
note = .notdef;
},
{
glyphname = exclam;
lastChange = "2018-07-29 15:09:15 +0000";
layers = (
{
layerId = "C33DBFF5-9F9F-4FD4-87E4-27DD273F2A02";
paths = (
{
closed = 1;
nodes = (
"49 171 LINE",
"38 155 OFFCURVE",
"37 149 QCURVE",
"37 130 LINE SMOOTH",
"37 76 OFFCURVE",
"130 -29 OFFCURVE",
"173 -29 QCURVE SMOOTH",
"186 -29 OFFCURVE",
"199 -24 QCURVE",
"388 103 LINE",
"263 208 OFFCURVE",
"234 316 QCURVE"
);
},
{
closed = 1;
nodes = (
"128 387 LINE",
"334 519 LINE",
"369 1450 LINE",
"44 1223 LINE"
);
}
);
width = 473;
}
);
note = exclam;
unicode = 0021;
},
{
glyphname = quotedbl;
lastChange = "2018-07-29 15:09:15 +0000";
layers = (
{
layerId = "C33DBFF5-9F9F-4FD4-87E4-27DD273F2A02";
paths = (
{
closed = 1;
nodes = (
"402 1431 LINE",
"378 951 LINE",
"536 970 LINE",
"636 1461 LINE"
);
},
{
closed = 1;
nodes = (
"75 1431 LINE",
"51 951 LINE",
"209 970 LINE",
"309 1461 LINE"
);
}
);
width = 721;
}
);
note = quotedbl;
unicode = 0022;
},
{
glyphname = numbersign;
lastChange = "2018-07-29 15:09:15 +0000";
layers = (
{
layerId = "C33DBFF5-9F9F-4FD4-87E4-27DD273F2A02";
paths = (
{
closed = 1;
nodes = (
"858 1060 LINE",
"944 1462 LINE",
"745 1462 LINE",
"659 1060 LINE",
"543 1060 LINE",
"627 1462 LINE",
"427 1462 LINE",
"343 1060 LINE",
"112 1060 LINE",
"71 862 LINE",
"301 862 LINE",
"239 574 LINE",
"9 574 LINE",
"-34 376 LINE",
"196 376 LINE",
"110 -28 LINE",
"309 -28 LINE",
"395 376 LINE",
"513 376 LINE",
"427 -28 LINE",
"627 -28 LINE",
"713 376 LINE",
"943 376 LINE",
"983 574 LINE",
"754 574 LINE",
"815 862 LINE",
"1045 862 LINE",
"1087 1060 LINE"
);
},
{
closed = 1;
nodes = (
"554 574 LINE",
"440 574 LINE",
"500 862 LINE",
"616 862 LINE"
);
}
);
width = 1135;
}
);
note = numbersign;
unicode = 0023;
},
{
glyphname = dollar;
lastChange = "2018-07-29 15:09:15 +0000";
layers = (
{
layerId = "C33DBFF5-9F9F-4FD4-87E4-27DD273F2A02";
paths = (
{
closed = 1;
nodes = (
"847 288 OFFCURVE",
"762 168 OFFCURVE",
"686 148 QCURVE",
"675 576 LINE",
"753 563 OFFCURVE",
"847 453 OFFCURVE",
"847 380 QCURVE SMOOTH"
);
},
{
closed = 1;
nodes = (
"536 1303 LINE",
"550 907 LINE",
"446 940 OFFCURVE",
"370 1042 OFFCURVE",
"370 1106 QCURVE SMOOTH",
"370 1184 OFFCURVE",
"473 1303 OFFCURVE",
"534 1303 QCURVE SMOOTH"
);
},
{
closed = 1;
nodes = (
"1157 593 OFFCURVE",
"1120 669 OFFCURVE",
"1080 709 OFFCURVE",
"1044 739 QCURVE",
"884 810 OFFCURVE",
"687 867 QCURVE",
"684 1288 LINE",
"703 1278 OFFCURVE",
"742 1242 OFFCURVE",
"766 1214 OFFCURVE",
"806 1161 OFFCURVE",
"815 1150 QCURVE SMOOTH",
"830 1132 LINE",
"853 1142 LINE SMOOTH",
"908 1167 OFFCURVE",
"938 1200 QCURVE",
"1022 1224 OFFCURVE",
"1096 1286 QCURVE",
"1030 1462 OFFCURVE",
"780 1462 QCURVE SMOOTH",
"729 1462 OFFCURVE",
"679 1455 QCURVE",
"682 1650 LINE",
"535 1561 LINE",
"535 1418 LINE",
"485 1396 OFFCURVE",
"406 1357 OFFCURVE",
"306 1299 OFFCURVE",
"229 1241 OFFCURVE",
"152 1164 OFFCURVE",
"102 1082 OFFCURVE",
"71 980 OFFCURVE",
"71 925 QCURVE",
"73 871 OFFCURVE",
"107 807 OFFCURVE",
"159 768 QCURVE SMOOTH",
"192 743 OFFCURVE",
"346 689 OFFCURVE",
"545 635 OFFCURVE",
"550 633 QCURVE",
"550 183 LINE",
"471 205 OFFCURVE",
"369 287 OFFCURVE",
"336 379 QCURVE SMOOTH",
"324 410 LINE",
"56 257 LINE",
"43 246 OFFCURVE",
"34 225 OFFCURVE",
"33 198 QCURVE",
"36 135 OFFCURVE",
"160 31 OFFCURVE",
"349 -25 OFFCURVE",
"450 -25 QCURVE SMOOTH",
"502 -25 OFFCURVE",
"550 -16 QCURVE",
"542 -238 LINE",
"701 -146 LINE",
"701 31 LINE",
"770 66 OFFCURVE",
"918 173 OFFCURVE",
"1063 310 OFFCURVE",
"1157 474 OFFCURVE",
"1157 549 QCURVE SMOOTH"
);
}
);
width = 1266;
}
);
note = dollar;
unicode = 0024;
},
{
glyphname = percent;
lastChange = "2018-07-29 15:09:15 +0000";
layers = (
{
layerId = "C33DBFF5-9F9F-4FD4-87E4-27DD273F2A02";
paths = (
{
closed = 1;
nodes = (
"534 20 LINE",
"1548 1409 LINE",
"1368 1369 LINE",
"348 -9 LINE"
);
},
{
closed = 1;
nodes = (
"1241 786 OFFCURVE",
"1292 799 OFFCURVE",
"1360 813 OFFCURVE",
"1379 813 QCURVE SMOOTH",
"1512 813 OFFCURVE",
"1692 606 OFFCURVE",
"1692 428 QCURVE SMOOTH",
"1692 374 LINE SMOOTH",
"1692 286 OFFCURVE",
"1603 153 OFFCURVE",
"1527 153 QCURVE SMOOTH",
"1407 153 OFFCURVE",
"1232 405 OFFCURVE",
"1232 580 QCURVE SMOOTH",
"1232 642 OFFCURVE",
"1245 700 QCURVE SMOOTH",
"1261 773 LINE",
"1195 723 LINE SMOOTH",
"1172 706 OFFCURVE",
"1118 651 OFFCURVE",
"1054 569 OFFCURVE",
"1013 462 OFFCURVE",
"1013 408 QCURVE SMOOTH",
"1013 400 LINE SMOOTH",
"1013 247 OFFCURVE",
"1219 20 OFFCURVE",
"1373 20 QCURVE SMOOTH",
"1523 20 OFFCURVE",
"1762 185 OFFCURVE",
"1887 446 OFFCURVE",
"1887 594 QCURVE SMOOTH",
"1887 746 OFFCURVE",
"1689 971 OFFCURVE",
"1539 971 QCURVE SMOOTH",
"1507 971 OFFCURVE",
"1445 962 OFFCURVE",
"1403 951 OFFCURVE",
"1342 924 OFFCURVE",
"1311 909 OFFCURVE",
"1240 870 OFFCURVE",
"1224 862 QCURVE SMOOTH",
"1196 847 LINE",
"1241 784 LINE"
);
},
{
closed = 1;
nodes = (
"186 1168 LINE",
"11 1018 OFFCURVE",
"11 866 QCURVE SMOOTH",
"11 857 LINE SMOOTH",
"11 710 OFFCURVE",
"210 492 OFFCURVE",
"361 492 QCURVE SMOOTH",
"475 492 OFFCURVE",
"674 584 OFFCURVE",
"808 736 OFFCURVE",
"885 934 OFFCURVE",
"885 1038 QCURVE SMOOTH",
"885 1190 OFFCURVE",
"681 1416 OFFCURVE",
"527 1416 QCURVE SMOOTH",
"495 1416 OFFCURVE",
"433 1407 OFFCURVE",
"391 1396 OFFCURVE",
"330 1369 OFFCURVE",
"300 1354 OFFCURVE",
"228 1315 OFFCURVE",
"213 1307 QCURVE SMOOTH",
"186 1292 LINE",
"230 1229 LINE",
"231 1232 OFFCURVE",
"277 1246 OFFCURVE",
"340 1258 OFFCURVE",
"359 1258 QCURVE SMOOTH",
"367 1258 LINE SMOOTH",
"500 1258 OFFCURVE",
"682 1060 OFFCURVE",
"682 889 QCURVE SMOOTH",
"682 837 LINE SMOOTH",
"682 753 OFFCURVE",
"591 626 OFFCURVE",
"515 626 QCURVE SMOOTH",
"395 626 OFFCURVE",
"221 861 OFFCURVE",
"221 1024 QCURVE SMOOTH",
"221 1063 OFFCURVE",
"233 1145 QCURVE SMOOTH",
"245 1215 LINE"
);
}
);
width = 1996;
}
);
note = percent;
unicode = 0025;
},
{
glyphname = ampersand;
lastChange = "2018-07-29 15:09:15 +0000";
layers = (
{
layerId = "C33DBFF5-9F9F-4FD4-87E4-27DD273F2A02";
paths = (
{
closed = 1;
nodes = (
"898 640 LINE",
"898 330 LINE SMOOTH",
"898 265 OFFCURVE",
"814 209 OFFCURVE",
"726 198 QCURVE",
"656 198 LINE SMOOTH",
"603 198 OFFCURVE",
"480 232 OFFCURVE",
"367 293 OFFCURVE",
"292 392 OFFCURVE",
"292 449 QCURVE SMOOTH",
"292 560 OFFCURVE",
"453 640 OFFCURVE",
"655 640 QCURVE SMOOTH"
);
},
{
closed = 1;
nodes = (
"592 1364 OFFCURVE",
"470 1324 QCURVE",
"345 1268 LINE",
"337 1265 OFFCURVE",
"281 1233 OFFCURVE",
"185 1164 OFFCURVE",
"101 1084 OFFCURVE",
"38 976 OFFCURVE",
"38 924 QCURVE SMOOTH",
"38 836 OFFCURVE",
"105 764 QCURVE SMOOTH",
"147 719 OFFCURVE",
"238 669 QCURVE SMOOTH",
"282 646 LINE",
"247 621 LINE SMOOTH",
"141 545 OFFCURVE",
"22 398 OFFCURVE",
"22 315 QCURVE SMOOTH",
"22 246 OFFCURVE",
"100 128 OFFCURVE",
"218 51 OFFCURVE",
"361 -4 OFFCURVE",
"487 -28 OFFCURVE",
"536 -28 QCURVE SMOOTH",
"634 -28 OFFCURVE",
"790 58 OFFCURVE",
"914 168 QCURVE SMOOTH",
"1058 297 OFFCURVE",
"1164 469 OFFCURVE",
"1164 581 QCURVE SMOOTH",
"1164 635 LINE",
"1344 640 LINE",
"1576 850 LINE",
"1176 850 LINE",
"1176 1060 LINE",
"910 904 LINE",
"910 838 LINE",
"688 838 LINE SMOOTH",
"572 838 OFFCURVE",
"479 846 OFFCURVE",
"421 863 QCURVE SMOOTH",
"379 875 OFFCURVE",
"322 923 OFFCURVE",
"298 980 OFFCURVE",
"290 1020 OFFCURVE",
"290 1037 QCURVE SMOOTH",
"290 1076 OFFCURVE",
"319 1138 OFFCURVE",
"362 1175 OFFCURVE",
"416 1199 OFFCURVE",
"462 1208 OFFCURVE",
"482 1208 QCURVE SMOOTH",
"567 1208 OFFCURVE",
"679 1159 OFFCURVE",
"723 1099 QCURVE SMOOTH",
"738 1078 LINE",
"966 1221 LINE",
"966 1236 LINE SMOOTH",
"966 1244 OFFCURVE",
"957 1269 OFFCURVE",
"921 1308 OFFCURVE",
"864 1340 OFFCURVE",
"754 1364 OFFCURVE",
"682 1364 QCURVE SMOOTH"
);
}
);
width = 1598;
}
);
note = ampersand;
unicode = 0026;
},
{
glyphname = quotesingle;
lastChange = "2018-07-29 15:09:15 +0000";
layers = (
{
layerId = "C33DBFF5-9F9F-4FD4-87E4-27DD273F2A02";
paths = (
{
closed = 1;
nodes = (
"75 1431 LINE",
"51 951 LINE",
"209 970 LINE",
"309 1461 LINE"
);
}
);
width = 394;
}
);
note = quotesingle;
unicode = 0027;
},
{
glyphname = parenleft;
lastChange = "2018-07-29 15:09:15 +0000";
layers = (
{
layerId = "C33DBFF5-9F9F-4FD4-87E4-27DD273F2A02";
paths = (
{
closed = 1;
nodes = (
"266 1144 OFFCURVE",
"453 1518 QCURVE SMOOTH",
"489 1590 LINE",
"238 1469 LINE",
"34 1063 OFFCURVE",
"34 635 QCURVE SMOOTH",
"34 181 OFFCURVE",
"275 -205 QCURVE SMOOTH",
"292 -232 LINE",
"510 -46 LINE",
"499 -27 LINE SMOOTH",
"464 35 OFFCURVE",
"429 101 OFFCURVE",
"349 283 OFFCURVE",
"304 435 OFFCURVE",
"266 662 OFFCURVE",
"266 775 QCURVE SMOOTH"
);
}
);
width = 609;
}
);
note = parenleft;
unicode = 0028;
},
{
glyphname = parenright;
lastChange = "2018-07-29 15:09:15 +0000";
layers = (
{
layerId = "C33DBFF5-9F9F-4FD4-87E4-27DD273F2A02";
paths = (
{
closed = 1;
nodes = (
"194 218 OFFCURVE",
"7 -156 QCURVE SMOOTH",
"-29 -228 LINE",
"222 -107 LINE",
"426 301 OFFCURVE",
"426 727 QCURVE SMOOTH",
"426 944 OFFCURVE",
"329 1330 OFFCURVE",
"204 1530 QCURVE",
"168 1594 LINE",
"-50 1408 LINE",
"21 1284 LINE SMOOTH",
"194 980 OFFCURVE",
"194 587 QCURVE SMOOTH"
);
}
);
width = 506;
}
);
note = parenright;
unicode = 0029;
},
{
glyphname = asterisk;
lastChange = "2018-07-29 15:09:15 +0000";
layers = (
{
layerId = "C33DBFF5-9F9F-4FD4-87E4-27DD273F2A02";
paths = (
{
closed = 1;
nodes = (
"131 700 OFFCURVE",
"178 619 QCURVE",
"108 642 OFFCURVE",
"37 699 QCURVE",
"0 731 LINE",
"-30 491 LINE",
"-6 486 LINE SMOOTH",
"44 476 OFFCURVE",
"80 476 QCURVE SMOOTH",
"119 476 OFFCURVE",
"174 487 QCURVE",
"129 425 OFFCURVE",
"53 376 QCURVE SMOOTH",
"12 349 LINE",
"230 246 LINE",
"243 268 LINE SMOOTH",
"289 345 OFFCURVE",
"299 439 QCURVE",
"346 376 OFFCURVE",
"368 290 QCURVE SMOOTH",
"381 242 LINE",
"546 417 LINE",
"530 436 LINE SMOOTH",
"470 504 OFFCURVE",
"385 541 QCURVE",
"445 560 OFFCURVE",
"515 560 QCURVE SMOOTH",
"545 560 OFFCURVE",
"545 560 QCURVE",
"596 555 LINE",
"479 768 LINE",
"456 758 LINE SMOOTH",
"375 725 OFFCURVE",
"309 652 QCURVE",
"309 734 OFFCURVE",
"340 812 QCURVE SMOOTH",
"357 858 LINE",
"122 813 LINE",
"124 789 LINE SMOOTH"
);
}
);
width = 656;
}
);
note = asterisk;
unicode = 002A;
},
{
glyphname = plus;
lastChange = "2018-07-29 15:09:15 +0000";
layers = (
{
layerId = "C33DBFF5-9F9F-4FD4-87E4-27DD273F2A02";
paths = (
{
closed = 1;
nodes = (
"792 494 LINE",
"792 666 LINE",
"456 666 LINE",
"456 1002 LINE",
"282 1002 LINE",
"282 666 LINE",
"-54 666 LINE",
"-54 494 LINE",
"282 494 LINE",
"282 158 LINE",
"456 158 LINE",
"456 494 LINE"
);
}
);
width = 873;
}
);
note = plus;
unicode = 002B;
},
{
glyphname = comma;
lastChange = "2018-07-29 15:09:15 +0000";
layers = (
{
layerId = "C33DBFF5-9F9F-4FD4-87E4-27DD273F2A02";
paths = (
{
closed = 1;
nodes = (
"43 287 OFFCURVE",
"-44 209 QCURVE SMOOTH",
"-68 187 LINE",
"-43 167 LINE SMOOTH",
"52 88 OFFCURVE",
"52 26 QCURVE SMOOTH",
"52 -27 OFFCURVE",
"-13 -62 QCURVE SMOOTH",
"-41 -76 LINE",
"18 -158 LINE",
"196 -11 LINE SMOOTH",
"274 56 OFFCURVE",
"275 120 QCURVE SMOOTH",
"275 158 OFFCURVE",
"251 222 OFFCURVE",
"202 271 OFFCURVE",
"160 302 OFFCURVE",
"127 322 QCURVE"
);
}
);
width = 374;
}
);
note = comma;
unicode = 002C;
},
{
glyphname = hyphen;
lastChange = "2018-07-29 15:09:15 +0000";
layers = (
{
layerId = "C33DBFF5-9F9F-4FD4-87E4-27DD273F2A02";
paths = (
{
closed = 1;
nodes = (
"874 494 LINE",
"874 666 LINE",
"30 666 LINE",
"30 494 LINE"
);
}
);
width = 904;
}
);
note = hyphen;
unicode = 002D;
},
{
glyphname = period;
lastChange = "2018-07-29 15:09:15 +0000";
layers = (
{
layerId = "C33DBFF5-9F9F-4FD4-87E4-27DD273F2A02";
paths = (
{
closed = 1;
nodes = (
"-52 175 LINE",
"-63 159 OFFCURVE",
"-64 153 QCURVE",
"-64 133 LINE SMOOTH",
"-64 80 OFFCURVE",
"29 -25 OFFCURVE",
"72 -25 QCURVE SMOOTH",
"85 -25 OFFCURVE",
"98 -20 QCURVE",
"287 107 LINE",
"162 212 OFFCURVE",
"133 320 QCURVE"
);
}
);
width = 351;
}
);
note = period;
unicode = 002E;
},
{
glyphname = slash;
lastChange = "2018-07-29 15:09:15 +0000";
layers = (
{
layerId = "C33DBFF5-9F9F-4FD4-87E4-27DD273F2A02";
paths = (
{
closed = 1;
nodes = (
"-120 -52 LINE",
"112 -52 LINE",
"1195 1480 LINE",
"960 1480 LINE"
);
}
);
width = 1276;
}
);
note = slash;
unicode = 002F;
},
{
glyphname = zero;
lastChange = "2018-07-29 15:09:15 +0000";
layers = (
{
layerId = "C33DBFF5-9F9F-4FD4-87E4-27DD273F2A02";
paths = (
{
closed = 1;
nodes = (
"732 227 LINE SMOOTH",
"641 227 OFFCURVE",
"486 357 OFFCURVE",
"400 567 OFFCURVE",
"400 684 QCURVE SMOOTH",
"400 698 LINE SMOOTH",
"400 777 OFFCURVE",
"430 877 OFFCURVE",
"475 966 QCURVE SMOOTH",
"523 1061 LINE",
"430 1003 LINE SMOOTH",
"385 975 OFFCURVE",
"315 924 OFFCURVE",
"212 828 OFFCURVE",
"144 729 OFFCURVE",
"94 587 OFFCURVE",
"94 511 QCURVE SMOOTH",
"94 487 LINE",
"110 394 OFFCURVE",
"191 218 OFFCURVE",
"304 83 OFFCURVE",
"451 0 OFFCURVE",
"526 0 QCURVE",
"607 4 OFFCURVE",
"807 123 OFFCURVE",
"988 304 OFFCURVE",
"1143 508 OFFCURVE",
"1237 702 OFFCURVE",
"1238 765 QCURVE",
"1233 867 OFFCURVE",
"1161 1073 OFFCURVE",
"1044 1241 OFFCURVE",
"874 1350 OFFCURVE",
"779 1354 QCURVE",
"655 1353 OFFCURVE",
"468 1244 OFFCURVE",
"380 1144 QCURVE SMOOTH",
"364 1126 LINE",
"430 1051 LINE",
"454 1073 LINE SMOOTH",
"510 1126 OFFCURVE",
"569 1126 QCURVE SMOOTH",
"659 1126 OFFCURVE",
"841 900 OFFCURVE",
"949 595 OFFCURVE",
"949 472 QCURVE SMOOTH",
"949 429 OFFCURVE",
"905 321 OFFCURVE",
"808 229 OFFCURVE",
"746 227 QCURVE SMOOTH"
);
}
);
width = 1344;
}
);
note = zero;
unicode = 0030;
},
{
glyphname = one;
lastChange = "2018-07-29 15:09:15 +0000";
layers = (
{
layerId = "C33DBFF5-9F9F-4FD4-87E4-27DD273F2A02";
paths = (
{
closed = 1;
nodes = (
"279 5 LINE",
"597 201 LINE",
"589 1167 LINE",
"589 1177 OFFCURVE",
"587 1227 OFFCURVE",
"586 1244 OFFCURVE",
"583 1283 OFFCURVE",
"579 1296 OFFCURVE",
"570 1322 OFFCURVE",
"558 1332 OFFCURVE",
"541 1346 OFFCURVE",
"517 1352 OFFCURVE",
"502 1353 QCURVE",
"437 1352 OFFCURVE",
"146 1145 OFFCURVE",
"93 1086 QCURVE SMOOTH",
"70 1061 LINE",
"152 1012 LINE",
"167 1027 LINE",
"188 1046 OFFCURVE",
"194 1048 QCURVE",
"201 1048 LINE SMOOTH",
"230 1048 OFFCURVE",
"276 861 OFFCURVE",
"279 727 QCURVE SMOOTH"
);
}
);
width = 732;
}
);
note = one;
unicode = 0031;
},
{
glyphname = two;
lastChange = "2018-07-29 15:09:15 +0000";
layers = (
{
layerId = "C33DBFF5-9F9F-4FD4-87E4-27DD273F2A02";
paths = (
{
closed = 1;
nodes = (
"386 1123 OFFCURVE",
"470 1086 OFFCURVE",
"542 1013 OFFCURVE",
"586 886 OFFCURVE",
"586 805 QCURVE SMOOTH",
"586 781 LINE",
"578 694 OFFCURVE",
"488 527 OFFCURVE",
"354 389 OFFCURVE",
"219 273 OFFCURVE",
"79 153 OFFCURVE",
"46 111 QCURVE SMOOTH",
"31 92 LINE",
"113 10 LINE",
"228 34 OFFCURVE",
"358 34 QCURVE SMOOTH",
"449 34 OFFCURVE",
"733 26 OFFCURVE",
"764 21 QCURVE",
"1012 338 LINE",
"452 329 LINE",
"721 664 LINE",
"801 740 OFFCURVE",
"887 891 OFFCURVE",
"888 996 QCURVE SMOOTH",
"888 1003 LINE SMOOTH",
"888 1052 OFFCURVE",
"866 1148 OFFCURVE",
"811 1246 OFFCURVE",
"731 1320 OFFCURVE",
"604 1368 OFFCURVE",
"525 1370 QCURVE",
"445 1368 OFFCURVE",
"256 1283 OFFCURVE",
"125 1182 OFFCURVE",
"101 1143 QCURVE",
"87 1123 LINE",
"169 1065 LINE",
"250 1123 OFFCURVE",
"342 1123 QCURVE SMOOTH"
);
}
);
width = 1042;
}
);
note = two;
unicode = 0032;
},
{
glyphname = three;
lastChange = "2018-07-29 15:09:15 +0000";
layers = (
{
layerId = "C33DBFF5-9F9F-4FD4-87E4-27DD273F2A02";
paths = (
{
closed = 1;
nodes = (
"168 1088 LINE",
"227 1128 OFFCURVE",
"282 1128 QCURVE SMOOTH",
"361 1128 OFFCURVE",
"487 1022 OFFCURVE",
"487 953 QCURVE SMOOTH",
"487 943 LINE",
"477 890 OFFCURVE",
"423 808 OFFCURVE",
"349 758 OFFCURVE",
"278 724 OFFCURVE",
"202 691 OFFCURVE",
"184 678 QCURVE SMOOTH",
"126 635 LINE",
"200 631 LINE SMOOTH",
"266 628 OFFCURVE",
"370 612 OFFCURVE",
"473 575 OFFCURVE",
"541 516 OFFCURVE",
"583 419 OFFCURVE",
"583 355 QCURVE SMOOTH",
"583 332 LINE SMOOTH",
"582 293 OFFCURVE",
"533 209 OFFCURVE",
"468 144 OFFCURVE",
"365 69 OFFCURVE",
"295 26 OFFCURVE",
"245 -3 QCURVE",
"223 -17 LINE",
"258 -83 LINE",
"283 -67 LINE",
"320 -46 OFFCURVE",
"479 29 OFFCURVE",
"598 87 OFFCURVE",
"745 184 OFFCURVE",
"841 279 OFFCURVE",
"908 414 OFFCURVE",
"908 489 QCURVE SMOOTH",
"908 616 OFFCURVE",
"749 788 OFFCURVE",
"605 832 QCURVE",
"614 838 OFFCURVE",
"685 887 OFFCURVE",
"708 905 OFFCURVE",
"764 951 OFFCURVE",
"786 982 OFFCURVE",
"817 1030 OFFCURVE",
"828 1081 OFFCURVE",
"828 1110 QCURVE SMOOTH",
"828 1220 OFFCURVE",
"649 1361 OFFCURVE",
"521 1361 QCURVE SMOOTH",
"458 1361 OFFCURVE",
"319 1304 OFFCURVE",
"229 1238 OFFCURVE",
"134 1162 OFFCURVE",
"124 1156 QCURVE SMOOTH",
"100 1141 LINE",
"145 1071 LINE"
);
}
);
width = 997;
}
);
note = three;
unicode = 0033;
},
{
glyphname = four;
lastChange = "2018-07-29 15:09:15 +0000";
layers = (
{
layerId = "C33DBFF5-9F9F-4FD4-87E4-27DD273F2A02";
paths = (
{
closed = 1;
nodes = (
"692 1381 LINE SMOOTH",
"662 1353 OFFCURVE",
"548 1235 OFFCURVE",
"352 1014 OFFCURVE",
"190 803 OFFCURVE",
"69 576 OFFCURVE",
"69 503 QCURVE SMOOTH",
"69 462 OFFCURVE",
"108 407 OFFCURVE",
"180 382 OFFCURVE",
"247 374 OFFCURVE",
"292 374 QCURVE SMOOTH",
"633 374 LINE",
"633 -15 LINE",
"931 168 LINE",
"931 406 LINE",
"1045 423 LINE",
"1244 686 LINE",
"949 649 LINE",
"949 1125 LINE",
"652 932 LINE",
"652 610 LINE",
"604 610 OFFCURVE",
"544 613 OFFCURVE",
"477 619 OFFCURVE",
"439 633 OFFCURVE",
"406 654 OFFCURVE",
"392 687 OFFCURVE",
"392 710 QCURVE SMOOTH",
"392 762 OFFCURVE",
"438 884 OFFCURVE",
"528 1023 OFFCURVE",
"608 1133 OFFCURVE",
"730 1289 OFFCURVE",
"758 1327 QCURVE SMOOTH",
"771 1345 LINE",
"714 1403 LINE"
);
}
);
width = 1256;
}
);
note = four;
unicode = 0034;
},
{
glyphname = five;
lastChange = "2018-07-29 15:09:15 +0000";
layers = (
{
layerId = "C33DBFF5-9F9F-4FD4-87E4-27DD273F2A02";
paths = (
{
closed = 1;
nodes = (
"995 1348 LINE",
"962 1342 LINE SMOOTH",
"857 1322 OFFCURVE",
"757 1322 QCURVE SMOOTH",
"614 1322 OFFCURVE",
"463 1355 QCURVE SMOOTH",
"441 1360 LINE",
"61 776 LINE",
"86 763 LINE SMOOTH",
"114 748 OFFCURVE",
"201 705 OFFCURVE",
"257 678 OFFCURVE",
"333 633 OFFCURVE",
"381 594 OFFCURVE",
"433 536 OFFCURVE",
"463 473 OFFCURVE",
"483 387 OFFCURVE",
"483 337 QCURVE SMOOTH",
"483 294 OFFCURVE",
"397 184 OFFCURVE",
"305 111 OFFCURVE",
"172 14 OFFCURVE",
"162 6 QCURVE SMOOTH",
"142 -11 LINE",
"197 -89 LINE",
"219 -76 LINE",
"404 20 OFFCURVE",
"488 75 QCURVE SMOOTH",
"798 277 OFFCURVE",
"798 502 QCURVE SMOOTH",
"798 583 OFFCURVE",
"711 746 OFFCURVE",
"576 870 OFFCURVE",
"422 960 OFFCURVE",
"351 978 QCURVE",
"372 1060 LINE",
"518 1018 OFFCURVE",
"629 1018 QCURVE SMOOTH",
"698 1018 OFFCURVE",
"806 1052 OFFCURVE",
"893 1124 OFFCURVE",
"956 1203 OFFCURVE",
"995 1265 QCURVE"
);
}
);
width = 983;
}
);
note = five;
unicode = 0035;
},
{
glyphname = six;
lastChange = "2018-07-29 15:09:15 +0000";
layers = (
{
layerId = "C33DBFF5-9F9F-4FD4-87E4-27DD273F2A02";
paths = (
{
closed = 1;
nodes = (
"725 1351 LINE",
"722 1349 OFFCURVE",
"711 1341 QCURVE SMOOTH",
"679 1318 OFFCURVE",
"607 1263 OFFCURVE",
"479 1154 OFFCURVE",
"366 1042 OFFCURVE",
"240 888 OFFCURVE",
"150 738 OFFCURVE",
"91 557 OFFCURVE",
"91 471 QCURVE SMOOTH",
"91 378 OFFCURVE",
"163 204 OFFCURVE",
"279 81 OFFCURVE",
"430 7 OFFCURVE",
"508 7 QCURVE SMOOTH",
"559 7 OFFCURVE",
"708 70 OFFCURVE",
"864 182 OFFCURVE",
"1000 320 OFFCURVE",
"1086 488 OFFCURVE",
"1086 566 QCURVE SMOOTH",
"1086 602 OFFCURVE",
"1049 716 OFFCURVE",
"986 833 OFFCURVE",
"884 916 OFFCURVE",
"827 916 QCURVE SMOOTH",
"734 916 OFFCURVE",
"651 862 QCURVE SMOOTH",
"615 839 OFFCURVE",
"536 768 QCURVE SMOOTH",
"500 736 LINE",
"549 722 LINE SMOOTH",
"643 696 OFFCURVE",
"814 458 OFFCURVE",
"814 328 QCURVE SMOOTH",
"814 285 OFFCURVE",
"755 224 OFFCURVE",
"708 224 QCURVE SMOOTH",
"640 224 OFFCURVE",
"514 321 OFFCURVE",
"430 463 OFFCURVE",
"379 618 OFFCURVE",
"379 679 QCURVE SMOOTH",
"379 751 OFFCURVE",
"420 889 OFFCURVE",
"474 987 OFFCURVE",
"572 1101 OFFCURVE",
"640 1166 OFFCURVE",
"758 1271 OFFCURVE",
"783 1295 QCURVE SMOOTH",
"800 1312 LINE",
"750 1371 LINE"
);
}
);
width = 1149;
}
);
note = six;
unicode = 0036;
},
{
glyphname = seven;
lastChange = "2018-07-29 15:09:15 +0000";
layers = (
{
layerId = "C33DBFF5-9F9F-4FD4-87E4-27DD273F2A02";
paths = (
{
closed = 1;
nodes = (
"448 1284 OFFCURVE",
"363 1354 QCURVE SMOOTH",
"342 1371 LINE",
"54 1106 LINE",
"71 1086 LINE SMOOTH",
"98 1054 OFFCURVE",
"193 1009 OFFCURVE",
"403 977 OFFCURVE",
"558 977 QCURVE SMOOTH",
"673 977 LINE",
"179 -6 LINE",
"545 181 LINE",
"545 197 LINE SMOOTH",
"545 272 OFFCURVE",
"575 433 OFFCURVE",
"640 606 OFFCURVE",
"699 743 OFFCURVE",
"805 929 OFFCURVE",
"863 1028 OFFCURVE",
"979 1214 OFFCURVE",
"995 1240 QCURVE",
"1005 1258 LINE",
"952 1311 LINE",
"942 1310 OFFCURVE",
"854 1298 OFFCURVE",
"791 1291 OFFCURVE",
"692 1284 OFFCURVE",
"650 1284 QCURVE SMOOTH"
);
}
);
width = 971;
}
);
note = seven;
unicode = 0037;
},
{
glyphname = eight;
lastChange = "2018-07-29 15:09:15 +0000";
layers = (
{
layerId = "C33DBFF5-9F9F-4FD4-87E4-27DD273F2A02";
paths = (
{
closed = 1;
nodes = (
"748 313 OFFCURVE",
"614 212 OFFCURVE",
"550 212 QCURVE SMOOTH",
"470 212 OFFCURVE",
"379 343 OFFCURVE",
"379 432 QCURVE SMOOTH",
"379 491 OFFCURVE",
"439 592 OFFCURVE",
"495 646 QCURVE",
"588 621 OFFCURVE",
"748 465 OFFCURVE",
"748 368 QCURVE SMOOTH"
);
},
{
closed = 1;
nodes = (
"478 1089 LINE",
"553 1119 LINE SMOOTH",
"582 1131 OFFCURVE",
"605 1131 QCURVE SMOOTH",
"650 1131 OFFCURVE",
"703 1053 OFFCURVE",
"703 994 QCURVE SMOOTH",
"703 910 OFFCURVE",
"649 838 QCURVE",
"552 854 OFFCURVE",
"405 985 OFFCURVE",
"405 1060 QCURVE SMOOTH",
"405 1147 OFFCURVE",
"512 1220 QCURVE SMOOTH",
"530 1232 LINE",
"502 1303 LINE",
"472 1293 LINE SMOOTH",
"441 1283 OFFCURVE",
"328 1208 OFFCURVE",
"206 1107 OFFCURVE",
"117 979 OFFCURVE",
"117 926 QCURVE SMOOTH",
"117 883 OFFCURVE",
"158 806 OFFCURVE",
"213 753 OFFCURVE",
"298 703 OFFCURVE",
"358 676 OFFCURVE",
"397 661 QCURVE",
"369 634 OFFCURVE",
"265 554 OFFCURVE",
"193 491 OFFCURVE",
"116 404 OFFCURVE",
"76 296 OFFCURVE",
"76 232 QCURVE SMOOTH",
"76 131 OFFCURVE",
"242 4 OFFCURVE",
"363 4 QCURVE SMOOTH",
"411 4 OFFCURVE",
"582 78 OFFCURVE",
"768 200 OFFCURVE",
"937 338 OFFCURVE",
"1046 484 OFFCURVE",
"1046 537 QCURVE SMOOTH",
"1046 584 OFFCURVE",
"1005 664 OFFCURVE",
"952 716 OFFCURVE",
"856 768 OFFCURVE",
"796 792 OFFCURVE",
"742 812 QCURVE",
"780 842 OFFCURVE",
"861 919 OFFCURVE",
"950 1021 OFFCURVE",
"1007 1131 OFFCURVE",
"1007 1176 QCURVE SMOOTH",
"1007 1251 OFFCURVE",
"924 1357 OFFCURVE",
"848 1357 QCURVE SMOOTH",
"767 1357 OFFCURVE",
"556 1240 OFFCURVE",
"512 1156 QCURVE SMOOTH"
);
}
);
width = 1157;
}
);
note = eight;
unicode = 0038;
},
{
glyphname = nine;
lastChange = "2018-07-29 15:09:15 +0000";
layers = (
{
layerId = "C33DBFF5-9F9F-4FD4-87E4-27DD273F2A02";
paths = (
{
closed = 1;
nodes = (
"703 687 OFFCURVE",
"684 706 QCURVE SMOOTH",
"674 716 OFFCURVE",
"663 716 QCURVE SMOOTH",
"656 716 OFFCURVE",
"602 690 OFFCURVE",
"578 690 QCURVE SMOOTH",
"521 690 OFFCURVE",
"416 814 OFFCURVE",
"361 971 OFFCURVE",
"361 1032 QCURVE SMOOTH",
"361 1077 OFFCURVE",
"413 1155 OFFCURVE",
"469 1155 QCURVE SMOOTH",
"539 1155 OFFCURVE",
"665 1059 OFFCURVE",
"748 910 OFFCURVE",
"796 732 OFFCURVE",
"796 647 QCURVE SMOOTH",
"796 584 OFFCURVE",
"732 443 OFFCURVE",
"649 333 OFFCURVE",
"520 207 OFFCURVE",
"439 139 OFFCURVE",
"385 96 QCURVE SMOOTH",
"367 82 LINE",
"421 0 LINE",
"449 16 LINE SMOOTH",
"480 34 OFFCURVE",
"585 110 OFFCURVE",
"734 234 OFFCURVE",
"880 393 OFFCURVE",
"1008 569 OFFCURVE",
"1087 776 OFFCURVE",
"1087 874 QCURVE SMOOTH",
"1087 990 OFFCURVE",
"978 1217 OFFCURVE",
"779 1368 OFFCURVE",
"663 1368 QCURVE SMOOTH",
"608 1368 OFFCURVE",
"456 1304 OFFCURVE",
"304 1193 OFFCURVE",
"173 1061 OFFCURVE",
"91 907 OFFCURVE",
"91 840 QCURVE SMOOTH",
"91 790 OFFCURVE",
"124 674 OFFCURVE",
"184 563 OFFCURVE",
"289 490 OFFCURVE",
"353 490 QCURVE SMOOTH",
"381 490 OFFCURVE",
"438 502 OFFCURVE",
"482 516 OFFCURVE",
"536 548 OFFCURVE",
"567 567 OFFCURVE",
"617 608 OFFCURVE",
"634 624 OFFCURVE",
"681 667 OFFCURVE",
"683 669 QCURVE"
);
}
);
width = 1203;
}
);
note = nine;
unicode = 0039;
},
{
glyphname = colon;
lastChange = "2018-07-29 15:09:15 +0000";
layers = (
{
layerId = "C33DBFF5-9F9F-4FD4-87E4-27DD273F2A02";
paths = (
{
closed = 1;
nodes = (
"34 174 LINE",
"23 158 OFFCURVE",
"22 152 QCURVE",
"22 133 LINE SMOOTH",
"22 80 OFFCURVE",
"115 -26 OFFCURVE",
"158 -26 QCURVE SMOOTH",
"171 -26 OFFCURVE",
"184 -21 QCURVE",
"373 106 LINE",
"248 211 OFFCURVE",
"219 319 QCURVE"
);
},
{
closed = 1;
nodes = (
"34 847 LINE",
"23 831 OFFCURVE",
"22 825 QCURVE",
"22 806 LINE SMOOTH",
"22 753 OFFCURVE",
"115 647 OFFCURVE",
"158 647 QCURVE SMOOTH",
"171 647 OFFCURVE",
"184 652 QCURVE",
"373 779 LINE",
"248 884 OFFCURVE",
"219 992 QCURVE"
);
}
);
width = 437;
}
);
note = colon;
unicode = 003A;
},
{
glyphname = semicolon;
lastChange = "2018-07-29 15:09:15 +0000";
layers = (
{
layerId = "C33DBFF5-9F9F-4FD4-87E4-27DD273F2A02";
paths = (
{
closed = 1;
nodes = (
"34 847 LINE",
"26 835 OFFCURVE",
"24 825 QCURVE",
"22 819 OFFCURVE",
"22 806 QCURVE SMOOTH",
"22 753 OFFCURVE",
"115 647 OFFCURVE",
"158 647 QCURVE SMOOTH",
"171 647 OFFCURVE",
"184 652 QCURVE",
"373 779 LINE",
"248 884 OFFCURVE",
"219 992 QCURVE"
);
},
{
closed = 1;
nodes = (
"140 274 OFFCURVE",
"57 203 QCURVE SMOOTH",
"32 181 LINE",
"57 161 LINE SMOOTH",
"154 81 OFFCURVE",
"154 20 QCURVE SMOOTH",
"154 -3 OFFCURVE",
"123 -46 OFFCURVE",
"98 -63 OFFCURVE",
"89 -67 QCURVE",
"59 -82 LINE",
"120 -164 LINE",
"296 -17 LINE SMOOTH",
"376 47 OFFCURVE",
"376 114 QCURVE SMOOTH",
"376 152 OFFCURVE",
"352 216 OFFCURVE",
"302 265 OFFCURVE",
"262 295 OFFCURVE",
"229 315 QCURVE"
);
}
);
width = 475;
}
);
note = semicolon;
unicode = 003B;
},
{
glyphname = less;
lastChange = "2018-07-29 15:09:15 +0000";
layers = (
{
layerId = "C33DBFF5-9F9F-4FD4-87E4-27DD273F2A02";
paths = (
{
closed = 1;
nodes = (
"972 180 LINE",
"193 518 LINE",
"972 856 LINE",
"972 1057 LINE",
"-70 602 LINE",
"-70 434 LINE",
"972 -20 LINE"
);
}
);
width = 1079;
}
);
note = less;
unicode = 003C;
},
{
glyphname = equal;
lastChange = "2018-07-29 15:09:15 +0000";
layers = (
{
layerId = "C33DBFF5-9F9F-4FD4-87E4-27DD273F2A02";
paths = (
{
closed = 1;
nodes = (
"1068 838 LINE",
"26 838 LINE",
"26 636 LINE",
"1068 636 LINE"
);
},
{
closed = 1;
nodes = (
"1068 400 LINE",
"26 400 LINE",
"26 198 LINE",
"1068 198 LINE"
);
}
);
width = 1149;
}
);
note = equal;
unicode = 003D;
},
{
glyphname = greater;
lastChange = "2018-07-29 15:09:15 +0000";
layers = (
{
layerId = "C33DBFF5-9F9F-4FD4-87E4-27DD273F2A02";
paths = (
{
closed = 1;
nodes = (
"1052 602 LINE",
"10 1057 LINE",
"10 856 LINE",
"790 518 LINE",
"10 180 LINE",
"10 -20 LINE",
"1052 434 LINE"
);
}
);
width = 1134;
}
);
note = greater;
unicode = 003E;
},
{
glyphname = question;
lastChange = "2018-07-29 15:09:15 +0000";
layers = (
{
layerId = "C33DBFF5-9F9F-4FD4-87E4-27DD273F2A02";
paths = (
{
closed = 1;
nodes = (
"269 1472 OFFCURVE",
"147 1434 OFFCURVE",
"42 1359 OFFCURVE",
"-33 1287 OFFCURVE",
"-79 1234 QCURVE SMOOTH",
"-98 1211 LINE",
"-23 1157 LINE",
"-7 1171 LINE SMOOTH",
"99 1266 OFFCURVE",
"215 1266 QCURVE SMOOTH",
"342 1266 OFFCURVE",
"522 1035 OFFCURVE",
"522 854 QCURVE SMOOTH",
"522 808 OFFCURVE",
"484 731 OFFCURVE",
"421 671 OFFCURVE",
"352 613 OFFCURVE",
"276 529 OFFCURVE",
"251 483 QCURVE SMOOTH",
"241 464 LINE",
"319 390 LINE",
"337 420 LINE SMOOTH",
"372 482 OFFCURVE",
"481 594 OFFCURVE",
"584 668 OFFCURVE",
"692 757 OFFCURVE",
"773 840 OFFCURVE",
"824 965 OFFCURVE",
"824 1040 QCURVE SMOOTH",
"824 1170 OFFCURVE",
"684 1371 OFFCURVE",
"464 1472 OFFCURVE",
"337 1472 QCURVE SMOOTH"
);
},
{
closed = 1;
nodes = (
"255 -28 OFFCURVE",
"271 -20 QCURVE",
"457 103 LINE",
"432 127 LINE SMOOTH",
"345 209 OFFCURVE",
"318 284 QCURVE SMOOTH",
"306 319 LINE",
"154 208 LINE",
"114 172 OFFCURVE",
"106 139 QCURVE",
"104 129 OFFCURVE",
"104 123 QCURVE SMOOTH",
"104 74 OFFCURVE",
"188 -28 OFFCURVE",
"241 -28 QCURVE SMOOTH"
);
}
);
width = 912;
}
);
note = question;
unicode = 003F;
},
{
glyphname = at;
lastChange = "2018-07-29 15:09:15 +0000";
layers = (
{
layerId = "C33DBFF5-9F9F-4FD4-87E4-27DD273F2A02";
paths = (
{
closed = 1;
nodes = (
"548 780 OFFCURVE",
"692 958 OFFCURVE",
"796 958 QCURVE SMOOTH",
"861 958 OFFCURVE",
"942 860 OFFCURVE",
"942 784 QCURVE SMOOTH",
"942 711 OFFCURVE",
"885 571 OFFCURVE",
"774 474 OFFCURVE",
"706 474 QCURVE SMOOTH",
"632 474 OFFCURVE",
"548 579 OFFCURVE",
"548 657 QCURVE SMOOTH"
);
},
{
closed = 1;
nodes = (
"532 138 OFFCURVE",
"194 462 OFFCURVE",
"194 731 QCURVE SMOOTH",
"194 899 OFFCURVE",
"329 1168 OFFCURVE",
"606 1332 OFFCURVE",
"796 1332 QCURVE SMOOTH",
"1054 1332 OFFCURVE",
"1364 1068 OFFCURVE",
"1364 831 QCURVE SMOOTH",
"1364 744 OFFCURVE",
"1317 599 OFFCURVE",
"1243 510 OFFCURVE",
"1159 462 OFFCURVE",
"1119 462 QCURVE SMOOTH",
"1065 462 OFFCURVE",
"1065 512 QCURVE",
"1208 1120 LINE",
"1042 1120 LINE",
"1012 1014 LINE",
"934 1148 OFFCURVE",
"779 1148 QCURVE SMOOTH",
"661 1148 OFFCURVE",
"461 1009 OFFCURVE",
"346 771 OFFCURVE",
"346 631 QCURVE SMOOTH",
"346 487 OFFCURVE",
"530 284 OFFCURVE",
"659 284 QCURVE SMOOTH",
"768 284 OFFCURVE",
"876 394 QCURVE",
"878 336 OFFCURVE",
"948 284 OFFCURVE",
"992 284 QCURVE SMOOTH",
"1172 284 OFFCURVE",
"1530 596 OFFCURVE",
"1530 895 QCURVE SMOOTH",
"1530 1041 OFFCURVE",
"1412 1274 OFFCURVE",
"1209 1421 OFFCURVE",
"947 1498 OFFCURVE",
"798 1498 QCURVE SMOOTH",
"638 1498 OFFCURVE",
"345 1379 OFFCURVE",
"131 1177 OFFCURVE",
"4 893 OFFCURVE",
"4 735 QCURVE SMOOTH",
"4 408 OFFCURVE",
"234 190 QCURVE SMOOTH",
"463 -28 OFFCURVE",
"808 -28 QCURVE SMOOTH",
"1014 -28 OFFCURVE",
"1323 127 OFFCURVE",
"1424 264 QCURVE SMOOTH",
"1456 308 LINE",
"1282 308 LINE",
"1112 138 OFFCURVE",
"820 138 QCURVE SMOOTH"
);
}
);
width = 1595;
}
);
note = at;
unicode = 0040;
},
{
glyphname = A;
lastChange = "2018-07-29 15:09:15 +0000";
layers = (
{
layerId = "C33DBFF5-9F9F-4FD4-87E4-27DD273F2A02";
paths = (
{
closed = 1;
nodes = (
"1265 0 OFFCURVE",
"1366 28 OFFCURVE",
"1449 82 OFFCURVE",
"1505 130 OFFCURVE",
"1539 166 QCURVE",
"1496 261 LINE",
"1470 212 LINE SMOOTH",
"1466 205 OFFCURVE",
"1463 204 QCURVE",
"1428 208 OFFCURVE",
"1253 449 OFFCURVE",
"1062 789 OFFCURVE",
"883 1202 OFFCURVE",
"846 1356 QCURVE",
"770 1423 LINE",
"517 1296 LINE",
"271 600 OFFCURVE",
"-24 49 QCURVE SMOOTH",
"-61 -20 LINE",
"286 131 LINE",
"286 147 LINE SMOOTH",
"286 209 OFFCURVE",
"333 342 QCURVE",
"920 342 LINE",
"1039 148 OFFCURVE",
"1161 4 OFFCURVE",
"1208 0 QCURVE"
);
},
{
closed = 1;
nodes = (
"466 512 OFFCURVE",
"397 519 QCURVE",
"614 1064 LINE",
"842 522 LINE",
"770 512 OFFCURVE",
"641 512 QCURVE SMOOTH",
"582 512 LINE SMOOTH"
);
}
);
width = 1608;
}
);
note = A;
unicode = 0041;
},
{
glyphname = B;
lastChange = "2018-07-29 15:09:15 +0000";
layers = (
{
layerId = "C33DBFF5-9F9F-4FD4-87E4-27DD273F2A02";
paths = (
{
closed = 1;
nodes = (
"887 1008 LINE SMOOTH",
"887 964 OFFCURVE",
"812 881 OFFCURVE",
"709 827 OFFCURVE",
"613 793 OFFCURVE",
"586 790 QCURVE",
"570 789 OFFCURVE",
"556 765 OFFCURVE",
"567 739 OFFCURVE",
"582 736 QCURVE SMOOTH",
"672 716 OFFCURVE",
"813 662 OFFCURVE",
"936 578 OFFCURVE",
"1003 456 OFFCURVE",
"1003 378 QCURVE SMOOTH",
"1003 325 OFFCURVE",
"870 223 OFFCURVE",
"824 223 QCURVE SMOOTH",
"725 223 OFFCURVE",
"579 253 OFFCURVE",
"489 291 QCURVE",
"489 1254 LINE",
"577 1251 OFFCURVE",
"721 1217 OFFCURVE",
"810 1169 OFFCURVE",
"870 1111 OFFCURVE",
"894 1061 OFFCURVE",
"894 1040 QCURVE SMOOTH",
"894 1028 OFFCURVE",
"887 1014 QCURVE"
);
},
{
closed = 1;
nodes = (
"1275 654 OFFCURVE",
"1128 784 OFFCURVE",
"977 815 QCURVE",
"1018 844 OFFCURVE",
"1068 887 OFFCURVE",
"1133 956 OFFCURVE",
"1165 1036 OFFCURVE",
"1165 1081 QCURVE SMOOTH",
"1165 1420 OFFCURVE",
"450 1420 QCURVE SMOOTH",
"385 1420 OFFCURVE",
"213 1392 OFFCURVE",
"187 1383 QCURVE",
"-28 1145 LINE",
"50 1159 LINE SMOOTH",
"174 1181 OFFCURVE",
"206 1183 QCURVE",
"234 969 OFFCURVE",
"234 727 QCURVE SMOOTH",
"234 429 OFFCURVE",
"188 99 QCURVE SMOOTH",
"185 78 LINE",
"206 71 LINE SMOOTH",
"422 0 OFFCURVE",
"621 0 QCURVE SMOOTH",
"693 0 OFFCURVE",
"917 99 OFFCURVE",
"1125 246 OFFCURVE",
"1275 435 OFFCURVE",
"1275 515 QCURVE SMOOTH"
);
}
);
width = 1339;
}
);
note = B;
unicode = 0042;
},
{
glyphname = C;
lastChange = "2018-07-29 15:09:15 +0000";
layers = (
{
layerId = "C33DBFF5-9F9F-4FD4-87E4-27DD273F2A02";
paths = (
{
closed = 1;
nodes = (
"1098 1333 LINE",
"1042 1420 OFFCURVE",
"896 1420 QCURVE SMOOTH",
"845 1420 LINE SMOOTH",
"690 1420 OFFCURVE",
"390 1295 OFFCURVE",
"168 1091 OFFCURVE",
"32 818 OFFCURVE",
"32 677 QCURVE SMOOTH",
"32 575 OFFCURVE",
"88 377 OFFCURVE",
"200 205 OFFCURVE",
"353 75 OFFCURVE",
"561 0 OFFCURVE",
"679 0 QCURVE SMOOTH",
"815 0 OFFCURVE",
"1058 150 OFFCURVE",
"1143 280 QCURVE",
"1121 371 LINE",
"1089 351 LINE SMOOTH",
"932 253 OFFCURVE",
"646 253 OFFCURVE",
"427 428 OFFCURVE",
"310 741 OFFCURVE",
"310 942 QCURVE SMOOTH",
"310 1002 OFFCURVE",
"371 1130 OFFCURVE",
"492 1225 OFFCURVE",
"565 1225 QCURVE SMOOTH",
"634 1225 OFFCURVE",
"747 1192 OFFCURVE",
"801 1159 OFFCURVE",
"849 1125 QCURVE SMOOTH",
"867 1112 LINE",
"886 1124 LINE",
"911 1142 OFFCURVE",
"987 1192 OFFCURVE",
"1032 1224 OFFCURVE",
"1080 1262 OFFCURVE",
"1103 1296 OFFCURVE",
"1103 1311 QCURVE SMOOTH",
"1103 1324 OFFCURVE",
"1094 1338 QCURVE"
);
}
);
width = 1238;
}
);
note = C;
unicode = 0043;
},
{
glyphname = D;
lastChange = "2018-07-29 15:09:15 +0000";
layers = (
{
layerId = "C33DBFF5-9F9F-4FD4-87E4-27DD273F2A02";
paths = (
{
closed = 1;
nodes = (
"1157 443 OFFCURVE",
"991 243 OFFCURVE",
"858 243 QCURVE SMOOTH",
"745 243 OFFCURVE",
"580 274 OFFCURVE",
"505 322 QCURVE",
"505 1240 LINE",
"656 1237 OFFCURVE",
"886 1163 OFFCURVE",
"1030 1045 OFFCURVE",
"1121 874 OFFCURVE",
"1157 691 OFFCURVE",
"1157 580 QCURVE SMOOTH"
);
},
{
closed = 1;
nodes = (
"224 1193 LINE",
"224 73 LINE",
"248 69 LINE SMOOTH",
"300 60 OFFCURVE",
"440 22 OFFCURVE",
"561 0 OFFCURVE",
"633 0 QCURVE SMOOTH",
"709 0 OFFCURVE",
"915 88 OFFCURVE",
"1122 242 OFFCURVE",
"1301 427 OFFCURVE",
"1413 645 OFFCURVE",
"1413 741 QCURVE SMOOTH",
"1413 880 OFFCURVE",
"1315 1108 OFFCURVE",
"1147 1264 OFFCURVE",
"919 1371 OFFCURVE",
"664 1420 OFFCURVE",
"525 1420 QCURVE SMOOTH",
"464 1420 OFFCURVE",
"282 1413 OFFCURVE",
"224 1413 QCURVE SMOOTH",
"213 1413 LINE",
"-47 1193 LINE"
);
}
);
width = 1464;
}
);
note = D;
unicode = 0044;
},
{
glyphname = E;
lastChange = "2018-07-29 15:09:15 +0000";
layers = (
{
layerId = "C33DBFF5-9F9F-4FD4-87E4-27DD273F2A02";
paths = (
{
closed = 1;
nodes = (
"44 1213 LINE",
"290 1213 LINE",
"290 842 LINE",
"235 769 OFFCURVE",
"101 673 QCURVE SMOOTH",
"34 626 LINE",
"282 626 LINE",
"282 -4 LINE",
"315 0 LINE SMOOTH",
"424 12 OFFCURVE",
"572 12 QCURVE SMOOTH",
"652 12 OFFCURVE",
"979 0 OFFCURVE",
"1064 0 QCURVE SMOOTH",
"1076 0 LINE",
"1305 237 LINE",
"1240 237 LINE",
"1158 217 OFFCURVE",
"1079 217 QCURVE SMOOTH",
"1001 217 OFFCURVE",
"913 237 QCURVE",
"702 237 OFFCURVE",
"545 224 QCURVE",
"545 626 LINE",
"615 626 OFFCURVE",
"724 630 OFFCURVE",
"811 642 OFFCURVE",
"870 651 OFFCURVE",
"922 675 OFFCURVE",
"952 691 OFFCURVE",
"988 729 OFFCURVE",
"1007 752 OFFCURVE",
"1046 805 OFFCURVE",
"1059 822 QCURVE",
"1089 866 LINE",
"554 866 LINE",
"554 1184 LINE",
"686 1171 OFFCURVE",
"772 1171 QCURVE SMOOTH",
"848 1171 OFFCURVE",
"912 1179 QCURVE",
"932 1179 OFFCURVE",
"970 1186 OFFCURVE",
"1008 1205 OFFCURVE",
"1037 1219 OFFCURVE",
"1073 1252 OFFCURVE",
"1093 1269 OFFCURVE",
"1129 1310 OFFCURVE",
"1142 1325 OFFCURVE",
"1179 1371 OFFCURVE",
"1182 1375 QCURVE SMOOTH",
"1218 1420 LINE",
"1160 1420 LINE SMOOTH",
"1074 1420 OFFCURVE",
"722 1404 OFFCURVE",
"624 1404 QCURVE SMOOTH",
"484 1404 OFFCURVE",
"302 1423 QCURVE"
);
}
);
width = 1320;
}
);
note = E;
unicode = 0045;
},
{
glyphname = F;
lastChange = "2018-07-29 15:09:15 +0000";
layers = (
{
layerId = "C33DBFF5-9F9F-4FD4-87E4-27DD273F2A02";
paths = (
{
closed = 1;
nodes = (
"22 1195 LINE",
"275 1195 LINE",
"275 829 LINE",
"42 633 LINE",
"280 631 LINE",
"275 -42 LINE",
"563 140 LINE",
"551 606 LINE",
"744 606 LINE SMOOTH",
"794 606 OFFCURVE",
"903 662 OFFCURVE",
"987 745 OFFCURVE",
"1043 811 OFFCURVE",
"1057 834 QCURVE SMOOTH",
"1084 880 LINE",
"1031 875 LINE",
"700 851 LINE",
"652 851 OFFCURVE",
"554 853 QCURVE",
"554 877 OFFCURVE",
"549 992 OFFCURVE",
"549 1025 QCURVE SMOOTH",
"549 1099 OFFCURVE",
"558 1174 QCURVE",
"846 1183 LINE SMOOTH",
"952 1186 OFFCURVE",
"1131 1309 OFFCURVE",
"1167 1365 QCURVE",
"1216 1433 LINE",
"1167 1432 LINE SMOOTH",
"1094 1431 OFFCURVE",
"659 1413 OFFCURVE",
"537 1413 QCURVE SMOOTH",
"411 1413 OFFCURVE",
"286 1423 QCURVE"
);
}
);
width = 1284;
}
);
note = F;
unicode = 0046;
},
{
glyphname = G;
lastChange = "2018-07-29 15:09:15 +0000";
layers = (
{
layerId = "C33DBFF5-9F9F-4FD4-87E4-27DD273F2A02";
paths = (
{
closed = 1;
nodes = (
"747 1267 OFFCURVE",
"842 1203 OFFCURVE",
"898 1131 QCURVE",
"913 1131 LINE SMOOTH",
"938 1131 OFFCURVE",
"1052 1191 OFFCURVE",
"1155 1280 OFFCURVE",
"1159 1314 QCURVE",
"1159 1348 OFFCURVE",
"1098 1394 OFFCURVE",
"1001 1413 OFFCURVE",
"928 1420 OFFCURVE",
"893 1420 QCURVE SMOOTH",
"747 1420 OFFCURVE",
"493 1350 OFFCURVE",
"310 1230 OFFCURVE",
"165 1076 OFFCURVE",
"77 903 OFFCURVE",
"31 735 OFFCURVE",
"29 656 QCURVE SMOOTH",
"29 560 OFFCURVE",
"100 365 OFFCURVE",
"223 202 OFFCURVE",
"377 73 OFFCURVE",
"556 0 OFFCURVE",
"641 0 QCURVE SMOOTH",
"645 0 LINE SMOOTH",
"798 0 OFFCURVE",
"1055 79 OFFCURVE",
"1221 203 OFFCURVE",
"1337 361 OFFCURVE",
"1387 515 OFFCURVE",
"1387 587 QCURVE SMOOTH",
"1387 601 LINE",
"1363 655 OFFCURVE",
"1320 731 OFFCURVE",
"1258 806 OFFCURVE",
"1179 844 OFFCURVE",
"1132 844 QCURVE SMOOTH",
"1126 844 LINE SMOOTH",
"1027 844 OFFCURVE",
"979 799 QCURVE",
"944 775 OFFCURVE",
"838 658 OFFCURVE",
"810 635 QCURVE SMOOTH",
"783 613 LINE",
"874 557 LINE",
"892 576 LINE SMOOTH",
"957 643 OFFCURVE",
"1020 644 QCURVE SMOOTH",
"1033 644 OFFCURVE",
"1071 608 OFFCURVE",
"1110 545 OFFCURVE",
"1138 439 OFFCURVE",
"1138 377 QCURVE",
"1122 187 OFFCURVE",
"926 187 QCURVE",
"916 146 OFFCURVE",
"905 187 QCURVE",
"794 187 OFFCURVE",
"584 302 OFFCURVE",
"426 495 OFFCURVE",
"327 762 OFFCURVE",
"324 905 QCURVE",
"328 962 OFFCURVE",
"348 1056 OFFCURVE",
"396 1156 OFFCURVE",
"469 1223 OFFCURVE",
"590 1267 OFFCURVE",
"670 1267 QCURVE SMOOTH"
);
}
);
width = 1496;
}
);
note = G;
unicode = 0047;
},
{
glyphname = H;
lastChange = "2018-07-29 15:09:15 +0000";
layers = (
{
layerId = "C33DBFF5-9F9F-4FD4-87E4-27DD273F2A02";
paths = (
{
closed = 1;
nodes = (
"1085 0 LINE",
"1120 5 OFFCURVE",
"1345 151 OFFCURVE",
"1410 203 QCURVE SMOOTH",
"1428 218 LINE",
"1379 295 LINE",
"1354 274 LINE SMOOTH",
"1334 257 OFFCURVE",
"1313 244 QCURVE",
"1290 290 OFFCURVE",
"1290 487 QCURVE SMOOTH",
"1290 506 OFFCURVE",
"1290 545 OFFCURVE",
"1290 556 QCURVE",
"1291 567 LINE",
"1291 577 OFFCURVE",
"1290 613 OFFCURVE",
"1290 621 QCURVE",
"1503 812 LINE",
"1290 809 LINE",
"1279 1476 LINE",
"1007 1284 LINE",
"996 809 LINE",
"831 796 OFFCURVE",
"621 796 QCURVE SMOOTH",
"479 796 OFFCURVE",
"367 800 QCURVE",
"362 1453 LINE",
"90 1284 LINE",
"90 1202 OFFCURVE",
"87 899 OFFCURVE",
"87 812 QCURVE SMOOTH",
"104 176 LINE",
"112 56 OFFCURVE",
"125 9 OFFCURVE",
"159 0 QCURVE",
"184 0 OFFCURVE",
"258 51 OFFCURVE",
"379 135 OFFCURVE",
"442 162 QCURVE SMOOTH",
"467 173 LINE",
"419 273 LINE",
"389 229 LINE",
"363 264 OFFCURVE",
"363 425 QCURVE SMOOTH",
"363 541 OFFCURVE",
"364 583 QCURVE",
"522 592 OFFCURVE",
"679 592 QCURVE SMOOTH",
"842 592 OFFCURVE",
"1007 583 QCURVE",
"1026 66 LINE",
"1026 38 OFFCURVE",
"1056 5 OFFCURVE",
"1074 0 OFFCURVE",
"1080 0 QCURVE SMOOTH"
);
}
);
width = 1554;
}
);
note = H;
unicode = 0048;
},
{
glyphname = I;
lastChange = "2018-07-29 15:09:15 +0000";
layers = (
{
layerId = "C33DBFF5-9F9F-4FD4-87E4-27DD273F2A02";
paths = (
{
closed = 1;
nodes = (
"345 1423 OFFCURVE",
"307 1394 QCURVE",
"-30 1195 LINE",
"30 1126 LINE",
"50 1137 LINE",
"90 1161 OFFCURVE",
"121 1161 QCURVE SMOOTH",
"134 1161 OFFCURVE",
"146 1154 OFFCURVE",
"160 1112 OFFCURVE",
"168 1066 QCURVE",
"188 760 OFFCURVE",
"188 473 QCURVE SMOOTH",
"188 381 OFFCURVE",
"179 81 OFFCURVE",
"179 0 QCURVE SMOOTH",
"179 -29 LINE",
"459 152 LINE",
"447 1320 LINE",
"447 1333 OFFCURVE",
"442 1359 OFFCURVE",
"429 1394 OFFCURVE",
"396 1420 OFFCURVE",
"372 1423 QCURVE"
);
}
);
width = 567;
}
);
note = I;
unicode = 0049;
},
{
glyphname = J;
lastChange = "2018-07-29 15:09:15 +0000";
layers = (
{
layerId = "C33DBFF5-9F9F-4FD4-87E4-27DD273F2A02";
paths = (
{
closed = 1;
nodes = (
"61 -478 LINE",
"460 -130 LINE",
"443 121 OFFCURVE",
"443 435 QCURVE SMOOTH",
"443 553 OFFCURVE",
"447 1228 OFFCURVE",
"447 1344 QCURVE SMOOTH",
"447 1397 OFFCURVE",
"410 1418 QCURVE",
"397 1423 OFFCURVE",
"385 1423 QCURVE SMOOTH",
"347 1423 OFFCURVE",
"309 1394 QCURVE",
"-28 1191 LINE",
"32 1121 LINE",
"52 1133 LINE",
"92 1153 OFFCURVE",
"123 1153 QCURVE SMOOTH",
"126 1153 LINE",
"128 1153 LINE",
"146 1153 LINE",
"161 1137 OFFCURVE",
"170 1081 QCURVE",
"196 678 OFFCURVE",
"196 482 QCURVE SMOOTH",
"195 440 OFFCURVE",
"193 268 OFFCURVE",
"192 196 OFFCURVE",
"187 59 OFFCURVE",
"180 -7 OFFCURVE",
"167 -113 OFFCURVE",
"148 -174 OFFCURVE",
"121 -252 OFFCURVE",
"85 -311 OFFCURVE",
"62 -338 QCURVE"
);
}
);
width = 577;
}
);
note = J;
unicode = 004A;
},
{
glyphname = K;
lastChange = "2018-07-29 15:09:15 +0000";
layers = (
{
layerId = "C33DBFF5-9F9F-4FD4-87E4-27DD273F2A02";
paths = (
{
closed = 1;
nodes = (
"1092 1280 OFFCURVE",
"1069 1327 OFFCURVE",
"1024 1361 OFFCURVE",
"982 1385 OFFCURVE",
"918 1404 OFFCURVE",
"885 1412 OFFCURVE",
"859 1418 QCURVE",
"620 1273 LINE",
"652 1249 LINE SMOOTH",
"680 1229 OFFCURVE",
"704 1209 OFFCURVE",
"755 1164 OFFCURVE",
"778 1122 OFFCURVE",
"778 1102 QCURVE SMOOTH",
"778 1069 OFFCURVE",
"739 1032 QCURVE SMOOTH",
"443 754 LINE",
"438 1272 LINE",
"435 1304 OFFCURVE",
"411 1382 OFFCURVE",
"391 1399 QCURVE SMOOTH",
"384 1405 OFFCURVE",
"372 1411 OFFCURVE",
"364 1412 QCURVE SMOOTH",
"356 1413 LINE",
"340 1413 OFFCURVE",
"243 1371 OFFCURVE",
"79 1273 OFFCURVE",
"0 1211 QCURVE SMOOTH",
"-24 1193 LINE",
"38 1133 LINE",
"57 1146 LINE SMOOTH",
"79 1161 OFFCURVE",
"94 1161 QCURVE SMOOTH",
"116 1161 OFFCURVE",
"155 1097 OFFCURVE",
"159 1052 QCURVE SMOOTH",
"181 772 OFFCURVE",
"181 493 QCURVE SMOOTH",
"181 263 OFFCURVE",
"167 37 QCURVE SMOOTH",
"164 -14 LINE",
"449 154 LINE",
"444 719 LINE",
"876 55 LINE SMOOTH",
"930 -23 OFFCURVE",
"982 -23 QCURVE SMOOTH",
"1006 -23 OFFCURVE",
"1030 -6 QCURVE SMOOTH",
"1055 12 OFFCURVE",
"1146 67 OFFCURVE",
"1214 117 OFFCURVE",
"1247 151 QCURVE SMOOTH",
"1330 235 LINE",
"1217 193 LINE SMOOTH",
"1202 188 OFFCURVE",
"1193 188 QCURVE SMOOTH",
"1174 188 OFFCURVE",
"1147 212 QCURVE",
"1079 282 OFFCURVE",
"938 457 OFFCURVE",
"846 586 OFFCURVE",
"702 793 OFFCURVE",
"664 845 QCURVE",
"723 914 OFFCURVE",
"885 1056 OFFCURVE",
"1001 1143 OFFCURVE",
"1089 1226 OFFCURVE",
"1092 1252 QCURVE"
);
}
);
width = 1349;
}
);
note = K;
unicode = 004B;
},
{
glyphname = L;
lastChange = "2018-07-29 15:09:15 +0000";
layers = (
{
layerId = "C33DBFF5-9F9F-4FD4-87E4-27DD273F2A02";
paths = (
{
closed = 1;
nodes = (
"228 5 LINE",
"952 0 LINE",
"1155 227 LINE",
"1100 232 LINE SMOOTH",
"1061 235 OFFCURVE",
"1022 235 QCURVE SMOOTH",
"954 235 OFFCURVE",
"582 222 OFFCURVE",
"508 222 QCURVE SMOOTH",
"503 222 OFFCURVE",
"496 222 OFFCURVE",
"492 223 OFFCURVE",
"488 224 OFFCURVE",
"485 226 OFFCURVE",
"479 228 OFFCURVE",
"475 229 QCURVE",
"469 1313 LINE",
"469 1348 OFFCURVE",
"425 1401 OFFCURVE",
"397 1413 QCURVE SMOOTH",
"380 1420 OFFCURVE",
"366 1420 QCURVE SMOOTH",
"351 1420 OFFCURVE",
"269 1381 OFFCURVE",
"246 1365 QCURVE",
"-49 1196 LINE",
"11 1128 LINE",
"31 1140 LINE SMOOTH",
"72 1163 OFFCURVE",
"102 1163 QCURVE SMOOTH",
"128 1163 OFFCURVE",
"182 1119 OFFCURVE",
"191 1075 QCURVE"
);
}
);
width = 1219;
}
);
note = L;
unicode = 004C;
},
{
glyphname = M;
lastChange = "2018-07-29 15:09:15 +0000";
layers = (
{
layerId = "C33DBFF5-9F9F-4FD4-87E4-27DD273F2A02";
paths = (
{
closed = 1;
nodes = (
"1915 1471 LINE",
"1511 1236 LINE",
"1511 1220 LINE SMOOTH",
"1511 1216 OFFCURVE",
"1512 1200 OFFCURVE",
"1512 1198 QCURVE SMOOTH",
"1512 1122 OFFCURVE",
"1482 933 OFFCURVE",
"1417 728 OFFCURVE",
"1329 558 OFFCURVE",
"1199 446 OFFCURVE",
"1125 444 QCURVE",
"1046 445 OFFCURVE",
"850 594 OFFCURVE",
"675 812 OFFCURVE",
"507 1069 OFFCURVE",
"395 1278 OFFCURVE",
"366 1347 QCURVE",
"348 1419 LINE",
"145 1316 LINE",
"86 1279 OFFCURVE",
"86 1230 QCURVE SMOOTH",
"86 1203 OFFCURVE",
"105 1176 QCURVE",
"241 914 LINE",
"100 330 OFFCURVE",
"59 7 QCURVE",
"52 -32 LINE",
"375 165 LINE",
"376 339 OFFCURVE",
"435 660 QCURVE",
"483 599 OFFCURVE",
"532 537 OFFCURVE",
"637 412 OFFCURVE",
"706 340 OFFCURVE",
"806 243 OFFCURVE",
"881 191 OFFCURVE",
"966 153 OFFCURVE",
"1001 153 QCURVE SMOOTH",
"1040 153 OFFCURVE",
"1079 167 QCURVE SMOOTH",
"1211 215 OFFCURVE",
"1366 448 QCURVE SMOOTH",
"1411 515 OFFCURVE",
"1546 746 QCURVE",
"1555 704 OFFCURVE",
"1599 484 OFFCURVE",
"1625 371 OFFCURVE",
"1669 197 OFFCURVE",
"1720 60 OFFCURVE",
"1751 0 QCURVE",
"1765 -18 LINE",
"2004 139 LINE",
"2033 182 LINE",
"1925 409 OFFCURVE",
"1791 863 OFFCURVE",
"1777 1126 QCURVE"
);
}
);
width = 2130;
}
);
note = M;
unicode = 004D;
},
{
glyphname = N;
lastChange = "2018-07-29 15:09:15 +0000";
layers = (
{
layerId = "C33DBFF5-9F9F-4FD4-87E4-27DD273F2A02";
paths = (
{
closed = 1;
nodes = (
"728 687 OFFCURVE",
"1082 267 OFFCURVE",
"1224 15 QCURVE SMOOTH",
"1240 -13 LINE",
"1461 141 LINE",
"1497 1449 LINE",
"1185 1236 LINE",
"1199 1183 OFFCURVE",
"1216 1109 OFFCURVE",
"1237 902 OFFCURVE",
"1237 776 QCURVE SMOOTH",
"1237 730 OFFCURVE",
"1233 559 OFFCURVE",
"1233 532 QCURVE",
"1112 670 OFFCURVE",
"867 933 OFFCURVE",
"565 1235 OFFCURVE",
"320 1420 OFFCURVE",
"261 1420 QCURVE SMOOTH",
"212 1420 OFFCURVE",
"5 1286 OFFCURVE",
"-36 1252 QCURVE SMOOTH",
"-61 1232 LINE",
"0 1175 LINE",
"20 1189 LINE",
"46 1209 OFFCURVE",
"83 1209 QCURVE",
"96 1205 OFFCURVE",
"160 1155 OFFCURVE",
"243 1085 OFFCURVE",
"261 1072 QCURVE",
"212 -37 LINE",
"264 7 LINE SMOOTH",
"385 113 OFFCURVE",
"492 158 QCURVE",
"511 167 LINE",
"490 356 OFFCURVE",
"490 704 OFFCURVE",
"509 884 QCURVE"
);
}
);
width = 1615;
}
);
note = N;
unicode = 004E;
},
{
glyphname = O;
lastChange = "2018-07-29 15:09:15 +0000";
layers = (
{
layerId = "C33DBFF5-9F9F-4FD4-87E4-27DD273F2A02";
paths = (
{
closed = 1;
nodes = (
"689 1215 OFFCURVE",
"845 1108 OFFCURVE",
"964 947 OFFCURVE",
"1042 751 OFFCURVE",
"1042 667 QCURVE SMOOTH",
"1042 562 OFFCURVE",
"1008 456 QCURVE",
"969 364 OFFCURVE",
"818 250 OFFCURVE",
"733 250 QCURVE SMOOTH",
"718 250 LINE SMOOTH",
"622 250 OFFCURVE",
"427 403 OFFCURVE",
"302 642 OFFCURVE",
"302 760 QCURVE SMOOTH",
"302 774 LINE",
"319 939 OFFCURVE",
"373 1043 QCURVE",
"398 1098 LINE",
"364 1095 OFFCURVE",
"328 1082 QCURVE",
"283 1050 OFFCURVE",
"216 996 OFFCURVE",
"123 897 OFFCURVE",
"65 795 OFFCURVE",
"22 645 OFFCURVE",
"22 562 QCURVE SMOOTH",
"22 536 LINE",
"28 500 OFFCURVE",
"43 432 OFFCURVE",
"81 317 OFFCURVE",
"131 223 OFFCURVE",
"216 117 OFFCURVE",
"321 44 OFFCURVE",
"475 -4 OFFCURVE",
"565 -4 QCURVE SMOOTH",
"634 -4 OFFCURVE",
"808 60 OFFCURVE",
"981 168 OFFCURVE",
"1148 319 OFFCURVE",
"1275 484 OFFCURVE",
"1353 673 OFFCURVE",
"1353 760 QCURVE SMOOTH",
"1353 912 OFFCURVE",
"1276 1147 OFFCURVE",
"1154 1290 OFFCURVE",
"985 1382 OFFCURVE",
"819 1416 OFFCURVE",
"728 1416 QCURVE SMOOTH",
"600 1416 OFFCURVE",
"421 1312 OFFCURVE",
"330 1208 QCURVE SMOOTH",
"315 1190 LINE",
"382 1112 LINE",
"395 1124 LINE SMOOTH",
"425 1153 OFFCURVE",
"548 1211 OFFCURVE",
"577 1211 QCURVE SMOOTH",
"580 1211 LINE",
"596 1215 OFFCURVE",
"616 1215 QCURVE SMOOTH"
);
}
);
width = 1450;
}
);
note = O;
unicode = 004F;
},
{
glyphname = P;
lastChange = "2018-07-29 15:09:15 +0000";
layers = (
{
layerId = "C33DBFF5-9F9F-4FD4-87E4-27DD273F2A02";
paths = (
{
closed = 1;
nodes = (
"-27 1142 LINE",
"68 1170 LINE SMOOTH",
"134 1189 OFFCURVE",
"225 1191 QCURVE",
"249 986 OFFCURVE",
"249 744 QCURVE SMOOTH",
"249 373 OFFCURVE",
"200 29 QCURVE SMOOTH",
"192 -30 LINE",
"504 160 LINE",
"504 1177 LINE",
"511 1178 OFFCURVE",
"559 1183 OFFCURVE",
"571 1183 QCURVE SMOOTH",
"698 1183 OFFCURVE",
"873 1013 OFFCURVE",
"873 895 QCURVE SMOOTH",
"873 832 OFFCURVE",
"757 716 OFFCURVE",
"616 656 OFFCURVE",
"565 656 QCURVE SMOOTH",
"545 656 OFFCURVE",
"530 623 OFFCURVE",
"542 610 QCURVE",
"547 591 OFFCURVE",
"575 575 OFFCURVE",
"580 570 QCURVE",
"648 570 OFFCURVE",
"849 647 OFFCURVE",
"1042 768 OFFCURVE",
"1179 942 OFFCURVE",
"1179 1027 QCURVE SMOOTH",
"1179 1126 OFFCURVE",
"1077 1280 OFFCURVE",
"902 1373 OFFCURVE",
"683 1420 OFFCURVE",
"558 1420 QCURVE SMOOTH",
"479 1420 OFFCURVE",
"391 1418 OFFCURVE",
"257 1402 OFFCURVE",
"203 1386 QCURVE"
);
}
);
width = 1232;
}
);
note = P;
unicode = 0050;
},
{
glyphname = Q;
lastChange = "2018-07-29 15:09:15 +0000";
layers = (
{
layerId = "C33DBFF5-9F9F-4FD4-87E4-27DD273F2A02";
paths = (
{
closed = 1;
nodes = (
"601 373 OFFCURVE",
"605 367 OFFCURVE",
"608 358 OFFCURVE",
"616 337 OFFCURVE",
"628 308 OFFCURVE",
"652 256 OFFCURVE",
"668 225 QCURVE",
"567 240 OFFCURVE",
"467 338 QCURVE",
"516 324 LINE",
"530 332 OFFCURVE",
"568 358 OFFCURVE",
"593 374 OFFCURVE",
"599 375 QCURVE"
);
},
{
closed = 1;
nodes = (
"654 -4 OFFCURVE",
"788 62 QCURVE",
"905 -78 OFFCURVE",
"1255 -282 OFFCURVE",
"1346 -282 QCURVE SMOOTH",
"1389 -282 OFFCURVE",
"1454 -245 OFFCURVE",
"1490 -196 OFFCURVE",
"1515 -117 OFFCURVE",
"1523 -63 OFFCURVE",
"1527 -24 QCURVE",
"1477 29 LINE",
"1459 -4 LINE SMOOTH",
"1440 -39 OFFCURVE",
"1439 -40 QCURVE",
"1432 -49 OFFCURVE",
"1416 -49 QCURVE SMOOTH",
"1361 -49 OFFCURVE",
"1110 122 OFFCURVE",
"1016 218 QCURVE",
"1158 337 OFFCURVE",
"1342 622 OFFCURVE",
"1342 759 QCURVE SMOOTH",
"1342 911 OFFCURVE",
"1263 1147 OFFCURVE",
"1139 1290 OFFCURVE",
"967 1382 OFFCURVE",
"801 1416 OFFCURVE",
"711 1416 QCURVE SMOOTH",
"586 1416 OFFCURVE",
"398 1302 OFFCURVE",
"308 1197 QCURVE SMOOTH",
"293 1180 LINE",
"359 1102 LINE",
"382 1124 LINE SMOOTH",
"411 1153 OFFCURVE",
"534 1211 OFFCURVE",
"562 1211 QCURVE SMOOTH",
"565 1211 LINE",
"581 1215 OFFCURVE",
"601 1215 QCURVE SMOOTH",
"696 1215 OFFCURVE",
"895 1035 OFFCURVE",
"1021 775 OFFCURVE",
"1021 661 QCURVE SMOOTH",
"1021 590 OFFCURVE",
"1001 472 OFFCURVE",
"964 390 OFFCURVE",
"938 347 OFFCURVE",
"920 323 QCURVE",
"885 378 OFFCURVE",
"823 507 OFFCURVE",
"794 573 OFFCURVE",
"743 620 OFFCURVE",
"705 620 QCURVE SMOOTH",
"673 620 OFFCURVE",
"616 587 OFFCURVE",
"605 574 QCURVE",
"447 370 LINE",
"396 425 OFFCURVE",
"327 548 OFFCURVE",
"300 653 OFFCURVE",
"291 714 OFFCURVE",
"291 738 QCURVE SMOOTH",
"291 747 LINE",
"294 787 OFFCURVE",
"333 960 OFFCURVE",
"366 1026 QCURVE SMOOTH",
"415 1123 LINE",
"323 1060 LINE SMOOTH",
"278 1029 OFFCURVE",
"209 974 OFFCURVE",
"116 874 OFFCURVE",
"55 770 OFFCURVE",
"11 621 OFFCURVE",
"11 539 QCURVE SMOOTH",
"11 513 LINE",
"17 478 OFFCURVE",
"32 414 OFFCURVE",
"70 304 OFFCURVE",
"119 213 OFFCURVE",
"204 112 OFFCURVE",
"308 42 OFFCURVE",
"461 -4 OFFCURVE",
"550 -4 QCURVE SMOOTH"
);
}
);
width = 1660;
}
);
note = Q;
unicode = 0051;
},
{
glyphname = R;
lastChange = "2018-07-29 15:09:15 +0000";
layers = (
{
layerId = "C33DBFF5-9F9F-4FD4-87E4-27DD273F2A02";
paths = (
{
closed = 1;
nodes = (
"929 951 OFFCURVE",
"825 829 OFFCURVE",
"760 786 QCURVE",
"560 691 LINE",
"569 669 LINE",
"620 529 OFFCURVE",
"711 376 QCURVE SMOOTH",
"772 272 OFFCURVE",
"940 33 QCURVE SMOOTH",
"982 -28 OFFCURVE",
"1040 -28 QCURVE SMOOTH",
"1076 -28 OFFCURVE",
"1107 -3 QCURVE",
"1341 141 LINE",
"1314 209 LINE",
"1285 189 LINE SMOOTH",
"1271 180 OFFCURVE",
"1263 180 QCURVE SMOOTH",
"1231 180 OFFCURVE",
"978 522 OFFCURVE",
"855 717 QCURVE",
"863 722 OFFCURVE",
"947 769 OFFCURVE",
"981 789 OFFCURVE",
"1060 841 OFFCURVE",
"1099 876 OFFCURVE",
"1157 936 OFFCURVE",
"1186 989 OFFCURVE",
"1208 1058 OFFCURVE",
"1208 1094 QCURVE",
"1205 1142 OFFCURVE",
"1174 1225 OFFCURVE",
"1090 1315 OFFCURVE",
"958 1379 OFFCURVE",
"733 1420 OFFCURVE",
"586 1420 QCURVE SMOOTH",
"464 1420 LINE SMOOTH",
"336 1420 OFFCURVE",
"192 1402 QCURVE",
"-42 1161 LINE",
"-13 1169 OFFCURVE",
"142 1189 OFFCURVE",
"192 1189 QCURVE SMOOTH",
"222 1189 OFFCURVE",
"237 1184 QCURVE",
"244 1100 LINE",
"244 1001 OFFCURVE",
"251 748 OFFCURVE",
"251 683 QCURVE SMOOTH",
"251 555 OFFCURVE",
"230 116 OFFCURVE",
"230 0 QCURVE SMOOTH",
"230 -31 LINE",
"525 171 LINE",
"525 186 LINE SMOOTH",
"525 284 OFFCURVE",
"510 675 OFFCURVE",
"510 774 QCURVE SMOOTH",
"510 855 OFFCURVE",
"518 1121 OFFCURVE",
"518 1202 QCURVE",
"688 1199 OFFCURVE",
"862 1158 OFFCURVE",
"929 1074 OFFCURVE",
"929 992 QCURVE SMOOTH"
);
}
);
width = 1387;
}
);
note = R;
unicode = 0052;
},
{
glyphname = S;
lastChange = "2018-07-29 15:09:15 +0000";
layers = (
{
layerId = "C33DBFF5-9F9F-4FD4-87E4-27DD273F2A02";
paths = (
{
closed = 1;
nodes = (
"503 0 OFFCURVE",
"734 79 OFFCURVE",
"919 204 OFFCURVE",
"1067 351 OFFCURVE",
"1148 498 OFFCURVE",
"1148 554 QCURVE SMOOTH",
"1148 606 OFFCURVE",
"1093 693 OFFCURVE",
"1025 742 OFFCURVE",
"936 780 OFFCURVE",
"900 790 OFFCURVE",
"888 792 QCURVE",
"561 882 LINE SMOOTH",
"557 883 OFFCURVE",
"515 899 OFFCURVE",
"450 935 OFFCURVE",
"390 980 OFFCURVE",
"347 1047 OFFCURVE",
"347 1083 QCURVE SMOOTH",
"347 1086 OFFCURVE",
"346 1092 QCURVE",
"346 1098 LINE SMOOTH",
"346 1178 OFFCURVE",
"466 1265 OFFCURVE",
"553 1271 QCURVE",
"685 1271 OFFCURVE",
"790 1135 QCURVE SMOOTH",
"806 1114 LINE",
"1021 1234 LINE",
"1029 1238 OFFCURVE",
"1040 1245 OFFCURVE",
"1046 1251 OFFCURVE",
"1051 1260 OFFCURVE",
"1052 1264 OFFCURVE",
"1055 1276 OFFCURVE",
"1056 1278 QCURVE",
"1056 1299 OFFCURVE",
"1023 1332 QCURVE SMOOTH",
"1020 1335 OFFCURVE",
"1019 1336 QCURVE",
"927 1420 OFFCURVE",
"773 1420 QCURVE SMOOTH",
"673 1420 OFFCURVE",
"424 1338 OFFCURVE",
"205 1206 OFFCURVE",
"56 1018 OFFCURVE",
"56 922 QCURVE SMOOTH",
"56 897 OFFCURVE",
"68 850 OFFCURVE",
"87 814 OFFCURVE",
"116 781 OFFCURVE",
"145 757 OFFCURVE",
"181 735 OFFCURVE",
"210 722 OFFCURVE",
"245 709 OFFCURVE",
"265 703 OFFCURVE",
"288 696 OFFCURVE",
"289 696 QCURVE",
"650 595 LINE",
"672 588 LINE",
"693 580 OFFCURVE",
"754 542 OFFCURVE",
"814 490 OFFCURVE",
"857 404 OFFCURVE",
"857 354 QCURVE SMOOTH",
"857 285 OFFCURVE",
"709 181 OFFCURVE",
"634 178 QCURVE",
"546 178 OFFCURVE",
"395 257 OFFCURVE",
"323 370 QCURVE SMOOTH",
"308 394 LINE",
"282 380 LINE SMOOTH",
"129 293 OFFCURVE",
"34 212 OFFCURVE",
"34 179 QCURVE SMOOTH",
"34 158 OFFCURVE",
"81 100 OFFCURVE",
"165 41 OFFCURVE",
"308 0 OFFCURVE",
"391 0 QCURVE SMOOTH"
);
}
);
width = 1257;
}
);
note = S;
unicode = 0053;
},
{
glyphname = T;
lastChange = "2018-07-29 15:09:15 +0000";
layers = (
{
layerId = "C33DBFF5-9F9F-4FD4-87E4-27DD273F2A02";
paths = (
{
closed = 1;
nodes = (
"-67 1211 LINE",
"465 1181 LINE",
"457 -31 LINE",
"784 182 LINE",
"755 603 OFFCURVE",
"755 850 QCURVE SMOOTH",
"755 1034 OFFCURVE",
"765 1170 QCURVE",
"787 1170 OFFCURVE",
"871 1171 OFFCURVE",
"911 1172 OFFCURVE",
"984 1177 OFFCURVE",
"1024 1184 OFFCURVE",
"1088 1198 OFFCURVE",
"1131 1219 OFFCURVE",
"1189 1249 OFFCURVE",
"1236 1290 OFFCURVE",
"1291 1344 OFFCURVE",
"1317 1377 QCURVE SMOOTH",
"1351 1420 LINE",
"644 1420 LINE",
"615 1461 OFFCURVE",
"586 1420 QCURVE",
"394 1421 OFFCURVE",
"222 1433 QCURVE"
);
}
);
width = 1411;
}
);
note = T;
unicode = 0054;
},
{
glyphname = U;
lastChange = "2018-07-29 15:09:15 +0000";
layers = (
{
layerId = "C33DBFF5-9F9F-4FD4-87E4-27DD273F2A02";
paths = (
{
closed = 1;
nodes = (
"304 1423 LINE",
"142 1316 LINE SMOOTH",
"133 1310 OFFCURVE",
"97 1286 OFFCURVE",
"85 1277 OFFCURVE",
"61 1257 OFFCURVE",
"54 1242 OFFCURVE",
"43 1218 OFFCURVE",
"40 1189 OFFCURVE",
"40 1170 QCURVE SMOOTH",
"40 1116 OFFCURVE",
"52 1048 QCURVE",
"57 1002 OFFCURVE",
"67 902 QCURVE SMOOTH",
"75 816 OFFCURVE",
"80 772 QCURVE SMOOTH",
"115 451 OFFCURVE",
"190 286 QCURVE SMOOTH",
"323 -6 OFFCURVE",
"638 -6 QCURVE SMOOTH",
"746 -6 OFFCURVE",
"923 33 OFFCURVE",
"1054 99 OFFCURVE",
"1160 205 OFFCURVE",
"1232 323 OFFCURVE",
"1294 483 OFFCURVE",
"1334 639 OFFCURVE",
"1377 839 OFFCURVE",
"1411 1017 OFFCURVE",
"1461 1243 OFFCURVE",
"1488 1338 QCURVE SMOOTH",
"1520 1466 LINE",
"1185 1215 LINE",
"1185 848 LINE",
"1179 801 OFFCURVE",
"1175 771 QCURVE SMOOTH",
"1143 523 OFFCURVE",
"1085 410 QCURVE SMOOTH",
"994 232 OFFCURVE",
"788 232 QCURVE SMOOTH",
"706 232 OFFCURVE",
"641 270 QCURVE SMOOTH",
"483 362 OFFCURVE",
"405 699 QCURVE SMOOTH",
"368 862 OFFCURVE",
"326 1235 QCURVE SMOOTH",
"315 1331 OFFCURVE",
"309 1378 QCURVE SMOOTH"
);
}
);
width = 1633;
}
);
note = U;
unicode = 0055;
},
{
glyphname = V;
lastChange = "2018-07-29 15:09:15 +0000";
layers = (
{
layerId = "C33DBFF5-9F9F-4FD4-87E4-27DD273F2A02";
paths = (
{
closed = 1;
nodes = (
"937 214 OFFCURVE",
"968 301 QCURVE SMOOTH",
"1019 453 OFFCURVE",
"1196 815 OFFCURVE",
"1462 1300 OFFCURVE",
"1521 1416 QCURVE",
"1558 1478 LINE",
"1111 1255 LINE",
"1111 1262 LINE",
"1100 1127 OFFCURVE",
"990 755 OFFCURVE",
"890 505 OFFCURVE",
"841 400 QCURVE",
"363 1369 LINE",
"327 1422 OFFCURVE",
"301 1439 QCURVE",
"280 1448 OFFCURVE",
"261 1448 QCURVE SMOOTH",
"247 1448 OFFCURVE",
"229 1443 QCURVE",
"-67 1253 LINE",
"-30 1196 LINE",
"-8 1207 LINE",
"20 1219 OFFCURVE",
"41 1219 QCURVE SMOOTH",
"57 1219 OFFCURVE",
"71 1215 QCURVE",
"154 1111 OFFCURVE",
"312 820 OFFCURVE",
"417 572 OFFCURVE",
"564 226 OFFCURVE",
"618 116 QCURVE",
"645 49 OFFCURVE",
"645 -8 QCURVE SMOOTH",
"645 -19 OFFCURVE",
"645 -19 QCURVE",
"635 -57 LINE",
"953 119 LINE",
"937 130 OFFCURVE",
"937 170 QCURVE SMOOTH"
);
}
);
width = 1647;
}
);
note = V;
unicode = 0056;
},
{
glyphname = W;
lastChange = "2018-07-29 15:09:15 +0000";
layers = (
{
layerId = "C33DBFF5-9F9F-4FD4-87E4-27DD273F2A02";
paths = (
{
closed = 1;
nodes = (
"1917 232 OFFCURVE",
"1942 275 QCURVE",
"2005 448 OFFCURVE",
"2168 779 OFFCURVE",
"2449 1279 OFFCURVE",
"2493 1362 QCURVE SMOOTH",
"2531 1433 LINE",
"2132 1244 LINE",
"1974 690 OFFCURVE",
"1824 401 QCURVE",
"1353 1419 LINE",
"1058 1244 LINE",
"1061 1202 OFFCURVE",
"1061 1182 QCURVE SMOOTH",
"1061 1111 OFFCURVE",
"1027 952 OFFCURVE",
"960 773 OFFCURVE",
"899 634 OFFCURVE",
"803 426 OFFCURVE",
"779 370 QCURVE",
"763 405 OFFCURVE",
"633 697 OFFCURVE",
"588 795 OFFCURVE",
"475 1031 OFFCURVE",
"404 1161 OFFCURVE",
"301 1337 OFFCURVE",
"251 1408 QCURVE",
"236 1431 LINE",
"-67 1236 LINE",
"-45 1172 LINE",
"-17 1184 LINE SMOOTH",
"-4 1190 OFFCURVE",
"18 1190 OFFCURVE",
"28 1185 QCURVE",
"117 1071 OFFCURVE",
"284 781 OFFCURVE",
"435 436 OFFCURVE",
"533 186 OFFCURVE",
"599 4 QCURVE SMOOTH",
"610 -29 LINE",
"854 94 LINE",
"854 120 LINE SMOOTH",
"854 210 OFFCURVE",
"895 309 QCURVE",
"1221 969 LINE",
"1323 779 OFFCURVE",
"1446 536 OFFCURVE",
"1600 171 OFFCURVE",
"1652 0 QCURVE",
"1662 -19 LINE",
"1927 137 LINE",
"1917 180 OFFCURVE",
"1917 193 QCURVE SMOOTH"
);
}
);
width = 2625;
}
);
note = W;
unicode = 0057;
},
{
glyphname = X;
lastChange = "2018-07-29 15:09:15 +0000";
layers = (
{
layerId = "C33DBFF5-9F9F-4FD4-87E4-27DD273F2A02";
paths = (
{
closed = 1;
nodes = (
"209 1160 OFFCURVE",
"223 1146 QCURVE SMOOTH",
"291 1082 OFFCURVE",
"409 928 OFFCURVE",
"543 727 OFFCURVE",
"579 679 QCURVE",
"505 562 OFFCURVE",
"334 346 OFFCURVE",
"59 34 OFFCURVE",
"19 -13 QCURVE SMOOTH",
"-53 -101 LINE",
"492 130 LINE",
"489 159 OFFCURVE",
"489 178 QCURVE SMOOTH",
"489 243 OFFCURVE",
"521 364 OFFCURVE",
"586 475 OFFCURVE",
"625 531 OFFCURVE",
"662 577 QCURVE",
"704 485 OFFCURVE",
"825 297 OFFCURVE",
"919 175 OFFCURVE",
"996 83 QCURVE",
"1006 51 OFFCURVE",
"1026 34 QCURVE",
"1045 19 OFFCURVE",
"1090 17 QCURVE",
"1105 17 LINE",
"1199 63 OFFCURVE",
"1390 187 OFFCURVE",
"1393 188 QCURVE",
"1416 201 LINE",
"1371 279 LINE",
"1348 269 LINE SMOOTH",
"1298 248 OFFCURVE",
"1283 248 QCURVE SMOOTH",
"1265 248 OFFCURVE",
"1242 266 QCURVE",
"1185 323 OFFCURVE",
"1066 474 OFFCURVE",
"1008 556 OFFCURVE",
"865 773 OFFCURVE",
"852 793 QCURVE",
"1385 1462 LINE",
"878 1237 LINE",
"877 1224 OFFCURVE",
"873 1154 OFFCURVE",
"871 1137 OFFCURVE",
"861 1082 OFFCURVE",
"846 1052 OFFCURVE",
"818 993 OFFCURVE",
"777 930 OFFCURVE",
"747 887 QCURVE",
"466 1350 LINE",
"459 1358 OFFCURVE",
"444 1384 OFFCURVE",
"429 1392 OFFCURVE",
"407 1396 QCURVE",
"405 1396 LINE SMOOTH",
"390 1396 OFFCURVE",
"311 1358 OFFCURVE",
"172 1260 OFFCURVE",
"103 1194 QCURVE SMOOTH",
"77 1169 LINE",
"143 1134 LINE",
"177 1160 OFFCURVE",
"192 1160 QCURVE SMOOTH"
);
}
);
width = 1449;
}
);
note = X;
unicode = 0058;
},
{
glyphname = Y;
lastChange = "2018-07-29 15:09:15 +0000";
layers = (
{
layerId = "C33DBFF5-9F9F-4FD4-87E4-27DD273F2A02";
paths = (
{
closed = 1;
nodes = (
"42 1197 LINE",
"45 1197 OFFCURVE",
"48 1198 QCURVE",
"62 1194 OFFCURVE",
"72 1187 QCURVE",
"81 1178 OFFCURVE",
"100 1159 QCURVE SMOOTH",
"167 1092 OFFCURVE",
"247 1008 OFFCURVE",
"358 881 OFFCURVE",
"446 753 OFFCURVE",
"482 685 QCURVE SMOOTH",
"535 592 OFFCURVE",
"595 360 OFFCURVE",
"610 175 OFFCURVE",
"610 55 QCURVE SMOOTH",
"610 -129 LINE",
"904 80 LINE",
"903 113 OFFCURVE",
"895 274 OFFCURVE",
"895 317 QCURVE SMOOTH",
"895 512 OFFCURVE",
"971 615 QCURVE",
"1549 1492 LINE",
"1071 1239 LINE",
"1074 1239 LINE",
"1080 1208 OFFCURVE",
"1080 1177 QCURVE SMOOTH",
"1080 1123 OFFCURVE",
"1054 1018 OFFCURVE",
"993 906 OFFCURVE",
"948 833 OFFCURVE",
"854 701 OFFCURVE",
"835 672 QCURVE",
"649 1028 OFFCURVE",
"323 1384 QCURVE",
"319 1389 OFFCURVE",
"305 1404 OFFCURVE",
"301 1409 OFFCURVE",
"290 1418 OFFCURVE",
"283 1421 OFFCURVE",
"270 1426 OFFCURVE",
"255 1428 OFFCURVE",
"244 1429 QCURVE",
"224 1429 OFFCURVE",
"200 1419 QCURVE",
"-67 1242 LINE",
"-11 1187 LINE"
);
}
);
width = 1615;
}
);
note = Y;
unicode = 0059;
},
{
glyphname = Z;
lastChange = "2018-07-29 15:09:15 +0000";
layers = (
{
layerId = "C33DBFF5-9F9F-4FD4-87E4-27DD273F2A02";
paths = (
{
closed = 1;
nodes = (
"755 1117 LINE",
"165 422 LINE",
"153 406 OFFCURVE",
"104 343 OFFCURVE",
"88 319 OFFCURVE",
"58 268 OFFCURVE",
"49 227 OFFCURVE",
"40 163 OFFCURVE",
"40 123 QCURVE SMOOTH",
"40 95 OFFCURVE",
"103 46 OFFCURVE",
"191 18 OFFCURVE",
"268 1 OFFCURVE",
"291 0 QCURVE",
"430 -13 OFFCURVE",
"579 -13 QCURVE SMOOTH",
"733 -13 OFFCURVE",
"898 0 QCURVE",
"1159 326 LINE",
"1094 319 LINE SMOOTH",
"1075 317 OFFCURVE",
"932 301 OFFCURVE",
"866 295 OFFCURVE",
"755 288 OFFCURVE",
"710 288 QCURVE SMOOTH",
"604 288 OFFCURVE",
"476 316 OFFCURVE",
"427 362 OFFCURVE",
"427 396 QCURVE SMOOTH",
"427 464 OFFCURVE",
"508 594 QCURVE",
"1178 1437 LINE",
"1121 1434 LINE SMOOTH",
"1090 1432 OFFCURVE",
"701 1400 OFFCURVE",
"600 1400 QCURVE SMOOTH",
"344 1400 OFFCURVE",
"344 1478 QCURVE SMOOTH",
"344 1551 LINE",
"291 1497 LINE",
"95 1284 LINE SMOOTH",
"50 1232 OFFCURVE",
"50 1193 QCURVE SMOOTH",
"50 1167 OFFCURVE",
"80 1132 OFFCURVE",
"138 1113 OFFCURVE",
"193 1105 OFFCURVE",
"231 1103 QCURVE"
);
}
);
width = 1284;
}
);
note = Z;
unicode = 005A;
},
{
glyphname = bracketleft;
lastChange = "2018-07-29 15:09:15 +0000";
layers = (
{
layerId = "C33DBFF5-9F9F-4FD4-87E4-27DD273F2A02";
paths = (
{
closed = 1;
nodes = (
"68 -238 LINE",
"522 -238 LINE",
"522 -112 LINE",
"310 -112 LINE",
"310 1346 LINE",
"522 1346 LINE",
"522 1472 LINE",
"68 1472 LINE"
);
}
);
width = 628;
}
);
note = bracketleft;
unicode = 005B;
},
{
glyphname = backslash;
lastChange = "2018-07-29 15:09:15 +0000";
layers = (
{
layerId = "C33DBFF5-9F9F-4FD4-87E4-27DD273F2A02";
paths = (
{
closed = 1;
nodes = (
"-120 1480 LINE",
"963 -52 LINE",
"1195 -52 LINE",
"115 1480 LINE"
);
}
);
width = 1276;
}
);
note = backslash;
unicode = 005C;
},
{
glyphname = bracketright;
lastChange = "2018-07-29 15:09:15 +0000";
layers = (
{
layerId = "C33DBFF5-9F9F-4FD4-87E4-27DD273F2A02";
paths = (
{
closed = 1;
nodes = (
"-58 1472 LINE",
"-58 1346 LINE",
"154 1346 LINE",
"154 -112 LINE",
"-58 -112 LINE",
"-58 -238 LINE",
"396 -238 LINE",
"396 1472 LINE"
);
}
);
width = 502;
}
);
note = bracketright;
unicode = 005D;
},
{
glyphname = asciicircum;
lastChange = "2018-07-29 15:09:15 +0000";
layers = (
{
layerId = "C33DBFF5-9F9F-4FD4-87E4-27DD273F2A02";
paths = (
{
closed = 1;
nodes = (
"434 1448 LINE",
"250 1448 LINE",
"-56 824 LINE",
"146 824 LINE",
"342 1241 LINE",
"534 828 LINE",
"737 828 LINE"
);
}
);
width = 787;
}
);
note = asciicircum;
unicode = 005E;
},
{
glyphname = underscore;
lastChange = "2018-07-29 15:09:15 +0000";
layers = (
{
layerId = "C33DBFF5-9F9F-4FD4-87E4-27DD273F2A02";
paths = (
{
closed = 1;
nodes = (
"1262 -306 LINE",
"58 -306 LINE",
"58 -434 LINE",
"1262 -434 LINE"
);
}
);
width = 1303;
}
);
note = underscore;
unicode = 005F;
},
{
glyphname = grave;
lastChange = "2018-07-29 15:09:15 +0000";
layers = (
{
layerId = "C33DBFF5-9F9F-4FD4-87E4-27DD273F2A02";
paths = (
{
closed = 1;
nodes = (
"105 1423 LINE",
"-73 1307 LINE",
"269 1105 LINE",
"374 1155 LINE"
);
}
);
width = 458;
}
);
note = grave;
unicode = 0060;
},
{
glyphname = a;
lastChange = "2018-07-29 15:09:15 +0000";
layers = (
{
layerId = "C33DBFF5-9F9F-4FD4-87E4-27DD273F2A02";
paths = (
{
closed = 1;
nodes = (
"366 732 OFFCURVE",
"380 724 QCURVE",
"488 646 OFFCURVE",
"520 591 QCURVE",
"443 583 OFFCURVE",
"268 522 OFFCURVE",
"99 425 OFFCURVE",
"-12 276 OFFCURVE",
"-12 192 QCURVE SMOOTH",
"-12 141 OFFCURVE",
"44 63 OFFCURVE",
"137 21 OFFCURVE",
"239 0 OFFCURVE",
"293 0 QCURVE SMOOTH",
"363 0 OFFCURVE",
"507 57 OFFCURVE",
"615 142 OFFCURVE",
"687 216 OFFCURVE",
"707 245 QCURVE SMOOTH",
"725 272 LINE",
"783 193 OFFCURVE",
"857 36 QCURVE SMOOTH",
"871 5 LINE",
"1101 162 LINE",
"1090 181 LINE",
"972 405 OFFCURVE",
"773 719 OFFCURVE",
"646 867 QCURVE SMOOTH",
"581 943 OFFCURVE",
"507 943 QCURVE SMOOTH",
"473 943 OFFCURVE",
"439 923 QCURVE",
"185 741 LINE",
"246 697 LINE",
"248 698 OFFCURVE",
"269 708 OFFCURVE",
"287 717 OFFCURVE",
"312 726 OFFCURVE",
"337 732 OFFCURVE",
"348 732 QCURVE SMOOTH"
);
},
{
closed = 1;
nodes = (
"585 243 OFFCURVE",
"445 243 QCURVE SMOOTH",
"402 243 OFFCURVE",
"322 254 OFFCURVE",
"246 279 OFFCURVE",
"201 328 OFFCURVE",
"201 361 QCURVE SMOOTH",
"201 392 OFFCURVE",
"283 440 OFFCURVE",
"317 440 QCURVE SMOOTH",
"453 440 OFFCURVE",
"634 369 OFFCURVE",
"703 294 QCURVE",
"667 279 LINE SMOOTH"
);
}
);
width = 1201;
}
);
note = a;
unicode = 0061;
},
{
glyphname = b;
lastChange = "2018-07-29 15:09:15 +0000";
layers = (
{
layerId = "C33DBFF5-9F9F-4FD4-87E4-27DD273F2A02";
paths = (
{
closed = 1;
nodes = (
"345 1431 OFFCURVE",
"228 1359 OFFCURVE",
"195 1335 QCURVE",
"-31 1188 LINE",
"29 1118 LINE",
"48 1130 LINE SMOOTH",
"88 1154 OFFCURVE",
"119 1154 QCURVE SMOOTH",
"127 1154 OFFCURVE",
"140 1150 OFFCURVE",
"157 1133 OFFCURVE",
"166 1092 OFFCURVE",
"166 1060 QCURVE SMOOTH",
"166 477 LINE SMOOTH",
"166 416 OFFCURVE",
"184 293 OFFCURVE",
"233 162 OFFCURVE",
"306 64 OFFCURVE",
"427 0 OFFCURVE",
"503 0 QCURVE SMOOTH",
"591 0 OFFCURVE",
"806 103 OFFCURVE",
"991 264 OFFCURVE",
"1116 482 OFFCURVE",
"1116 587 QCURVE SMOOTH",
"1116 675 OFFCURVE",
"1050 834 OFFCURVE",
"908 942 OFFCURVE",
"814 942 QCURVE SMOOTH",
"639 942 OFFCURVE",
"480 770 QCURVE SMOOTH",
"428 715 LINE",
"428 1318 LINE SMOOTH",
"428 1422 OFFCURVE",
"363 1431 QCURVE"
);
},
{
closed = 1;
nodes = (
"568 747 OFFCURVE",
"614 747 QCURVE SMOOTH",
"679 747 OFFCURVE",
"785 682 OFFCURVE",
"849 579 OFFCURVE",
"884 460 OFFCURVE",
"884 403 QCURVE SMOOTH",
"884 334 OFFCURVE",
"769 205 OFFCURVE",
"706 205 QCURVE SMOOTH",
"544 205 OFFCURVE",
"428 365 OFFCURVE",
"428 559 QCURVE SMOOTH",
"428 699 LINE",
"514 729 LINE SMOOTH"
);
}
);
width = 1211;
}
);
note = b;
unicode = 0062;
},
{
glyphname = c;
lastChange = "2018-07-29 15:09:15 +0000";
layers = (
{
layerId = "C33DBFF5-9F9F-4FD4-87E4-27DD273F2A02";
paths = (
{
closed = 1;
nodes = (
"802 254 LINE SMOOTH",
"765 237 OFFCURVE",
"649 203 OFFCURVE",
"606 203 QCURVE SMOOTH",
"604 203 LINE SMOOTH",
"552 203 OFFCURVE",
"417 278 OFFCURVE",
"300 393 OFFCURVE",
"219 545 OFFCURVE",
"219 616 QCURVE SMOOTH",
"219 674 OFFCURVE",
"322 775 OFFCURVE",
"373 775 QCURVE SMOOTH",
"394 775 OFFCURVE",
"431 766 OFFCURVE",
"465 742 OFFCURVE",
"487 725 OFFCURVE",
"519 683 OFFCURVE",
"531 666 OFFCURVE",
"564 613 OFFCURVE",
"568 607 QCURVE SMOOTH",
"583 585 LINE",
"608 595 LINE",
"628 604 OFFCURVE",
"685 639 OFFCURVE",
"755 691 OFFCURVE",
"802 755 OFFCURVE",
"802 784 QCURVE SMOOTH",
"802 839 OFFCURVE",
"654 936 OFFCURVE",
"556 938 QCURVE SMOOTH",
"466 937 OFFCURVE",
"269 841 OFFCURVE",
"113 694 OFFCURVE",
"10 507 OFFCURVE",
"10 423 QCURVE SMOOTH",
"11 337 OFFCURVE",
"115 141 OFFCURVE",
"290 0 OFFCURVE",
"380 0 QCURVE SMOOTH",
"446 0 OFFCURVE",
"572 39 OFFCURVE",
"672 104 OFFCURVE",
"740 161 OFFCURVE",
"769 193 QCURVE SMOOTH",
"839 271 LINE"
);
}
);
width = 896;
}
);
note = c;
unicode = 0063;
},
{
glyphname = d;
lastChange = "2018-07-29 15:09:15 +0000";
layers = (
{
layerId = "C33DBFF5-9F9F-4FD4-87E4-27DD273F2A02";
paths = (
{
closed = 1;
nodes = (
"480 176 LINE SMOOTH",
"416 176 OFFCURVE",
"293 309 OFFCURVE",
"218 515 OFFCURVE",
"218 618 QCURVE SMOOTH",
"218 802 OFFCURVE",
"268 802 QCURVE SMOOTH",
"270 802 LINE SMOOTH",
"333 802 OFFCURVE",
"381 789 QCURVE SMOOTH",
"500 757 OFFCURVE",
"533 636 QCURVE SMOOTH",
"541 607 OFFCURVE",
"553 504 QCURVE",
"565 467 LINE",
"595 482 LINE",
"639 499 OFFCURVE",
"687 604 QCURVE",
"687 508 LINE",
"687 495 LINE SMOOTH",
"687 440 OFFCURVE",
"616 288 OFFCURVE",
"520 178 OFFCURVE",
"487 176 QCURVE"
);
},
{
closed = 1;
nodes = (
"328 938 OFFCURVE",
"135 816 OFFCURVE",
"19 611 OFFCURVE",
"19 496 QCURVE SMOOTH",
"19 454 OFFCURVE",
"35 338 OFFCURVE",
"74 197 OFFCURVE",
"130 80 OFFCURVE",
"221 0 OFFCURVE",
"275 0 QCURVE SMOOTH",
"381 0 OFFCURVE",
"579 105 OFFCURVE",
"694 202 QCURVE",
"694 72 LINE SMOOTH",
"694 42 OFFCURVE",
"732 0 OFFCURVE",
"776 0 QCURVE SMOOTH",
"790 0 LINE SMOOTH",
"830 0 OFFCURVE",
"882 28 QCURVE SMOOTH",
"1224 222 LINE",
"1164 289 LINE",
"1144 278 LINE SMOOTH",
"1104 255 OFFCURVE",
"1074 255 QCURVE SMOOTH",
"1012 255 OFFCURVE",
"1012 345 QCURVE",
"957 1462 LINE",
"687 1362 LINE",
"687 791 LINE",
"649 852 OFFCURVE",
"517 938 OFFCURVE",
"436 938 QCURVE SMOOTH"
);
}
);
width = 1317;
}
);
note = d;
unicode = 0064;
},
{
glyphname = e;
lastChange = "2018-07-29 15:09:15 +0000";
layers = (
{
layerId = "C33DBFF5-9F9F-4FD4-87E4-27DD273F2A02";
paths = (
{
closed = 1;
nodes = (
"223 653 OFFCURVE",
"302 755 OFFCURVE",
"351 755 QCURVE SMOOTH",
"415 755 OFFCURVE",
"469 689 OFFCURVE",
"469 644 QCURVE SMOOTH",
"469 487 OFFCURVE",
"337 404 QCURVE",
"323 393 OFFCURVE",
"325 367 OFFCURVE",
"355 351 OFFCURVE",
"372 358 QCURVE SMOOTH",
"401 370 OFFCURVE",
"487 414 OFFCURVE",
"617 497 OFFCURVE",
"722 589 OFFCURVE",
"799 711 OFFCURVE",
"799 770 QCURVE SMOOTH",
"799 847 OFFCURVE",
"666 938 OFFCURVE",
"571 938 QCURVE SMOOTH",
"470 938 OFFCURVE",
"287 859 OFFCURVE",
"156 734 OFFCURVE",
"59 582 OFFCURVE",
"11 435 OFFCURVE",
"11 375 QCURVE SMOOTH",
"11 279 OFFCURVE",
"135 103 OFFCURVE",
"320 0 OFFCURVE",
"412 0 QCURVE SMOOTH",
"450 0 OFFCURVE",
"525 17 OFFCURVE",
"585 40 OFFCURVE",
"648 81 OFFCURVE",
"691 113 OFFCURVE",
"742 162 OFFCURVE",
"767 189 OFFCURVE",
"806 234 OFFCURVE",
"810 238 QCURVE SMOOTH",
"827 255 OFFCURVE",
"810 272 QCURVE SMOOTH",
"802 280 OFFCURVE",
"784 280 OFFCURVE",
"741 258 OFFCURVE",
"652 226 OFFCURVE",
"595 217 QCURVE",
"517 218 OFFCURVE",
"374 293 OFFCURVE",
"279 405 OFFCURVE",
"222 530 OFFCURVE",
"222 583 QCURVE SMOOTH",
"222 587 LINE SMOOTH"
);
}
);
width = 914;
}
);
note = e;
unicode = 0065;
},
{
glyphname = f;
lastChange = "2018-07-29 15:09:15 +0000";
layers = (
{
layerId = "C33DBFF5-9F9F-4FD4-87E4-27DD273F2A02";
paths = (
{
closed = 1;
nodes = (
"-23 506 LINE",
"249 513 LINE",
"256 -406 LINE",
"519 -219 LINE",
"498 498 LINE",
"502 498 OFFCURVE",
"557 506 OFFCURVE",
"566 506 QCURVE SMOOTH",
"596 506 OFFCURVE",
"654 500 OFFCURVE",
"727 489 OFFCURVE",
"743 487 QCURVE SMOOTH",
"766 484 LINE",
"773 506 LINE SMOOTH",
"784 545 OFFCURVE",
"832 626 OFFCURVE",
"859 652 QCURVE SMOOTH",
"908 700 LINE",
"840 700 LINE SMOOTH",
"802 700 OFFCURVE",
"640 692 OFFCURVE",
"597 692 QCURVE SMOOTH",
"563 692 OFFCURVE",
"497 696 QCURVE",
"489 960 OFFCURVE",
"489 964 QCURVE SMOOTH",
"489 1101 OFFCURVE",
"546 1257 OFFCURVE",
"595 1257 QCURVE SMOOTH",
"641 1257 OFFCURVE",
"736 1187 OFFCURVE",
"750 1167 QCURVE",
"749 1147 LINE",
"789 1164 LINE",
"953 1306 LINE",
"950 1350 LINE",
"932 1360 OFFCURVE",
"868 1391 OFFCURVE",
"757 1428 OFFCURVE",
"720 1428 QCURVE SMOOTH",
"630 1428 OFFCURVE",
"460 1338 OFFCURVE",
"322 1171 OFFCURVE",
"236 906 OFFCURVE",
"235 744 QCURVE SMOOTH",
"235 690 LINE",
"33 705 LINE"
);
}
);
width = 1088;
}
);
note = f;
unicode = 0066;
},
{
glyphname = g;
lastChange = "2018-07-29 15:09:15 +0000";
layers = (
{
layerId = "C33DBFF5-9F9F-4FD4-87E4-27DD273F2A02";
paths = (
{
closed = 1;
nodes = (
"541 824 OFFCURVE",
"739 686 OFFCURVE",
"739 570 QCURVE SMOOTH",
"739 533 LINE SMOOTH",
"739 487 OFFCURVE",
"628 390 OFFCURVE",
"555 390 QCURVE SMOOTH",
"420 390 OFFCURVE",
"236 559 OFFCURVE",
"236 672 QCURVE SMOOTH",
"236 677 OFFCURVE",
"236 677 QCURVE",
"236 718 OFFCURVE",
"282 783 QCURVE",
"340 824 OFFCURVE",
"394 824 QCURVE SMOOTH"
);
},
{
closed = 1;
nodes = (
"177 129 OFFCURVE",
"147 111 OFFCURVE",
"98 67 OFFCURVE",
"57 14 OFFCURVE",
"26 -68 OFFCURVE",
"26 -112 QCURVE SMOOTH",
"26 -158 OFFCURVE",
"87 -266 OFFCURVE",
"190 -364 OFFCURVE",
"347 -429 OFFCURVE",
"434 -429 QCURVE SMOOTH",
"577 -429 OFFCURVE",
"822 -305 OFFCURVE",
"964 -95 OFFCURVE",
"964 28 QCURVE SMOOTH",
"964 111 OFFCURVE",
"666 270 OFFCURVE",
"407 280 QCURVE",
"561 284 OFFCURVE",
"771 339 OFFCURVE",
"892 445 OFFCURVE",
"943 587 OFFCURVE",
"943 688 QCURVE SMOOTH",
"943 733 OFFCURVE",
"927 771 QCURVE",
"946 789 LINE",
"1040 958 LINE",
"981 943 LINE SMOOTH",
"914 927 OFFCURVE",
"822 927 QCURVE SMOOTH",
"741 927 OFFCURVE",
"638 938 QCURVE SMOOTH",
"534 950 LINE",
"473 950 OFFCURVE",
"280 909 OFFCURVE",
"226 878 QCURVE",
"224 877 OFFCURVE",
"186 849 OFFCURVE",
"170 836 OFFCURVE",
"130 803 OFFCURVE",
"108 778 OFFCURVE",
"73 738 OFFCURVE",
"53 699 OFFCURVE",
"32 651 OFFCURVE",
"23 597 OFFCURVE",
"23 568 QCURVE SMOOTH",
"23 491 OFFCURVE",
"146 323 OFFCURVE",
"228 302 QCURVE",
"163 181 LINE",
"208 181 LINE SMOOTH",
"270 181 OFFCURVE",
"469 133 OFFCURVE",
"664 57 OFFCURVE",
"804 -54 OFFCURVE",
"804 -108 QCURVE SMOOTH",
"804 -146 LINE SMOOTH",
"804 -181 OFFCURVE",
"647 -254 OFFCURVE",
"558 -254 QCURVE SMOOTH",
"416 -254 OFFCURVE",
"239 -116 OFFCURVE",
"239 0 QCURVE SMOOTH",
"239 47 OFFCURVE",
"258 106 OFFCURVE",
"258 112 QCURVE SMOOTH",
"258 113 OFFCURVE",
"224 142 OFFCURVE",
"223 142 QCURVE SMOOTH",
"214 142 OFFCURVE",
"184 132 QCURVE"
);
}
);
width = 1099;
}
);
note = g;
unicode = 0067;
},
{
glyphname = h;
lastChange = "2018-07-29 15:09:15 +0000";
layers = (
{
layerId = "C33DBFF5-9F9F-4FD4-87E4-27DD273F2A02";
paths = (
{
closed = 1;
nodes = (
"414 1376 OFFCURVE",
"388 1423 OFFCURVE",
"363 1423 QCURVE SMOOTH",
"319 1423 OFFCURVE",
"241 1368 QCURVE",
"-41 1188 LINE",
"18 1119 LINE",
"38 1131 LINE SMOOTH",
"78 1155 OFFCURVE",
"109 1155 QCURVE SMOOTH",
"156 1155 OFFCURVE",
"156 1061 QCURVE SMOOTH",
"193 -83 LINE",
"244 0 LINE",
"392 221 OFFCURVE",
"686 559 OFFCURVE",
"745 574 QCURVE",
"750 574 LINE SMOOTH",
"783 574 OFFCURVE",
"833 543 OFFCURVE",
"868 476 OFFCURVE",
"892 404 OFFCURVE",
"910 288 OFFCURVE",
"921 194 OFFCURVE",
"937 49 OFFCURVE",
"944 0 QCURVE",
"950 -26 LINE",
"1189 133 LINE",
"1179 263 OFFCURVE",
"1160 460 OFFCURVE",
"1133 653 OFFCURVE",
"1100 787 OFFCURVE",
"1058 893 OFFCURVE",
"1003 944 OFFCURVE",
"969 944 QCURVE SMOOTH",
"918 944 OFFCURVE",
"783 847 OFFCURVE",
"674 729 OFFCURVE",
"496 530 OFFCURVE",
"438 473 QCURVE",
"416 1320 LINE SMOOTH"
);
}
);
width = 1282;
}
);
note = h;
unicode = 0068;
},
{
glyphname = i;
lastChange = "2018-07-29 15:09:15 +0000";
layers = (
{
layerId = "C33DBFF5-9F9F-4FD4-87E4-27DD273F2A02";
paths = (
{
closed = 1;
nodes = (
"304 1062 OFFCURVE",
"323 1069 QCURVE",
"509 1193 LINE",
"484 1217 LINE SMOOTH",
"397 1297 OFFCURVE",
"370 1374 QCURVE SMOOTH",
"358 1409 LINE",
"206 1297 LINE",
"166 1264 OFFCURVE",
"159 1229 QCURVE SMOOTH",
"157 1219 OFFCURVE",
"157 1213 QCURVE SMOOTH",
"157 1163 OFFCURVE",
"241 1062 OFFCURVE",
"293 1062 QCURVE SMOOTH"
);
},
{
closed = 1;
nodes = (
"209 -26 LINE",
"456 120 LINE",
"456 856 LINE SMOOTH",
"456 899 OFFCURVE",
"425 952 OFFCURVE",
"396 952 QCURVE SMOOTH",
"365 952 OFFCURVE",
"328 922 QCURVE",
"15 731 LINE",
"75 665 LINE",
"94 676 LINE SMOOTH",
"135 699 OFFCURVE",
"165 699 QCURVE SMOOTH",
"173 699 OFFCURVE",
"186 695 OFFCURVE",
"203 679 OFFCURVE",
"212 640 OFFCURVE",
"212 610 QCURVE SMOOTH"
);
}
);
width = 613;
}
);
note = i;
unicode = 0069;
},
{
glyphname = j;
lastChange = "2018-07-29 15:09:15 +0000";
layers = (
{
layerId = "C33DBFF5-9F9F-4FD4-87E4-27DD273F2A02";
paths = (
{
closed = 1;
nodes = (
"274 1062 OFFCURVE",
"289 1071 QCURVE",
"475 1197 LINE",
"450 1224 LINE",
"442 1232 OFFCURVE",
"405 1268 OFFCURVE",
"394 1280 OFFCURVE",
"372 1307 OFFCURVE",
"360 1334 OFFCURVE",
"354 1353 QCURVE",
"324 1413 LINE",
"172 1302 LINE",
"132 1278 OFFCURVE",
"125 1250 QCURVE SMOOTH",
"123 1242 OFFCURVE",
"123 1236 QCURVE SMOOTH",
"123 1188 OFFCURVE",
"205 1062 OFFCURVE",
"259 1062 QCURVE SMOOTH"
);
},
{
closed = 1;
nodes = (
"178 678 OFFCURVE",
"191 675 OFFCURVE",
"208 664 OFFCURVE",
"217 634 OFFCURVE",
"217 612 QCURVE SMOOTH",
"213 -402 LINE",
"463 -239 LINE",
"461 870 LINE",
"461 917 OFFCURVE",
"438 934 QCURVE",
"419 944 OFFCURVE",
"401 944 QCURVE SMOOTH",
"371 944 OFFCURVE",
"333 917 QCURVE",
"20 716 LINE",
"80 646 LINE",
"99 658 LINE",
"139 678 OFFCURVE",
"170 678 QCURVE SMOOTH"
);
}
);
width = 581;
}
);
note = j;
unicode = 006A;
},
{
glyphname = k;
lastChange = "2018-07-29 15:09:15 +0000";
layers = (
{
layerId = "C33DBFF5-9F9F-4FD4-87E4-27DD273F2A02";
paths = (
{
closed = 1;
nodes = (
"177 -25 LINE",
"435 143 LINE",
"435 464 LINE",
"746 76 LINE",
"751 71 OFFCURVE",
"779 43 OFFCURVE",
"794 31 OFFCURVE",
"817 13 OFFCURVE",
"839 6 OFFCURVE",
"851 6 QCURVE SMOOTH",
"878 6 OFFCURVE",
"907 27 QCURVE SMOOTH",
"1081 158 LINE SMOOTH",
"1099 171 OFFCURVE",
"1087 191 QCURVE SMOOTH",
"1079 204 OFFCURVE",
"1071 204 QCURVE SMOOTH",
"1069 204 OFFCURVE",
"1056 201 OFFCURVE",
"1050 201 QCURVE SMOOTH",
"1018 201 OFFCURVE",
"965 247 QCURVE",
"941 273 OFFCURVE",
"728 487 OFFCURVE",
"671 561 QCURVE",
"725 598 OFFCURVE",
"796 651 OFFCURVE",
"886 727 OFFCURVE",
"933 797 OFFCURVE",
"933 826 QCURVE SMOOTH",
"933 848 OFFCURVE",
"917 885 OFFCURVE",
"873 926 OFFCURVE",
"779 950 OFFCURVE",
"710 950 QCURVE SMOOTH",
"698 950 LINE",
"471 757 LINE",
"547 757 LINE SMOOTH",
"582 757 OFFCURVE",
"629 721 OFFCURVE",
"629 694 QCURVE SMOOTH",
"629 657 OFFCURVE",
"584 607 QCURVE SMOOTH",
"545 564 OFFCURVE",
"435 485 QCURVE",
"435 1326 LINE SMOOTH",
"435 1384 OFFCURVE",
"410 1409 QCURVE SMOOTH",
"393 1426 OFFCURVE",
"345 1426 OFFCURVE",
"296 1396 QCURVE SMOOTH",
"-26 1194 LINE",
"37 1126 LINE",
"57 1137 LINE SMOOTH",
"98 1161 OFFCURVE",
"126 1161 QCURVE SMOOTH",
"172 1161 OFFCURVE",
"172 1067 QCURVE SMOOTH"
);
}
);
width = 1184;
}
);
note = k;
unicode = 006B;
},
{
glyphname = l;
lastChange = "2018-07-29 15:09:15 +0000";
layers = (
{
layerId = "C33DBFF5-9F9F-4FD4-87E4-27DD273F2A02";
paths = (
{
closed = 1;
nodes = (
"168 -28 LINE",
"418 131 LINE",
"415 1313 LINE",
"415 1358 OFFCURVE",
"384 1413 OFFCURVE",
"355 1413 QCURVE SMOOTH",
"348 1413 OFFCURVE",
"331 1407 OFFCURVE",
"320 1401 OFFCURVE",
"293 1386 OFFCURVE",
"288 1383 QCURVE SMOOTH",
"-23 1189 LINE",
"35 1119 LINE",
"55 1131 LINE SMOOTH",
"95 1155 OFFCURVE",
"127 1155 QCURVE SMOOTH",
"173 1155 OFFCURVE",
"173 1062 QCURVE SMOOTH"
);
}
);
width = 538;
}
);
note = l;
unicode = 006C;
},
{
glyphname = m;
lastChange = "2018-07-29 15:09:15 +0000";
layers = (
{
layerId = "C33DBFF5-9F9F-4FD4-87E4-27DD273F2A02";
paths = (
{
closed = 1;
nodes = (
"229 435 OFFCURVE",
"229 202 QCURVE SMOOTH",
"229 168 OFFCURVE",
"228 33 OFFCURVE",
"228 0 QCURVE SMOOTH",
"228 -80 LINE",
"280 0 LINE",
"308 39 OFFCURVE",
"412 194 OFFCURVE",
"486 303 OFFCURVE",
"590 439 OFFCURVE",
"672 524 OFFCURVE",
"765 583 OFFCURVE",
"803 583 QCURVE SMOOTH",
"838 583 OFFCURVE",
"894 531 OFFCURVE",
"929 455 OFFCURVE",
"961 334 OFFCURVE",
"978 233 OFFCURVE",
"1003 92 OFFCURVE",
"1012 52 QCURVE SMOOTH",
"1026 -16 LINE",
"1065 45 LINE SMOOTH",
"1083 73 OFFCURVE",
"1165 209 OFFCURVE",
"1217 291 OFFCURVE",
"1298 414 OFFCURVE",
"1359 491 OFFCURVE",
"1429 568 OFFCURVE",
"1492 605 OFFCURVE",
"1518 605 QCURVE SMOOTH",
"1547 605 OFFCURVE",
"1595 556 OFFCURVE",
"1629 463 OFFCURVE",
"1654 365 OFFCURVE",
"1672 232 OFFCURVE",
"1683 138 OFFCURVE",
"1693 18 OFFCURVE",
"1695 0 QCURVE",
"1700 -25 LINE",
"1944 129 LINE",
"1938 183 OFFCURVE",
"1922 342 OFFCURVE",
"1911 448 OFFCURVE",
"1896 586 OFFCURVE",
"1880 678 OFFCURVE",
"1859 782 OFFCURVE",
"1833 849 OFFCURVE",
"1800 908 OFFCURVE",
"1759 937 OFFCURVE",
"1734 938 QCURVE",
"1693 938 OFFCURVE",
"1612 910 OFFCURVE",
"1532 848 OFFCURVE",
"1464 783 OFFCURVE",
"1379 676 OFFCURVE",
"1317 593 OFFCURVE",
"1220 460 OFFCURVE",
"1188 419 QCURVE",
"1186 446 OFFCURVE",
"1179 550 OFFCURVE",
"1174 611 OFFCURVE",
"1166 706 OFFCURVE",
"1155 764 OFFCURVE",
"1138 838 OFFCURVE",
"1115 883 OFFCURVE",
"1085 925 OFFCURVE",
"1044 944 OFFCURVE",
"1019 944 QCURVE SMOOTH",
"991 944 OFFCURVE",
"926 915 OFFCURVE",
"842 844 OFFCURVE",
"770 775 OFFCURVE",
"652 641 OFFCURVE",
"570 545 OFFCURVE",
"495 454 QCURVE",
"453 843 LINE",
"438 902 OFFCURVE",
"403 938 OFFCURVE",
"375 941 QCURVE",
"347 941 OFFCURVE",
"307 911 QCURVE",
"-9 715 LINE",
"51 648 LINE",
"70 659 LINE SMOOTH",
"110 683 OFFCURVE",
"141 683 QCURVE SMOOTH",
"165 683 OFFCURVE",
"198 646 OFFCURVE",
"206 590 QCURVE SMOOTH"
);
}
);
width = 2039;
}
);
note = m;
unicode = 006D;
},
{
glyphname = n;
lastChange = "2018-07-29 15:09:15 +0000";
layers = (
{
layerId = "C33DBFF5-9F9F-4FD4-87E4-27DD273F2A02";
paths = (
{
closed = 1;
nodes = (
"971 944 OFFCURVE",
"842 825 QCURVE SMOOTH",
"746 735 OFFCURVE",
"505 454 QCURVE",
"461 843 LINE",
"445 902 OFFCURVE",
"410 938 OFFCURVE",
"380 941 QCURVE",
"350 941 OFFCURVE",
"310 911 QCURVE",
"-9 715 LINE",
"51 648 LINE",
"70 659 LINE SMOOTH",
"110 683 OFFCURVE",
"141 683 QCURVE SMOOTH",
"165 683 OFFCURVE",
"198 646 OFFCURVE",
"206 590 QCURVE SMOOTH",
"229 435 OFFCURVE",
"229 202 QCURVE SMOOTH",
"229 168 OFFCURVE",
"228 33 OFFCURVE",
"228 0 QCURVE SMOOTH",
"228 -80 LINE",
"282 0 LINE",
"364 112 OFFCURVE",
"473 255 OFFCURVE",
"613 422 OFFCURVE",
"716 517 OFFCURVE",
"824 581 OFFCURVE",
"867 581 QCURVE SMOOTH",
"897 581 OFFCURVE",
"945 511 OFFCURVE",
"979 381 OFFCURVE",
"1002 261 OFFCURVE",
"1029 93 OFFCURVE",
"1037 53 QCURVE SMOOTH",
"1049 -5 LINE",
"1251 260 LINE",
"1248 283 OFFCURVE",
"1232 466 OFFCURVE",
"1219 589 OFFCURVE",
"1188 756 OFFCURVE",
"1168 812 QCURVE SMOOTH",
"1121 944 OFFCURVE",
"1046 944 QCURVE SMOOTH",
"1044 944 LINE SMOOTH"
);
}
);
width = 1333;
}
);
note = n;
unicode = 006E;
},
{
glyphname = o;
lastChange = "2018-07-29 15:09:15 +0000";
layers = (
{
layerId = "C33DBFF5-9F9F-4FD4-87E4-27DD273F2A02";
paths = (
{
closed = 1;
nodes = (
"168 668 OFFCURVE",
"211 649 OFFCURVE",
"224 669 QCURVE SMOOTH",
"240 694 OFFCURVE",
"355 733 OFFCURVE",
"410 735 QCURVE",
"414 735 LINE SMOOTH",
"466 735 OFFCURVE",
"502 714 QCURVE SMOOTH",
"587 664 OFFCURVE",
"689 438 OFFCURVE",
"689 314 QCURVE SMOOTH",
"689 258 OFFCURVE",
"604 177 OFFCURVE",
"537 177 QCURVE SMOOTH",
"450 177 OFFCURVE",
"299 241 OFFCURVE",
"199 374 OFFCURVE",
"199 462 QCURVE SMOOTH",
"199 530 OFFCURVE",
"208 570 QCURVE SMOOTH",
"216 604 OFFCURVE",
"238 648 QCURVE",
"174 614 LINE",
"6 514 OFFCURVE",
"6 356 QCURVE SMOOTH",
"6 278 OFFCURVE",
"82 116 OFFCURVE",
"233 0 OFFCURVE",
"325 0 QCURVE SMOOTH",
"436 0 OFFCURVE",
"656 95 OFFCURVE",
"816 240 OFFCURVE",
"916 421 OFFCURVE",
"916 504 QCURVE SMOOTH",
"916 607 OFFCURVE",
"806 809 OFFCURVE",
"622 938 OFFCURVE",
"523 938 QCURVE SMOOTH",
"466 938 OFFCURVE",
"318 873 OFFCURVE",
"192 755 OFFCURVE",
"174 691 QCURVE SMOOTH"
);
}
);
width = 1025;
}
);
note = o;
unicode = 006F;
},
{
glyphname = p;
lastChange = "2018-07-29 15:09:15 +0000";
layers = (
{
layerId = "C33DBFF5-9F9F-4FD4-87E4-27DD273F2A02";
paths = (
{
closed = 1;
nodes = (
"635 15 OFFCURVE",
"833 104 OFFCURVE",
"1003 229 OFFCURVE",
"1114 396 OFFCURVE",
"1114 480 QCURVE SMOOTH",
"1114 569 OFFCURVE",
"1052 778 OFFCURVE",
"929 938 OFFCURVE",
"857 938 QCURVE SMOOTH",
"819 938 OFFCURVE",
"735 910 OFFCURVE",
"672 876 OFFCURVE",
"579 804 OFFCURVE",
"531 762 OFFCURVE",
"480 716 QCURVE",
"480 844 LINE SMOOTH",
"480 868 OFFCURVE",
"467 904 OFFCURVE",
"450 923 OFFCURVE",
"425 934 OFFCURVE",
"408 937 OFFCURVE",
"396 938 QCURVE",
"385 938 LINE SMOOTH",
"356 938 OFFCURVE",
"314 908 QCURVE",
"-6 714 LINE",
"54 647 LINE",
"73 659 LINE",
"114 682 OFFCURVE",
"144 682 QCURVE SMOOTH",
"152 682 OFFCURVE",
"165 678 OFFCURVE",
"182 662 OFFCURVE",
"191 623 OFFCURVE",
"191 592 QCURVE SMOOTH",
"204 -390 LINE",
"475 -302 LINE",
"477 492 LINE",
"485 543 OFFCURVE",
"564 656 OFFCURVE",
"640 722 OFFCURVE",
"654 722 QCURVE SMOOTH",
"690 722 OFFCURVE",
"782 596 OFFCURVE",
"847 409 OFFCURVE",
"847 332 QCURVE SMOOTH",
"847 309 OFFCURVE",
"833 267 OFFCURVE",
"814 235 OFFCURVE",
"776 200 OFFCURVE",
"745 177 OFFCURVE",
"691 146 OFFCURVE",
"655 128 OFFCURVE",
"591 97 OFFCURVE",
"574 88 QCURVE SMOOTH",
"567 84 OFFCURVE",
"527 64 OFFCURVE",
"500 49 OFFCURVE",
"500 46 QCURVE SMOOTH",
"500 32 OFFCURVE",
"531 -1 OFFCURVE",
"544 0 QCURVE"
);
}
);
width = 1209;
}
);
note = p;
unicode = 0070;
},
{
glyphname = q;
lastChange = "2018-07-29 15:09:15 +0000";
layers = (
{
layerId = "C33DBFF5-9F9F-4FD4-87E4-27DD273F2A02";
paths = (
{
closed = 1;
nodes = (
"628 164 LINE",
"626 188 LINE",
"624 187 OFFCURVE",
"592 171 OFFCURVE",
"583 167 OFFCURVE",
"556 156 OFFCURVE",
"540 151 OFFCURVE",
"517 146 OFFCURVE",
"507 146 QCURVE SMOOTH",
"496 146 OFFCURVE",
"486 151 QCURVE",
"432 205 OFFCURVE",
"374 271 OFFCURVE",
"294 381 OFFCURVE",
"255 497 OFFCURVE",
"253 560 QCURVE",
"253 577 LINE",
"263 654 OFFCURVE",
"332 728 OFFCURVE",
"366 728 QCURVE SMOOTH",
"397 728 OFFCURVE",
"447 727 OFFCURVE",
"490 720 OFFCURVE",
"518 718 OFFCURVE",
"550 704 OFFCURVE",
"563 701 OFFCURVE",
"591 679 OFFCURVE",
"597 675 OFFCURVE",
"629 645 OFFCURVE",
"632 642 QCURVE",
"686 408 OFFCURVE",
"686 -190 QCURVE SMOOTH",
"686 -368 LINE",
"686 -453 LINE",
"720 -446 LINE SMOOTH",
"943 -404 OFFCURVE",
"1135 -315 QCURVE SMOOTH",
"1249 -263 LINE",
"1100 -263 LINE SMOOTH",
"1032 -263 OFFCURVE",
"968 -237 OFFCURVE",
"968 -200 QCURVE",
"913 871 LINE",
"890 875 LINE SMOOTH",
"846 884 OFFCURVE",
"718 919 OFFCURVE",
"617 938 OFFCURVE",
"555 938 QCURVE SMOOTH",
"472 938 OFFCURVE",
"274 816 OFFCURVE",
"117 644 OFFCURVE",
"10 447 OFFCURVE",
"10 376 QCURVE SMOOTH",
"10 263 OFFCURVE",
"126 104 OFFCURVE",
"235 28 QCURVE",
"293 0 OFFCURVE",
"371 0 QCURVE SMOOTH",
"388 0 LINE SMOOTH",
"437 0 OFFCURVE",
"480 32 QCURVE"
);
}
);
width = 1172;
}
);
note = q;
unicode = 0071;
},
{
glyphname = r;
lastChange = "2018-07-29 15:09:15 +0000";
layers = (
{
layerId = "C33DBFF5-9F9F-4FD4-87E4-27DD273F2A02";
paths = (
{
closed = 1;
nodes = (
"465 892 OFFCURVE",
"428 942 OFFCURVE",
"397 942 QCURVE SMOOTH",
"360 942 OFFCURVE",
"319 913 QCURVE",
"-4 722 LINE",
"56 656 LINE",
"75 667 LINE SMOOTH",
"116 690 OFFCURVE",
"146 690 QCURVE SMOOTH",
"154 690 OFFCURVE",
"167 686 OFFCURVE",
"184 670 OFFCURVE",
"193 631 OFFCURVE",
"193 601 QCURVE SMOOTH",
"193 -26 LINE",
"475 121 LINE",
"475 535 LINE",
"501 579 OFFCURVE",
"566 653 OFFCURVE",
"608 686 OFFCURVE",
"615 686 QCURVE SMOOTH",
"649 686 OFFCURVE",
"694 588 QCURVE SMOOTH",
"709 556 LINE",
"928 730 LINE",
"923 748 LINE SMOOTH",
"870 938 OFFCURVE",
"787 938 QCURVE SMOOTH",
"760 938 OFFCURVE",
"704 902 OFFCURVE",
"653 852 OFFCURVE",
"646 848 QCURVE",
"465 690 LINE",
"465 842 LINE SMOOTH"
);
}
);
width = 1004;
}
);
note = r;
unicode = 0072;
},
{
glyphname = s;
lastChange = "2018-07-29 15:09:15 +0000";
layers = (
{
layerId = "C33DBFF5-9F9F-4FD4-87E4-27DD273F2A02";
paths = (
{
closed = 1;
nodes = (
"473 938 OFFCURVE",
"307 870 OFFCURVE",
"153 766 OFFCURVE",
"44 625 OFFCURVE",
"44 561 QCURVE SMOOTH",
"44 512 OFFCURVE",
"146 447 OFFCURVE",
"292 408 OFFCURVE",
"439 366 OFFCURVE",
"541 283 OFFCURVE",
"541 220 QCURVE SMOOTH",
"541 194 OFFCURVE",
"482 159 OFFCURVE",
"439 159 QCURVE SMOOTH",
"399 159 OFFCURVE",
"333 183 OFFCURVE",
"295 217 OFFCURVE",
"269 254 OFFCURVE",
"259 277 OFFCURVE",
"259 280 QCURVE",
"262 285 LINE",
"334 326 LINE",
"271 391 LINE",
"249 376 LINE",
"241 370 OFFCURVE",
"169 323 OFFCURVE",
"121 286 OFFCURVE",
"60 231 OFFCURVE",
"28 173 OFFCURVE",
"28 144 QCURVE SMOOTH",
"28 77 OFFCURVE",
"149 0 OFFCURVE",
"246 0 QCURVE SMOOTH",
"348 0 OFFCURVE",
"596 115 OFFCURVE",
"773 297 OFFCURVE",
"773 382 QCURVE SMOOTH",
"773 442 OFFCURVE",
"669 514 OFFCURVE",
"520 547 OFFCURVE",
"371 580 OFFCURVE",
"267 649 OFFCURVE",
"267 706 QCURVE SMOOTH",
"267 735 OFFCURVE",
"300 756 QCURVE",
"310 761 OFFCURVE",
"328 761 QCURVE SMOOTH",
"369 761 OFFCURVE",
"469 715 OFFCURVE",
"509 661 QCURVE SMOOTH",
"529 632 LINE",
"554 653 LINE SMOOTH",
"582 677 OFFCURVE",
"680 737 OFFCURVE",
"727 782 OFFCURVE",
"731 812 QCURVE",
"731 860 OFFCURVE",
"609 936 OFFCURVE",
"530 938 QCURVE SMOOTH"
);
}
);
width = 882;
}
);
note = s;
unicode = 0073;
},
{
glyphname = t;
lastChange = "2018-07-29 15:09:15 +0000";
layers = (
{
layerId = "C33DBFF5-9F9F-4FD4-87E4-27DD273F2A02";
paths = (
{
closed = 1;
nodes = (
"534 0 OFFCURVE",
"696 103 OFFCURVE",
"750 175 QCURVE",
"724 276 LINE",
"689 241 LINE",
"651 199 OFFCURVE",
"613 198 QCURVE",
"555 212 OFFCURVE",
"555 267 QCURVE SMOOTH",
"555 882 LINE",
"661 878 LINE",
"698 903 OFFCURVE",
"756 962 OFFCURVE",
"783 1000 OFFCURVE",
"819 1052 QCURVE",
"846 1095 LINE",
"555 1095 LINE",
"555 1449 LINE",
"266 1274 LINE",
"266 1092 LINE",
"122 1092 LINE",
"117 1072 LINE SMOOTH",
"97 994 OFFCURVE",
"24 912 QCURVE SMOOTH",
"-17 866 LINE",
"266 866 LINE",
"266 207 LINE SMOOTH",
"266 167 OFFCURVE",
"275 105 OFFCURVE",
"288 63 OFFCURVE",
"314 34 OFFCURVE",
"335 19 OFFCURVE",
"374 8 OFFCURVE",
"399 6 OFFCURVE",
"449 2 OFFCURVE",
"462 0 QCURVE",
"467 0 LINE SMOOTH"
);
}
);
width = 847;
}
);
note = t;
unicode = 0074;
},
{
glyphname = u;
lastChange = "2018-07-29 15:09:15 +0000";
layers = (
{
layerId = "C33DBFF5-9F9F-4FD4-87E4-27DD273F2A02";
paths = (
{
closed = 1;
nodes = (
"472 0 OFFCURVE",
"576 73 QCURVE SMOOTH",
"737 184 OFFCURVE",
"877 455 QCURVE",
"877 -65 LINE",
"1147 117 LINE",
"1125 291 OFFCURVE",
"1125 559 QCURVE SMOOTH",
"1125 618 OFFCURVE",
"1127 861 OFFCURVE",
"1127 922 QCURVE SMOOTH",
"1127 981 LINE",
"890 795 LINE",
"890 783 LINE SMOOTH",
"890 713 OFFCURVE",
"790 486 OFFCURVE",
"631 301 OFFCURVE",
"562 301 QCURVE SMOOTH",
"537 301 OFFCURVE",
"498 343 OFFCURVE",
"472 420 OFFCURVE",
"454 509 OFFCURVE",
"441 621 OFFCURVE",
"433 714 OFFCURVE",
"425 820 OFFCURVE",
"422 848 QCURVE",
"421 938 OFFCURVE",
"355 938 QCURVE SMOOTH",
"321 938 OFFCURVE",
"282 912 QCURVE SMOOTH",
"-11 720 LINE",
"48 656 LINE",
"68 667 LINE SMOOTH",
"108 689 OFFCURVE",
"139 689 QCURVE SMOOTH",
"156 689 OFFCURVE",
"175 682 OFFCURVE",
"195 642 OFFCURVE",
"200 603 QCURVE",
"218 520 OFFCURVE",
"251 172 OFFCURVE",
"268 110 QCURVE SMOOTH",
"296 0 OFFCURVE",
"364 0 QCURVE SMOOTH"
);
}
);
width = 1243;
}
);
note = u;
unicode = 0075;
},
{
glyphname = v;
lastChange = "2018-07-29 15:09:15 +0000";
layers = (
{
layerId = "C33DBFF5-9F9F-4FD4-87E4-27DD273F2A02";
paths = (
{
closed = 1;
nodes = (
"1157 874 OFFCURVE",
"1039 944 OFFCURVE",
"973 944 QCURVE SMOOTH",
"955 944 OFFCURVE",
"911 927 OFFCURVE",
"873 905 OFFCURVE",
"810 856 OFFCURVE",
"771 823 OFFCURVE",
"688 752 OFFCURVE",
"666 733 QCURVE SMOOTH",
"645 715 LINE",
"711 644 LINE",
"734 665 LINE SMOOTH",
"771 700 OFFCURVE",
"795 718 OFFCURVE",
"807 719 QCURVE",
"813 719 LINE SMOOTH",
"886 719 OFFCURVE",
"886 636 QCURVE SMOOTH",
"886 588 OFFCURVE",
"856 538 QCURVE",
"724 293 LINE",
"667 378 OFFCURVE",
"531 633 OFFCURVE",
"446 804 OFFCURVE",
"343 935 OFFCURVE",
"298 938 QCURVE",
"291 938 OFFCURVE",
"279 936 OFFCURVE",
"268 932 OFFCURVE",
"260 928 OFFCURVE",
"247 921 OFFCURVE",
"243 919 QCURVE SMOOTH",
"-25 788 LINE",
"22 725 LINE",
"44 738 LINE SMOOTH",
"59 747 OFFCURVE",
"74 747 QCURVE SMOOTH",
"79 747 LINE",
"155 683 OFFCURVE",
"288 519 OFFCURVE",
"400 322 OFFCURVE",
"486 139 OFFCURVE",
"535 19 QCURVE SMOOTH",
"542 0 LINE",
"632 0 LINE",
"634 3 OFFCURVE",
"779 205 OFFCURVE",
"910 393 OFFCURVE",
"1064 622 OFFCURVE",
"1157 789 OFFCURVE",
"1157 816 QCURVE SMOOTH"
);
}
);
width = 1238;
}
);
note = v;
unicode = 0076;
},
{
glyphname = w;
lastChange = "2018-07-29 15:09:15 +0000";
layers = (
{
layerId = "C33DBFF5-9F9F-4FD4-87E4-27DD273F2A02";
paths = (
{
closed = 1;
nodes = (
"994 878 OFFCURVE",
"931 788 QCURVE SMOOTH",
"911 760 OFFCURVE",
"826 620 OFFCURVE",
"802 584 QCURVE SMOOTH",
"643 338 LINE",
"611 402 OFFCURVE",
"474 718 OFFCURVE",
"376 898 OFFCURVE",
"333 925 QCURVE",
"314 938 OFFCURVE",
"292 938 QCURVE SMOOTH",
"275 938 OFFCURVE",
"240 919 QCURVE",
"-27 788 LINE",
"20 725 LINE",
"42 738 LINE SMOOTH",
"58 748 OFFCURVE",
"72 748 QCURVE SMOOTH",
"73 748 OFFCURVE",
"75 748 QCURVE",
"77 747 LINE",
"81 743 LINE",
"215 706 OFFCURVE",
"341 425 QCURVE SMOOTH",
"397 300 OFFCURVE",
"496 3 QCURVE",
"568 3 LINE",
"656 149 OFFCURVE",
"827 460 OFFCURVE",
"900 587 OFFCURVE",
"917 597 QCURVE",
"951 594 OFFCURVE",
"1063 462 OFFCURVE",
"1210 177 OFFCURVE",
"1271 -6 QCURVE",
"1364 -6 LINE",
"1451 138 OFFCURVE",
"1732 533 OFFCURVE",
"1900 776 OFFCURVE",
"1900 810 QCURVE SMOOTH",
"1900 868 OFFCURVE",
"1782 938 OFFCURVE",
"1716 938 QCURVE SMOOTH",
"1698 938 OFFCURVE",
"1654 921 OFFCURVE",
"1618 899 OFFCURVE",
"1557 850 OFFCURVE",
"1520 817 OFFCURVE",
"1441 746 OFFCURVE",
"1420 727 QCURVE SMOOTH",
"1400 709 LINE",
"1463 638 LINE",
"1485 659 LINE",
"1519 694 OFFCURVE",
"1543 712 OFFCURVE",
"1555 713 QCURVE",
"1560 713 LINE SMOOTH",
"1630 713 OFFCURVE",
"1630 630 QCURVE SMOOTH",
"1630 583 OFFCURVE",
"1602 532 QCURVE",
"1444 287 LINE",
"1406 356 OFFCURVE",
"1293 582 OFFCURVE",
"1210 735 OFFCURVE",
"1175 784 QCURVE SMOOTH",
"1106 879 OFFCURVE",
"1049 879 QCURVE SMOOTH",
"1046 879 OFFCURVE",
"1046 879 QCURVE SMOOTH"
);
}
);
width = 1981;
}
);
note = w;
unicode = 0077;
},
{
glyphname = x;
lastChange = "2018-07-29 15:09:15 +0000";
layers = (
{
layerId = "C33DBFF5-9F9F-4FD4-87E4-27DD273F2A02";
paths = (
{
closed = 1;
nodes = (
"84 28 OFFCURVE",
"330 10 QCURVE",
"543 135 LINE",
"434 186 LINE",
"387 223 OFFCURVE",
"387 254 QCURVE SMOOTH",
"387 267 OFFCURVE",
"400 293 OFFCURVE",
"431 324 OFFCURVE",
"452 343 OFFCURVE",
"501 383 OFFCURVE",
"510 390 QCURVE",
"748 41 LINE",
"783 -6 OFFCURVE",
"844 -6 QCURVE SMOOTH",
"877 -6 OFFCURVE",
"971 48 OFFCURVE",
"1109 145 QCURVE",
"1083 227 LINE",
"1022 174 LINE",
"1019 174 LINE SMOOTH",
"996 174 OFFCURVE",
"929 217 OFFCURVE",
"900 255 QCURVE SMOOTH",
"700 528 LINE",
"1018 778 LINE",
"1038 791 OFFCURVE",
"1059 817 OFFCURVE",
"1061 827 OFFCURVE",
"1063 839 QCURVE",
"1063 874 OFFCURVE",
"1002 910 QCURVE",
"877 963 LINE",
"697 824 LINE",
"725 803 LINE SMOOTH",
"797 750 OFFCURVE",
"797 718 QCURVE SMOOTH",
"797 699 OFFCURVE",
"775 676 QCURVE SMOOTH",
"754 655 OFFCURVE",
"650 582 QCURVE",
"460 879 LINE SMOOTH",
"420 938 OFFCURVE",
"381 938 QCURVE SMOOTH",
"357 938 OFFCURVE",
"329 924 QCURVE SMOOTH",
"13 754 LINE",
"63 697 LINE",
"82 706 LINE SMOOTH",
"141 734 OFFCURVE",
"186 734 QCURVE SMOOTH",
"234 734 OFFCURVE",
"253 704 QCURVE",
"458 436 LINE",
"122 183 LINE",
"84 152 OFFCURVE",
"84 118 QCURVE SMOOTH"
);
}
);
width = 1197;
}
);
note = x;
unicode = 0078;
},
{
glyphname = y;
lastChange = "2018-07-29 15:09:15 +0000";
layers = (
{
layerId = "C33DBFF5-9F9F-4FD4-87E4-27DD273F2A02";
paths = (
{
closed = 1;
nodes = (
"409 -5 OFFCURVE",
"456 9 QCURVE SMOOTH",
"521 28 OFFCURVE",
"638 115 OFFCURVE",
"730 235 OFFCURVE",
"797 352 OFFCURVE",
"826 418 QCURVE",
"826 -234 LINE SMOOTH",
"826 -259 OFFCURVE",
"736 -306 OFFCURVE",
"670 -319 QCURVE SMOOTH",
"646 -323 LINE",
"646 -431 LINE",
"680 -427 LINE",
"706 -423 OFFCURVE",
"817 -413 OFFCURVE",
"890 -405 OFFCURVE",
"986 -381 OFFCURVE",
"1044 -349 OFFCURVE",
"1085 -290 OFFCURVE",
"1085 -250 QCURVE SMOOTH",
"1085 -247 LINE",
"1084 -192 OFFCURVE",
"1073 148 OFFCURVE",
"1073 302 QCURVE SMOOTH",
"1073 551 LINE SMOOTH",
"1073 611 OFFCURVE",
"1075 855 OFFCURVE",
"1075 916 QCURVE SMOOTH",
"1075 976 LINE",
"839 790 LINE",
"839 778 LINE SMOOTH",
"839 712 OFFCURVE",
"742 483 OFFCURVE",
"607 299 OFFCURVE",
"560 296 QCURVE",
"535 296 OFFCURVE",
"496 338 OFFCURVE",
"470 415 OFFCURVE",
"452 504 OFFCURVE",
"439 616 OFFCURVE",
"431 709 OFFCURVE",
"422 815 OFFCURVE",
"419 843 QCURVE",
"419 896 OFFCURVE",
"394 918 QCURVE",
"376 935 OFFCURVE",
"326 935 OFFCURVE",
"278 907 QCURVE",
"-15 715 LINE",
"44 650 LINE",
"64 662 LINE",
"104 684 OFFCURVE",
"135 684 QCURVE SMOOTH",
"152 684 OFFCURVE",
"171 677 OFFCURVE",
"191 637 OFFCURVE",
"196 598 QCURVE",
"213 521 OFFCURVE",
"235 274 OFFCURVE",
"260 87 OFFCURVE",
"287 42 QCURVE SMOOTH",
"314 -5 OFFCURVE",
"361 -5 QCURVE SMOOTH"
);
}
);
width = 1196;
}
);
note = y;
unicode = 0079;
},
{
glyphname = z;
lastChange = "2018-07-29 15:09:15 +0000";
layers = (
{
layerId = "C33DBFF5-9F9F-4FD4-87E4-27DD273F2A02";
paths = (
{
closed = 1;
nodes = (
"460 698 LINE",
"123 258 LINE",
"114 243 OFFCURVE",
"71 192 OFFCURVE",
"47 143 OFFCURVE",
"47 109 QCURVE SMOOTH",
"47 44 OFFCURVE",
"221 0 OFFCURVE",
"422 0 QCURVE SMOOTH",
"574 0 LINE",
"858 256 LINE",
"796 256 LINE SMOOTH",
"767 256 OFFCURVE",
"608 245 OFFCURVE",
"542 245 QCURVE SMOOTH",
"461 245 OFFCURVE",
"353 285 OFFCURVE",
"353 317 QCURVE SMOOTH",
"353 344 OFFCURVE",
"396 402 QCURVE",
"442 485 OFFCURVE",
"568 649 OFFCURVE",
"768 875 OFFCURVE",
"802 916 QCURVE SMOOTH",
"847 974 LINE",
"775 959 LINE SMOOTH",
"612 927 OFFCURVE",
"423 927 QCURVE SMOOTH",
"359 927 OFFCURVE",
"308 964 OFFCURVE",
"308 1010 QCURVE SMOOTH",
"308 1064 LINE",
"260 1033 LINE",
"219 1004 OFFCURVE",
"160 958 OFFCURVE",
"79 882 OFFCURVE",
"35 802 OFFCURVE",
"35 764 QCURVE SMOOTH",
"35 698 OFFCURVE",
"124 698 QCURVE SMOOTH",
"130 698 OFFCURVE",
"130 698 QCURVE"
);
}
);
width = 902;
}
);
note = z;
unicode = 007A;
},
{
glyphname = braceleft;
lastChange = "2018-07-29 15:09:15 +0000";
layers = (
{
layerId = "C33DBFF5-9F9F-4FD4-87E4-27DD273F2A02";
paths = (
{
closed = 1;
nodes = (
"447 -92 OFFCURVE",
"394 -20 OFFCURVE",
"394 68 QCURVE SMOOTH",
"394 362 LINE SMOOTH",
"394 466 OFFCURVE",
"291 585 OFFCURVE",
"203 616 QCURVE",
"276 639 OFFCURVE",
"332 691 QCURVE SMOOTH",
"394 747 OFFCURVE",
"394 866 QCURVE SMOOTH",
"394 1161 LINE SMOOTH",
"394 1320 OFFCURVE",
"498 1320 QCURVE SMOOTH",
"610 1320 LINE",
"610 1472 LINE",
"412 1472 LINE SMOOTH",
"383 1472 OFFCURVE",
"320 1454 OFFCURVE",
"254 1411 OFFCURVE",
"202 1349 OFFCURVE",
"168 1253 OFFCURVE",
"168 1196 QCURVE SMOOTH",
"168 889 LINE SMOOTH",
"168 805 OFFCURVE",
"69 708 OFFCURVE",
"7 698 QCURVE SMOOTH",
"-16 695 LINE",
"-16 534 LINE",
"7 531 LINE SMOOTH",
"69 521 OFFCURVE",
"168 423 OFFCURVE",
"168 340 QCURVE SMOOTH",
"168 33 LINE SMOOTH",
"168 -38 OFFCURVE",
"219 -150 OFFCURVE",
"297 -212 OFFCURVE",
"377 -244 OFFCURVE",
"412 -244 QCURVE SMOOTH",
"610 -244 LINE",
"610 -92 LINE",
"498 -92 LINE SMOOTH"
);
}
);
width = 716;
}
);
note = braceleft;
unicode = 007B;
},
{
glyphname = bar;
lastChange = "2018-07-29 15:09:15 +0000";
layers = (
{
layerId = "C33DBFF5-9F9F-4FD4-87E4-27DD273F2A02";
paths = (
{
closed = 1;
nodes = (
"250 1488 LINE",
"68 1488 LINE",
"68 -28 LINE",
"250 -28 LINE"
);
}
);
width = 357;
}
);
note = bar;
unicode = 007C;
},
{
glyphname = braceright;
lastChange = "2018-07-29 15:09:15 +0000";
layers = (
{
layerId = "C33DBFF5-9F9F-4FD4-87E4-27DD273F2A02";
paths = (
{
closed = 1;
nodes = (
"463 702 OFFCURVE",
"366 804 OFFCURVE",
"366 889 QCURVE SMOOTH",
"366 1196 LINE SMOOTH",
"366 1265 OFFCURVE",
"316 1373 OFFCURVE",
"241 1432 OFFCURVE",
"164 1462 OFFCURVE",
"131 1462 QCURVE SMOOTH",
"-56 1462 LINE",
"-56 1330 LINE",
"45 1330 LINE SMOOTH",
"100 1330 OFFCURVE",
"158 1253 OFFCURVE",
"158 1161 QCURVE SMOOTH",
"158 866 LINE SMOOTH",
"158 765 OFFCURVE",
"260 651 OFFCURVE",
"351 619 QCURVE SMOOTH",
"374 611 LINE",
"350 605 LINE SMOOTH",
"274 584 OFFCURVE",
"218 531 QCURVE SMOOTH",
"158 477 OFFCURVE",
"158 362 QCURVE SMOOTH",
"158 68 LINE SMOOTH",
"158 -102 OFFCURVE",
"45 -102 QCURVE SMOOTH",
"-56 -102 LINE",
"-56 -234 LINE",
"131 -234 LINE SMOOTH",
"165 -234 OFFCURVE",
"242 -204 OFFCURVE",
"317 -144 OFFCURVE",
"366 -36 OFFCURVE",
"366 33 QCURVE SMOOTH",
"366 340 LINE SMOOTH",
"366 425 OFFCURVE",
"463 528 OFFCURVE",
"527 540 QCURVE SMOOTH",
"550 544 LINE",
"550 686 LINE",
"527 690 LINE SMOOTH"
);
}
);
width = 631;
}
);
note = braceright;
unicode = 007D;
},
{
glyphname = asciitilde;
lastChange = "2018-07-29 15:09:15 +0000";
layers = (
{
layerId = "C33DBFF5-9F9F-4FD4-87E4-27DD273F2A02";
paths = (
{
closed = 1;
nodes = (
"-3 358 LINE",
"25 396 LINE SMOOTH",
"67 453 OFFCURVE",
"137 496 OFFCURVE",
"176 496 QCURVE SMOOTH",
"217 496 OFFCURVE",
"328 453 OFFCURVE",
"424 401 OFFCURVE",
"554 358 OFFCURVE",
"612 358 QCURVE SMOOTH",
"694 358 OFFCURVE",
"809 433 OFFCURVE",
"859 526 QCURVE",
"795 679 LINE",
"766 640 LINE SMOOTH",
"723 582 OFFCURVE",
"654 540 OFFCURVE",
"615 540 QCURVE SMOOTH",
"573 540 OFFCURVE",
"462 583 OFFCURVE",
"367 635 OFFCURVE",
"237 678 OFFCURVE",
"178 678 QCURVE SMOOTH",
"96 678 OFFCURVE",
"-19 603 OFFCURVE",
"-70 509 QCURVE"
);
}
);
width = 938;
}
);
note = asciitilde;
unicode = 007E;
},
{
glyphname = sheva;
lastChange = "2018-07-29 15:09:15 +0000";
layers = (
{
layerId = "C33DBFF5-9F9F-4FD4-87E4-27DD273F2A02";
paths = (
{
closed = 1;
nodes = (
"42 -588 OFFCURVE",
"98 -526 OFFCURVE",
"98 -479 QCURVE SMOOTH",
"98 -433 OFFCURVE",
"44 -369 OFFCURVE",
"0 -369 QCURVE SMOOTH",
"-42 -369 OFFCURVE",
"-98 -432 OFFCURVE",
"-98 -479 QCURVE SMOOTH",
"-98 -524 OFFCURVE",
"-44 -588 OFFCURVE",
"0 -588 QCURVE SMOOTH"
);
},
{
closed = 1;
nodes = (
"42 -334 OFFCURVE",
"98 -272 OFFCURVE",
"98 -225 QCURVE SMOOTH",
"98 -179 OFFCURVE",
"44 -115 OFFCURVE",
"0 -115 QCURVE SMOOTH",
"-42 -115 OFFCURVE",
"-98 -178 OFFCURVE",
"-98 -225 QCURVE SMOOTH",
"-98 -270 OFFCURVE",
"-44 -334 OFFCURVE",
"0 -334 QCURVE SMOOTH"
);
}
);
width = 0;
}
);
note = sheva;
unicode = 05B0;
},
{
glyphname = hatafsegol;
lastChange = "2018-07-29 15:09:15 +0000";
layers = (
{
layerId = "C33DBFF5-9F9F-4FD4-87E4-27DD273F2A02";
paths = (
{
closed = 1;
nodes = (
"277 -587 OFFCURVE",
"332 -525 OFFCURVE",
"332 -478 QCURVE SMOOTH",
"332 -432 OFFCURVE",
"278 -368 OFFCURVE",
"235 -368 QCURVE SMOOTH",
"193 -368 OFFCURVE",
"138 -431 OFFCURVE",
"138 -478 QCURVE SMOOTH",
"138 -523 OFFCURVE",
"191 -587 OFFCURVE",
"235 -587 QCURVE SMOOTH"
);
},
{
closed = 1;
nodes = (
"277 -333 OFFCURVE",
"332 -271 OFFCURVE",
"332 -224 QCURVE SMOOTH",
"332 -178 OFFCURVE",
"278 -114 OFFCURVE",
"235 -114 QCURVE SMOOTH",
"193 -114 OFFCURVE",
"138 -177 OFFCURVE",
"138 -224 QCURVE SMOOTH",
"138 -269 OFFCURVE",
"191 -333 OFFCURVE",
"235 -333 QCURVE SMOOTH"
);
},
{
closed = 1;
nodes = (
"-39 -114 OFFCURVE",
"-94 -177 OFFCURVE",
"-94 -224 QCURVE SMOOTH",
"-94 -269 OFFCURVE",
"-41 -333 OFFCURVE",
"3 -333 QCURVE SMOOTH",
"45 -333 OFFCURVE",
"100 -271 OFFCURVE",
"100 -224 QCURVE SMOOTH",
"100 -178 OFFCURVE",
"46 -114 OFFCURVE",
"3 -114 QCURVE SMOOTH"
);
},
{
closed = 1;
nodes = (
"-158 -368 OFFCURVE",
"-212 -431 OFFCURVE",
"-212 -478 QCURVE SMOOTH",
"-212 -523 OFFCURVE",
"-158 -587 OFFCURVE",
"-116 -587 QCURVE SMOOTH",
"-73 -587 OFFCURVE",
"-18 -525 OFFCURVE",
"-18 -478 QCURVE SMOOTH",
"-18 -432 OFFCURVE",
"-72 -368 OFFCURVE",
"-116 -368 QCURVE SMOOTH"
);
},
{
closed = 1;
nodes = (
"-276 -114 OFFCURVE",
"-330 -177 OFFCURVE",
"-330 -224 QCURVE SMOOTH",
"-330 -269 OFFCURVE",
"-276 -333 OFFCURVE",
"-192 -333 OFFCURVE",
"-136 -271 OFFCURVE",
"-136 -224 QCURVE SMOOTH",
"-136 -178 OFFCURVE",
"-190 -114 OFFCURVE",
"-234 -114 QCURVE SMOOTH"
);
}
);
width = 0;
}
);
note = hatafsegol;
unicode = 05B1;
},
{
glyphname = hatafpatah;
lastChange = "2018-07-29 15:09:15 +0000";
layers = (
{
layerId = "C33DBFF5-9F9F-4FD4-87E4-27DD273F2A02";
paths = (
{
closed = 1;
nodes = (
"62 -139 LINE",
"-290 -139 LINE",
"-290 -288 LINE",
"62 -288 LINE"
);
},
{
closed = 1;
nodes = (
"243 -587 OFFCURVE",
"298 -525 OFFCURVE",
"298 -478 QCURVE SMOOTH",
"298 -432 OFFCURVE",
"245 -368 OFFCURVE",
"201 -368 QCURVE SMOOTH",
"159 -368 OFFCURVE",
"104 -431 OFFCURVE",
"104 -478 QCURVE SMOOTH",
"104 -523 OFFCURVE",
"158 -587 OFFCURVE",
"201 -587 QCURVE SMOOTH"
);
},
{
closed = 1;
nodes = (
"243 -333 OFFCURVE",
"298 -271 OFFCURVE",
"298 -224 QCURVE SMOOTH",
"298 -178 OFFCURVE",
"245 -114 OFFCURVE",
"201 -114 QCURVE SMOOTH",
"159 -114 OFFCURVE",
"104 -177 OFFCURVE",
"104 -224 QCURVE SMOOTH",
"104 -269 OFFCURVE",
"158 -333 OFFCURVE",
"201 -333 QCURVE SMOOTH"
);
}
);
width = 0;
}
);
note = hatafpatah;
unicode = 05B2;
},
{
glyphname = hatafqamats;
lastChange = "2018-07-29 15:09:15 +0000";
layers = (
{
layerId = "C33DBFF5-9F9F-4FD4-87E4-27DD273F2A02";
paths = (
{
closed = 1;
nodes = (
"-170 -349 OFFCURVE",
"-180 -372 QCURVE SMOOTH",
"-220 -471 LINE",
"-217 -481 LINE SMOOTH",
"-197 -546 OFFCURVE",
"-161 -577 QCURVE",
"-156 -581 LINE",
"-151 -583 LINE",
"-139 -587 OFFCURVE",
"-123 -587 QCURVE SMOOTH",
"-106 -587 OFFCURVE",
"-94 -583 QCURVE",
"-87 -581 LINE",
"-82 -576 LINE SMOOTH",
"-53 -548 OFFCURVE",
"-25 -483 QCURVE",
"-21 -472 LINE",
"-61 -373 LINE SMOOTH",
"-74 -339 OFFCURVE",
"-74 -296 QCURVE SMOOTH",
"-74 -294 OFFCURVE",
"-74 -294 QCURVE",
"-74 -288 LINE",
"54 -288 LINE",
"54 -139 LINE",
"-296 -139 LINE",
"-296 -288 LINE",
"-170 -288 LINE",
"-170 -298 LINE SMOOTH"
);
},
{
closed = 1;
nodes = (
"292 -432 OFFCURVE",
"238 -368 OFFCURVE",
"194 -368 QCURVE SMOOTH",
"152 -368 OFFCURVE",
"98 -431 OFFCURVE",
"98 -478 QCURVE SMOOTH",
"98 -523 OFFCURVE",
"152 -587 OFFCURVE",
"236 -587 OFFCURVE",
"292 -525 OFFCURVE",
"292 -478 QCURVE SMOOTH"
);
},
{
closed = 1;
nodes = (
"292 -178 OFFCURVE",
"238 -114 OFFCURVE",
"194 -114 QCURVE SMOOTH",
"152 -114 OFFCURVE",
"98 -177 OFFCURVE",
"98 -224 QCURVE SMOOTH",
"98 -269 OFFCURVE",
"152 -333 OFFCURVE",
"236 -333 OFFCURVE",
"292 -271 OFFCURVE",
"292 -224 QCURVE SMOOTH"
);
}
);
width = 0;
}
);
note = hatafqamats;
unicode = 05B3;
},
{
glyphname = hiriq;
lastChange = "2018-07-29 15:09:15 +0000";
layers = (
{
layerId = "C33DBFF5-9F9F-4FD4-87E4-27DD273F2A02";
paths = (
{
closed = 1;
nodes = (
"42 -334 OFFCURVE",
"98 -272 OFFCURVE",
"98 -225 QCURVE SMOOTH",
"98 -179 OFFCURVE",
"44 -115 OFFCURVE",
"0 -115 QCURVE SMOOTH",
"-42 -115 OFFCURVE",
"-98 -178 OFFCURVE",
"-98 -225 QCURVE SMOOTH",
"-98 -270 OFFCURVE",
"-44 -334 OFFCURVE",
"0 -334 QCURVE SMOOTH"
);
}
);
width = 0;
}
);
note = hiriq;
unicode = 05B4;
},
{
glyphname = tsere;
lastChange = "2018-07-29 15:09:15 +0000";
layers = (
{
layerId = "C33DBFF5-9F9F-4FD4-87E4-27DD273F2A02";
paths = (
{
closed = 1;
nodes = (
"206 -178 OFFCURVE",
"152 -114 OFFCURVE",
"108 -114 QCURVE SMOOTH",
"66 -114 OFFCURVE",
"10 -177 OFFCURVE",
"10 -224 QCURVE SMOOTH",
"10 -269 OFFCURVE",
"64 -333 OFFCURVE",
"108 -333 QCURVE SMOOTH",
"150 -333 OFFCURVE",
"206 -271 OFFCURVE",
"206 -224 QCURVE SMOOTH"
);
},
{
closed = 1;
nodes = (
"-10 -178 OFFCURVE",
"-64 -114 OFFCURVE",
"-108 -114 QCURVE SMOOTH",
"-150 -114 OFFCURVE",
"-206 -177 OFFCURVE",
"-206 -224 QCURVE SMOOTH",
"-206 -269 OFFCURVE",
"-152 -333 OFFCURVE",
"-108 -333 QCURVE SMOOTH",
"-66 -333 OFFCURVE",
"-10 -271 OFFCURVE",
"-10 -224 QCURVE SMOOTH"
);
}
);
width = 0;
}
);
note = tsere;
unicode = 05B5;
},
{
glyphname = segol;
lastChange = "2018-07-29 15:09:15 +0000";
layers = (
{
layerId = "C33DBFF5-9F9F-4FD4-87E4-27DD273F2A02";
paths = (
{
closed = 1;
nodes = (
"76 -114 OFFCURVE",
"20 -177 OFFCURVE",
"20 -224 QCURVE SMOOTH",
"20 -269 OFFCURVE",
"74 -333 OFFCURVE",
"118 -333 QCURVE SMOOTH",
"160 -333 OFFCURVE",
"216 -271 OFFCURVE",
"216 -224 QCURVE SMOOTH",
"216 -178 OFFCURVE",
"162 -114 OFFCURVE",
"118 -114 QCURVE SMOOTH"
);
},
{
closed = 1;
nodes = (
"-42 -358 OFFCURVE",
"-98 -421 OFFCURVE",
"-98 -468 QCURVE SMOOTH",
"-98 -513 OFFCURVE",
"-44 -577 OFFCURVE",
"0 -577 QCURVE SMOOTH",
"42 -577 OFFCURVE",
"98 -515 OFFCURVE",
"98 -468 QCURVE SMOOTH",
"98 -422 OFFCURVE",
"44 -358 OFFCURVE",
"0 -358 QCURVE SMOOTH"
);
},
{
closed = 1;
nodes = (
"-160 -114 OFFCURVE",
"-216 -177 OFFCURVE",
"-216 -224 QCURVE SMOOTH",
"-216 -269 OFFCURVE",
"-162 -333 OFFCURVE",
"-118 -333 QCURVE SMOOTH",
"-76 -333 OFFCURVE",
"-20 -271 OFFCURVE",
"-20 -224 QCURVE SMOOTH",
"-20 -178 OFFCURVE",
"-74 -114 OFFCURVE",
"-118 -114 QCURVE SMOOTH"
);
}
);
width = 0;
}
);
note = segol;
unicode = 05B6;
},
{
glyphname = patah;
lastChange = "2018-07-29 15:09:15 +0000";
layers = (
{
layerId = "C33DBFF5-9F9F-4FD4-87E4-27DD273F2A02";
paths = (
{
closed = 1;
nodes = (
"178 -115 LINE",
"-176 -115 LINE",
"-176 -264 LINE",
"178 -264 LINE"
);
}
);
width = 0;
}
);
note = patah;
unicode = 05B7;
},
{
glyphname = qamats;
lastChange = "2018-07-29 15:09:15 +0000";
layers = (
{
layerId = "C33DBFF5-9F9F-4FD4-87E4-27DD273F2A02";
paths = (
{
closed = 1;
nodes = (
"-98 -472 LINE",
"-95 -481 LINE SMOOTH",
"-74 -548 OFFCURVE",
"-38 -578 QCURVE",
"-34 -581 LINE",
"-29 -583 LINE",
"-16 -587 OFFCURVE",
"0 -587 QCURVE SMOOTH",
"14 -587 OFFCURVE",
"26 -584 QCURVE",
"34 -583 LINE",
"39 -577 LINE",
"74 -543 OFFCURVE",
"96 -482 QCURVE",
"99 -472 LINE",
"60 -373 LINE",
"48 -337 OFFCURVE",
"48 -298 QCURVE SMOOTH",
"48 -294 LINE",
"48 -288 LINE",
"176 -288 LINE",
"176 -139 LINE",
"-176 -139 LINE",
"-176 -288 LINE",
"-48 -288 LINE",
"-48 -298 LINE SMOOTH",
"-48 -307 OFFCURVE",
"-55 -362 OFFCURVE",
"-59 -371 QCURVE"
);
}
);
width = 0;
}
);
note = qamats;
unicode = 05B8;
},
{
glyphname = holam;
lastChange = "2018-07-29 15:09:15 +0000";
layers = (
{
layerId = "C33DBFF5-9F9F-4FD4-87E4-27DD273F2A02";
paths = (
{
closed = 1;
nodes = (
"42 1164 OFFCURVE",
"98 1226 OFFCURVE",
"98 1273 QCURVE SMOOTH",
"98 1319 OFFCURVE",
"44 1383 OFFCURVE",
"0 1383 QCURVE SMOOTH",
"-42 1383 OFFCURVE",
"-98 1320 OFFCURVE",
"-98 1273 QCURVE SMOOTH",
"-98 1228 OFFCURVE",
"-44 1164 OFFCURVE",
"0 1164 QCURVE SMOOTH"
);
}
);
width = 0;
}
);
note = holam;
unicode = 05B9;
},
{
glyphname = qubuts;
lastChange = "2018-07-29 15:09:15 +0000";
layers = (
{
layerId = "C33DBFF5-9F9F-4FD4-87E4-27DD273F2A02";
paths = (
{
closed = 1;
nodes = (
"-117 -323 OFFCURVE",
"-62 -262 OFFCURVE",
"-62 -216 QCURVE SMOOTH",
"-62 -172 OFFCURVE",
"-116 -109 OFFCURVE",
"-200 -109 OFFCURVE",
"-252 -172 OFFCURVE",
"-252 -260 OFFCURVE",
"-200 -323 OFFCURVE",
"-158 -323 QCURVE SMOOTH"
);
},
{
closed = 1;
nodes = (
"198 -591 OFFCURVE",
"252 -530 OFFCURVE",
"252 -484 QCURVE SMOOTH",
"252 -440 OFFCURVE",
"199 -377 OFFCURVE",
"115 -377 OFFCURVE",
"62 -440 OFFCURVE",
"62 -528 OFFCURVE",
"115 -591 OFFCURVE",
"157 -591 QCURVE SMOOTH"
);
},
{
closed = 1;
nodes = (
"41 -457 OFFCURVE",
"96 -396 OFFCURVE",
"96 -350 QCURVE SMOOTH",
"96 -306 OFFCURVE",
"42 -243 OFFCURVE",
"-42 -243 OFFCURVE",
"-94 -306 OFFCURVE",
"-94 -394 OFFCURVE",
"-42 -457 OFFCURVE",
"0 -457 QCURVE SMOOTH"
);
}
);
width = 0;
}
);
note = qubuts;
unicode = 05BB;
},
{
glyphname = dagesh;
lastChange = "2018-07-29 15:09:15 +0000";
layers = (
{
layerId = "C33DBFF5-9F9F-4FD4-87E4-27DD273F2A02";
paths = (
{
closed = 1;
nodes = (
"38 421 OFFCURVE",
"88 476 OFFCURVE",
"88 519 QCURVE SMOOTH",
"88 560 OFFCURVE",
"39 617 OFFCURVE",
"0 617 QCURVE SMOOTH",
"-38 617 OFFCURVE",
"-88 562 OFFCURVE",
"-88 519 QCURVE SMOOTH",
"-88 478 OFFCURVE",
"-39 421 OFFCURVE",
"0 421 QCURVE SMOOTH"
);
}
);
width = 0;
}
);
note = dagesh;
unicode = 05BC;
},
{
glyphname = meteg;
lastChange = "2018-07-29 15:09:15 +0000";
layers = (
{
layerId = "C33DBFF5-9F9F-4FD4-87E4-27DD273F2A02";
paths = (
{
closed = 1;
nodes = (
"74 -135 LINE",
"-74 -135 LINE",
"-74 -534 LINE",
"74 -534 LINE"
);
}
);
width = 0;
}
);
note = meteg;
unicode = 05BD;
},
{
glyphname = maqaf;
lastChange = "2018-07-29 15:09:15 +0000";
layers = (
{
layerId = "C33DBFF5-9F9F-4FD4-87E4-27DD273F2A02";
paths = (
{
closed = 1;
nodes = (
"141 1078 LINE",
"132 1066 LINE",
"131 1064 OFFCURVE",
"97 1019 OFFCURVE",
"83 998 OFFCURVE",
"58 951 OFFCURVE",
"50 928 QCURVE",
"50 926 OFFCURVE",
"46 921 OFFCURVE",
"46 920 QCURVE",
"41 909 OFFCURVE",
"39 887 QCURVE",
"39 867 OFFCURVE",
"47 850 QCURVE",
"62 815 OFFCURVE",
"99 804 QCURVE SMOOTH",
"105 802 OFFCURVE",
"124 801 OFFCURVE",
"128 800 QCURVE",
"516 800 LINE",
"524 808 LINE",
"588 867 OFFCURVE",
"622 953 QCURVE",
"637 979 OFFCURVE",
"637 1005 QCURVE SMOOTH",
"637 1034 OFFCURVE",
"600 1072 OFFCURVE",
"570 1076 QCURVE",
"562 1078 OFFCURVE",
"554 1078 QCURVE SMOOTH"
);
}
);
width = 686;
}
);
note = maqaf;
unicode = 05BE;
},
{
glyphname = rafe;
lastChange = "2018-07-29 15:09:15 +0000";
layers = (
{
layerId = "C33DBFF5-9F9F-4FD4-87E4-27DD273F2A02";
paths = (
{
closed = 1;
nodes = (
"222 1318 LINE",
"-222 1318 LINE",
"-222 1169 LINE",
"222 1169 LINE"
);
}
);
width = 0;
}
);
note = rafe;
unicode = 05BF;
},
{
glyphname = paseq;
lastChange = "2018-07-29 15:09:15 +0000";
layers = (
{
layerId = "C33DBFF5-9F9F-4FD4-87E4-27DD273F2A02";
paths = (
{
closed = 1;
nodes = (
"385 1230 LINE",
"207 1230 LINE",
"207 -163 LINE",
"385 -163 LINE"
);
}
);
width = 644;
}
);
note = paseq;
unicode = 05C0;
},
{
glyphname = shindot;
lastChange = "2018-07-29 15:09:15 +0000";
layers = (
{
layerId = "C33DBFF5-9F9F-4FD4-87E4-27DD273F2A02";
paths = (
{
closed = 1;
nodes = (
"42 1161 OFFCURVE",
"98 1223 OFFCURVE",
"98 1270 QCURVE SMOOTH",
"98 1316 OFFCURVE",
"44 1380 OFFCURVE",
"0 1380 QCURVE SMOOTH",
"-42 1380 OFFCURVE",
"-98 1317 OFFCURVE",
"-98 1270 QCURVE SMOOTH",
"-98 1225 OFFCURVE",
"-44 1161 OFFCURVE",
"0 1161 QCURVE SMOOTH"
);
}
);
width = 0;
}
);
note = shindot;
unicode = 05C1;
},
{
glyphname = sindot;
lastChange = "2018-07-29 15:09:15 +0000";
layers = (
{
layerId = "C33DBFF5-9F9F-4FD4-87E4-27DD273F2A02";
paths = (
{
closed = 1;
nodes = (
"42 1160 OFFCURVE",
"99 1223 OFFCURVE",
"99 1315 OFFCURVE",
"44 1379 OFFCURVE",
"0 1379 QCURVE SMOOTH",
"-42 1379 OFFCURVE",
"-97 1316 OFFCURVE",
"-97 1269 QCURVE SMOOTH",
"-97 1224 OFFCURVE",
"-44 1160 OFFCURVE",
"0 1160 QCURVE SMOOTH"
);
}
);
width = 0;
}
);
note = sindot;
unicode = 05C2;
},
{
glyphname = sofpasuq;
lastChange = "2018-07-29 15:09:15 +0000";
layers = (
{
layerId = "C33DBFF5-9F9F-4FD4-87E4-27DD273F2A02";
paths = (
{
closed = 1;
nodes = (
"101 179 LINE",
"90 163 OFFCURVE",
"89 157 QCURVE",
"89 138 LINE SMOOTH",
"89 84 OFFCURVE",
"182 -21 OFFCURVE",
"225 -21 QCURVE SMOOTH",
"238 -21 OFFCURVE",
"251 -16 QCURVE",
"440 111 LINE",
"315 216 OFFCURVE",
"286 324 QCURVE"
);
},
{
closed = 1;
nodes = (
"101 852 LINE",
"90 836 OFFCURVE",
"89 830 QCURVE",
"89 827 OFFCURVE",
"89 821 OFFCURVE",
"89 813 OFFCURVE",
"89 811 QCURVE SMOOTH",
"89 757 OFFCURVE",
"182 652 OFFCURVE",
"225 652 QCURVE SMOOTH",
"238 652 OFFCURVE",
"251 657 QCURVE",
"440 784 LINE",
"315 889 OFFCURVE",
"286 997 QCURVE"
);
}
);
width = 545;
}
);
note = sofpasuq;
unicode = 05C3;
},
{
glyphname = invertednun;
lastChange = "2018-07-29 15:09:15 +0000";
layers = (
{
layerId = "C33DBFF5-9F9F-4FD4-87E4-27DD273F2A02";
paths = (
{
closed = 1;
nodes = (
"677 -5 OFFCURVE",
"677 70 QCURVE SMOOTH",
"677 168 OFFCURVE",
"628 223 QCURVE",
"607 223 LINE SMOOTH",
"509 223 OFFCURVE",
"409 278 QCURVE",
"409 381 LINE",
"416 438 OFFCURVE",
"416 515 QCURVE SMOOTH",
"416 557 LINE SMOOTH",
"416 675 OFFCURVE",
"437 769 QCURVE",
"477 796 OFFCURVE",
"521 812 OFFCURVE",
"549 812 QCURVE SMOOTH",
"602 812 LINE",
"641 892 OFFCURVE",
"641 1093 QCURVE SMOOTH",
"641 1179 LINE",
"590 1107 LINE SMOOTH",
"560 1065 OFFCURVE",
"431 1065 QCURVE SMOOTH",
"392 1065 OFFCURVE",
"378 1067 QCURVE",
"358 1068 OFFCURVE",
"274 1089 OFFCURVE",
"254 1089 QCURVE SMOOTH",
"236 1089 OFFCURVE",
"224 1084 QCURVE",
"204 1048 LINE",
"187 1007 OFFCURVE",
"182 857 OFFCURVE",
"182 855 QCURVE SMOOTH",
"182 806 LINE SMOOTH",
"182 801 OFFCURVE",
"210 789 OFFCURVE",
"257 781 OFFCURVE",
"282 781 QCURVE SMOOTH",
"295 781 LINE",
"293 776 OFFCURVE",
"271 724 OFFCURVE",
"262 695 OFFCURVE",
"262 685 QCURVE SMOOTH",
"262 614 OFFCURVE",
"224 455 OFFCURVE",
"166 276 OFFCURVE",
"155 224 QCURVE",
"155 214 LINE",
"174 127 OFFCURVE",
"206 82 QCURVE",
"206 75 LINE",
"246 51 OFFCURVE",
"333 13 OFFCURVE",
"435 -14 OFFCURVE",
"504 -29 OFFCURVE",
"622 -51 OFFCURVE",
"645 -56 QCURVE"
);
}
);
width = 706;
}
);
note = invertednun;
unicode = 05C6;
},
{
glyphname = qamatskatan;
lastChange = "2018-07-29 15:09:15 +0000";
layers = (
{
layerId = "C33DBFF5-9F9F-4FD4-87E4-27DD273F2A02";
paths = (
{
closed = 1;
nodes = (
"-98 -503 LINE",
"-95 -512 LINE SMOOTH",
"-74 -579 OFFCURVE",
"-38 -609 QCURVE",
"-34 -612 LINE",
"-29 -614 LINE",
"-16 -618 OFFCURVE",
"0 -618 QCURVE SMOOTH",
"14 -618 OFFCURVE",
"26 -615 QCURVE",
"34 -614 LINE",
"39 -608 LINE",
"74 -574 OFFCURVE",
"96 -513 QCURVE",
"99 -472 LINE",
"60 -373 LINE",
"48 -337 OFFCURVE",
"48 -298 QCURVE SMOOTH",
"48 -294 LINE",
"48 -288 LINE",
"150 -288 LINE",
"150 -139 LINE",
"-150 -139 LINE",
"-150 -288 LINE",
"-48 -288 LINE",
"-48 -298 LINE SMOOTH",
"-48 -307 OFFCURVE",
"-55 -362 OFFCURVE",
"-59 -371 QCURVE"
);
}
);
width = 0;
}
);
note = qamatskatan;
unicode = 05C7;
},
{
glyphname = alef;
lastChange = "2018-07-29 15:09:15 +0000";
layers = (
{
layerId = "C33DBFF5-9F9F-4FD4-87E4-27DD273F2A02";
paths = (
{
closed = 1;
nodes = (
"140 -51 LINE",
"166 -37 LINE SMOOTH",
"250 11 OFFCURVE",
"379 60 OFFCURVE",
"451 60 QCURVE",
"481 82 LINE",
"486 106 LINE",
"492 129 OFFCURVE",
"515 248 OFFCURVE",
"527 319 QCURVE SMOOTH",
"537 379 LINE",
"480 347 LINE SMOOTH",
"439 324 OFFCURVE",
"403 324 QCURVE SMOOTH",
"347 324 OFFCURVE",
"231 411 OFFCURVE",
"231 483 QCURVE SMOOTH",
"231 556 OFFCURVE",
"292 656 OFFCURVE",
"324 659 QCURVE",
"335 656 OFFCURVE",
"351 645 OFFCURVE",
"358 635 OFFCURVE",
"369 618 OFFCURVE",
"371 615 QCURVE",
"439 521 OFFCURVE",
"581 352 OFFCURVE",
"723 209 OFFCURVE",
"812 124 OFFCURVE",
"942 9 OFFCURVE",
"952 0 QCURVE",
"963 0 LINE SMOOTH",
"980 0 OFFCURVE",
"989 17 QCURVE SMOOTH",
"1003 42 OFFCURVE",
"1051 189 OFFCURVE",
"1064 267 QCURVE",
"1001 317 OFFCURVE",
"942 366 OFFCURVE",
"855 448 OFFCURVE",
"815 493 QCURVE",
"904 592 OFFCURVE",
"913 779 QCURVE",
"942 774 LINE",
"1018 836 OFFCURVE",
"1064 970 QCURVE SMOOTH",
"1072 992 LINE",
"1052 1003 LINE SMOOTH",
"917 1080 OFFCURVE",
"844 1176 QCURVE SMOOTH",
"820 1208 LINE",
"796 1174 LINE SMOOTH",
"745 1102 OFFCURVE",
"677 950 QCURVE SMOOTH",
"668 929 LINE",
"688 917 LINE SMOOTH",
"767 870 OFFCURVE",
"767 797 QCURVE SMOOTH",
"767 693 OFFCURVE",
"686 627 QCURVE",
"561 770 OFFCURVE",
"382 1014 OFFCURVE",
"329 1138 QCURVE SMOOTH",
"310 1182 LINE",
"125 960 LINE",
"212 861 LINE",
"68 634 OFFCURVE",
"68 419 QCURVE SMOOTH",
"68 358 OFFCURVE",
"131 225 OFFCURVE",
"178 175 QCURVE",
"152 140 OFFCURVE",
"120 84 OFFCURVE",
"110 53 OFFCURVE",
"104 29 QCURVE"
);
}
);
width = 1154;
}
);
note = alef;
unicode = 05D0;
},
{
glyphname = bet;
lastChange = "2018-07-29 15:09:15 +0000";
layers = (
{
layerId = "C33DBFF5-9F9F-4FD4-87E4-27DD273F2A02";
paths = (
{
closed = 1;
nodes = (
"418 1052 LINE SMOOTH",
"331 1052 OFFCURVE",
"252 1138 QCURVE",
"232 1158 LINE",
"212 1138 LINE",
"142 1074 OFFCURVE",
"105 938 QCURVE",
"139 906 LINE",
"175 800 LINE",
"607 800 LINE",
"626 792 OFFCURVE",
"648 758 OFFCURVE",
"653 735 OFFCURVE",
"653 726 QCURVE SMOOTH",
"653 290 LINE",
"311 238 OFFCURVE",
"186 238 QCURVE SMOOTH",
"159 238 OFFCURVE",
"127 242 QCURVE SMOOTH",
"105 244 LINE",
"97 222 LINE SMOOTH",
"48 81 OFFCURVE",
"48 -42 QCURVE SMOOTH",
"48 -70 LINE",
"76 -70 LINE SMOOTH",
"181 -70 OFFCURVE",
"405 -52 OFFCURVE",
"544 -35 OFFCURVE",
"847 10 OFFCURVE",
"920 20 QCURVE",
"932 42 OFFCURVE",
"950 88 OFFCURVE",
"962 119 OFFCURVE",
"975 179 OFFCURVE",
"980 204 OFFCURVE",
"995 289 OFFCURVE",
"998 306 QCURVE SMOOTH",
"1004 342 LINE",
"875 320 LINE",
"857 375 OFFCURVE",
"847 492 OFFCURVE",
"847 596 QCURVE SMOOTH",
"847 650 LINE",
"847 678 LINE SMOOTH",
"847 724 OFFCURVE",
"846 782 OFFCURVE",
"839 871 OFFCURVE",
"826 929 OFFCURVE",
"801 997 OFFCURVE",
"766 1036 OFFCURVE",
"712 1062 OFFCURVE",
"677 1062 QCURVE SMOOTH",
"675 1062 LINE",
"598 1052 OFFCURVE",
"498 1052 QCURVE SMOOTH"
);
}
);
width = 1005;
}
);
note = bet;
unicode = 05D1;
},
{
glyphname = gimel;
lastChange = "2018-07-29 15:09:15 +0000";
layers = (
{
layerId = "C33DBFF5-9F9F-4FD4-87E4-27DD273F2A02";
paths = (
{
closed = 1;
nodes = (
"594 367 OFFCURVE",
"568 391 OFFCURVE",
"543 444 OFFCURVE",
"532 476 OFFCURVE",
"505 566 OFFCURVE",
"499 583 QCURVE",
"499 586 OFFCURVE",
"484 667 OFFCURVE",
"484 687 QCURVE SMOOTH",
"484 719 OFFCURVE",
"494 748 QCURVE",
"497 753 OFFCURVE",
"526 800 OFFCURVE",
"540 828 OFFCURVE",
"562 870 OFFCURVE",
"572 904 OFFCURVE",
"572 917 QCURVE SMOOTH",
"572 938 OFFCURVE",
"557 973 OFFCURVE",
"527 998 OFFCURVE",
"498 1016 OFFCURVE",
"450 1031 OFFCURVE",
"420 1038 OFFCURVE",
"369 1049 OFFCURVE",
"361 1051 QCURVE",
"341 1060 OFFCURVE",
"309 1108 OFFCURVE",
"309 1124 QCURVE",
"305 1157 LINE",
"267 1131 LINE",
"181 1077 OFFCURVE",
"153 999 QCURVE SMOOTH",
"141 964 OFFCURVE",
"141 923 QCURVE SMOOTH",
"141 891 OFFCURVE",
"153 827 QCURVE",
"198 809 OFFCURVE",
"258 791 OFFCURVE",
"286 785 OFFCURVE",
"330 778 QCURVE",
"320 706 OFFCURVE",
"320 634 QCURVE SMOOTH",
"320 539 OFFCURVE",
"359 412 QCURVE",
"240 376 OFFCURVE",
"103 278 OFFCURVE",
"34 121 OFFCURVE",
"33 0 QCURVE",
"95 -74 LINE",
"115 -46 LINE",
"131 -21 OFFCURVE",
"182 61 OFFCURVE",
"205 97 OFFCURVE",
"243 148 OFFCURVE",
"271 169 OFFCURVE",
"309 185 OFFCURVE",
"331 185 QCURVE SMOOTH",
"375 185 OFFCURVE",
"476 71 OFFCURVE",
"523 -49 QCURVE",
"539 -78 LINE",
"568 -49 LINE SMOOTH",
"569 -48 OFFCURVE",
"582 -37 OFFCURVE",
"595 -24 OFFCURVE",
"618 0 OFFCURVE",
"629 14 QCURVE",
"631 10 LINE",
"648 61 OFFCURVE",
"660 120 OFFCURVE",
"660 168 QCURVE SMOOTH",
"660 313 OFFCURVE",
"612 361 QCURVE"
);
}
);
width = 696;
}
);
note = gimel;
unicode = 05D2;
},
{
glyphname = dalet;
lastChange = "2018-07-29 15:09:15 +0000";
layers = (
{
layerId = "C33DBFF5-9F9F-4FD4-87E4-27DD273F2A02";
paths = (
{
closed = 1;
nodes = (
"649 369 OFFCURVE",
"672 164 OFFCURVE",
"672 17 QCURVE",
"732 -27 LINE",
"750 0 LINE",
"806 74 OFFCURVE",
"861 195 OFFCURVE",
"861 268 QCURVE SMOOTH",
"861 340 OFFCURVE",
"796 639 OFFCURVE",
"796 689 QCURVE SMOOTH",
"796 725 OFFCURVE",
"870 810 OFFCURVE",
"924 823 QCURVE SMOOTH",
"945 828 LINE",
"945 848 LINE SMOOTH",
"945 966 OFFCURVE",
"885 1072 QCURVE",
"741 1052 OFFCURVE",
"506 1052 QCURVE SMOOTH",
"476 1052 LINE SMOOTH",
"407 1052 OFFCURVE",
"313 1060 QCURVE",
"289 1064 OFFCURVE",
"255 1082 OFFCURVE",
"241 1100 OFFCURVE",
"218 1131 OFFCURVE",
"209 1141 QCURVE",
"189 1161 LINE",
"169 1141 LINE SMOOTH",
"123 1096 OFFCURVE",
"78 1011 OFFCURVE",
"62 950 QCURVE",
"96 917 LINE",
"129 817 LINE",
"186 789 OFFCURVE",
"381 789 QCURVE SMOOTH",
"530 789 OFFCURVE",
"616 798 QCURVE",
"598 743 OFFCURVE",
"598 672 QCURVE SMOOTH",
"598 604 LINE SMOOTH",
"598 542 OFFCURVE",
"612 489 QCURVE"
);
}
);
width = 1019;
}
);
note = dalet;
unicode = 05D3;
},
{
glyphname = he;
lastChange = "2018-07-29 15:09:15 +0000";
layers = (
{
layerId = "C33DBFF5-9F9F-4FD4-87E4-27DD273F2A02";
paths = (
{
closed = 1;
nodes = (
"286 733 LINE",
"124 557 OFFCURVE",
"124 304 QCURVE SMOOTH",
"124 213 OFFCURVE",
"159 19 QCURVE",
"242 -22 LINE",
"255 0 LINE SMOOTH",
"288 54 OFFCURVE",
"371 280 QCURVE",
"326 326 OFFCURVE",
"301 405 OFFCURVE",
"301 488 QCURVE SMOOTH",
"301 512 OFFCURVE",
"301 512 QCURVE",
"301 591 OFFCURVE",
"344 762 QCURVE"
);
},
{
closed = 1;
nodes = (
"187 820 OFFCURVE",
"486 802 OFFCURVE",
"510 802 QCURVE SMOOTH",
"647 802 OFFCURVE",
"755 814 QCURVE",
"736 759 OFFCURVE",
"736 667 QCURVE SMOOTH",
"736 574 OFFCURVE",
"806 145 OFFCURVE",
"806 36 QCURVE SMOOTH",
"806 29 LINE",
"861 -19 LINE",
"879 5 LINE SMOOTH",
"934 78 OFFCURVE",
"990 202 OFFCURVE",
"990 348 OFFCURVE",
"925 659 OFFCURVE",
"925 710 QCURVE SMOOTH",
"925 750 OFFCURVE",
"954 809 OFFCURVE",
"983 834 OFFCURVE",
"1010 851 QCURVE",
"1010 865 LINE SMOOTH",
"1010 925 OFFCURVE",
"979 1019 OFFCURVE",
"945 1079 QCURVE",
"744 1052 OFFCURVE",
"610 1052 QCURVE SMOOTH",
"467 1052 OFFCURVE",
"341 1074 QCURVE SMOOTH",
"316 1079 OFFCURVE",
"275 1100 OFFCURVE",
"257 1115 OFFCURVE",
"223 1156 OFFCURVE",
"217 1162 QCURVE SMOOTH",
"197 1182 LINE",
"177 1163 LINE SMOOTH",
"131 1118 OFFCURVE",
"86 1035 OFFCURVE",
"70 976 QCURVE",
"104 943 LINE",
"136 820 LINE",
"157 820 LINE SMOOTH"
);
}
);
width = 1091;
}
);
note = he;
unicode = 05D4;
},
{
glyphname = vav;
lastChange = "2018-07-29 15:09:15 +0000";
layers = (
{
layerId = "C33DBFF5-9F9F-4FD4-87E4-27DD273F2A02";
paths = (
{
closed = 1;
nodes = (
"351 -54 LINE",
"382 -12 LINE SMOOTH",
"393 3 OFFCURVE",
"413 37 OFFCURVE",
"428 76 OFFCURVE",
"440 106 OFFCURVE",
"451 150 OFFCURVE",
"456 170 OFFCURVE",
"465 211 OFFCURVE",
"466 214 QCURVE",
"466 246 OFFCURVE",
"468 434 OFFCURVE",
"468 487 QCURVE SMOOTH",
"468 587 LINE",
"468 650 LINE SMOOTH",
"468 700 OFFCURVE",
"465 774 OFFCURVE",
"456 876 OFFCURVE",
"436 948 OFFCURVE",
"405 1015 OFFCURVE",
"354 1051 OFFCURVE",
"320 1052 QCURVE",
"288 1060 OFFCURVE",
"254 1078 OFFCURVE",
"243 1093 OFFCURVE",
"222 1130 OFFCURVE",
"209 1146 QCURVE",
"189 1166 LINE",
"169 1146 LINE",
"93 1076 OFFCURVE",
"66 978 QCURVE",
"62 950 LINE",
"96 916 LINE",
"101 900 OFFCURVE",
"129 824 OFFCURVE",
"133 802 QCURVE",
"258 802 LINE SMOOTH",
"281 802 OFFCURVE",
"285 806 QCURVE",
"303 74 OFFCURVE",
"303 74 QCURVE"
);
}
);
width = 546;
}
);
note = vav;
unicode = 05D5;
},
{
glyphname = zayin;
lastChange = "2018-07-29 15:09:15 +0000";
layers = (
{
layerId = "C33DBFF5-9F9F-4FD4-87E4-27DD273F2A02";
paths = (
{
closed = 1;
nodes = (
"117 494 LINE",
"221 223 OFFCURVE",
"267 11 QCURVE",
"284 -51 LINE",
"383 143 LINE SMOOTH",
"401 178 OFFCURVE",
"410 220 OFFCURVE",
"410 276 QCURVE SMOOTH",
"410 350 OFFCURVE",
"383 462 OFFCURVE",
"339 594 OFFCURVE",
"327 660 QCURVE SMOOTH",
"308 764 OFFCURVE",
"307 794 QCURVE",
"489 709 LINE",
"489 742 LINE",
"491 754 OFFCURVE",
"519 881 OFFCURVE",
"519 915 QCURVE SMOOTH",
"519 951 OFFCURVE",
"506 986 QCURVE",
"506 981 LINE",
"497 985 OFFCURVE",
"432 1016 OFFCURVE",
"419 1023 OFFCURVE",
"367 1049 OFFCURVE",
"352 1058 OFFCURVE",
"309 1083 OFFCURVE",
"290 1098 OFFCURVE",
"253 1125 OFFCURVE",
"226 1150 OFFCURVE",
"191 1182 OFFCURVE",
"172 1201 QCURVE SMOOTH",
"141 1234 LINE",
"127 1201 LINE",
"93 1130 OFFCURVE",
"73 1028 OFFCURVE",
"73 958 QCURVE SMOOTH",
"73 933 LINE",
"84 918 OFFCURVE",
"95 903 OFFCURVE",
"111 884 OFFCURVE",
"116 879 OFFCURVE",
"135 864 OFFCURVE",
"144 859 OFFCURVE",
"176 838 OFFCURVE",
"187 831 QCURVE",
"182 817 OFFCURVE",
"141 717 OFFCURVE",
"127 674 OFFCURVE",
"109 591 OFFCURVE",
"109 551 QCURVE"
);
}
);
width = 594;
}
);
note = zayin;
unicode = 05D6;
},
{
glyphname = het;
lastChange = "2018-07-29 15:09:15 +0000";
layers = (
{
layerId = "C33DBFF5-9F9F-4FD4-87E4-27DD273F2A02";
paths = (
{
closed = 1;
nodes = (
"157 250 OFFCURVE",
"152 84 OFFCURVE",
"152 24 QCURVE SMOOTH",
"152 11 LINE",
"208 -38 LINE",
"226 -14 LINE SMOOTH",
"295 81 OFFCURVE",
"349 193 OFFCURVE",
"349 268 QCURVE SMOOTH",
"349 344 OFFCURVE",
"320 644 OFFCURVE",
"320 698 QCURVE SMOOTH",
"320 738 OFFCURVE",
"352 784 OFFCURVE",
"395 813 QCURVE",
"422 813 OFFCURVE",
"537 804 OFFCURVE",
"565 804 QCURVE SMOOTH",
"686 804 OFFCURVE",
"808 816 QCURVE",
"797 776 OFFCURVE",
"797 762 QCURVE SMOOTH",
"797 730 LINE",
"797 646 LINE SMOOTH",
"797 636 OFFCURVE",
"808 548 OFFCURVE",
"808 538 QCURVE SMOOTH",
"808 535 LINE",
"844 360 OFFCURVE",
"844 164 QCURVE SMOOTH",
"844 11 LINE",
"899 -39 LINE",
"917 -14 LINE SMOOTH",
"954 35 OFFCURVE",
"1039 226 OFFCURVE",
"1039 310 QCURVE SMOOTH",
"1039 384 OFFCURVE",
"968 648 OFFCURVE",
"968 698 QCURVE SMOOTH",
"968 738 OFFCURVE",
"997 797 OFFCURVE",
"1026 822 OFFCURVE",
"1053 839 QCURVE",
"1053 853 LINE SMOOTH",
"1053 971 OFFCURVE",
"993 1077 QCURVE",
"801 1052 OFFCURVE",
"659 1052 QCURVE SMOOTH",
"475 1052 OFFCURVE",
"339 1078 QCURVE SMOOTH",
"323 1081 OFFCURVE",
"297 1088 OFFCURVE",
"274 1100 OFFCURVE",
"259 1107 OFFCURVE",
"239 1126 OFFCURVE",
"233 1131 OFFCURVE",
"212 1153 OFFCURVE",
"211 1154 QCURVE SMOOTH",
"191 1174 LINE",
"171 1155 LINE SMOOTH",
"125 1110 OFFCURVE",
"80 1027 OFFCURVE",
"64 968 QCURVE",
"98 935 LINE",
"136 818 LINE",
"157 818 LINE SMOOTH",
"160 818 OFFCURVE",
"175 817 OFFCURVE",
"179 817 QCURVE",
"153 756 OFFCURVE",
"136 660 OFFCURVE",
"136 594 QCURVE SMOOTH",
"136 528 LINE",
"157 431 OFFCURVE",
"157 279 QCURVE SMOOTH"
);
}
);
width = 1135;
}
);
note = het;
unicode = 05D7;
},
{
glyphname = tet;
lastChange = "2018-07-29 15:09:15 +0000";
layers = (
{
layerId = "C33DBFF5-9F9F-4FD4-87E4-27DD273F2A02";
paths = (
{
closed = 1;
nodes = (
"724 313 OFFCURVE",
"579 247 OFFCURVE",
"518 247 QCURVE SMOOTH",
"509 247 OFFCURVE",
"471 250 OFFCURVE",
"466 250 QCURVE",
"455 277 OFFCURVE",
"409 414 OFFCURVE",
"353 649 OFFCURVE",
"353 722 QCURVE SMOOTH",
"353 736 OFFCURVE",
"355 758 QCURVE",
"435 853 OFFCURVE",
"435 917 QCURVE SMOOTH",
"435 969 OFFCURVE",
"379 1031 OFFCURVE",
"313 1050 QCURVE",
"245 1105 OFFCURVE",
"237 1143 QCURVE",
"229 1192 LINE",
"191 1156 LINE SMOOTH",
"171 1138 OFFCURVE",
"137 1098 OFFCURVE",
"89 1035 OFFCURVE",
"70 1012 QCURVE",
"89 973 LINE",
"71 845 LINE",
"196 768 LINE",
"196 718 OFFCURVE",
"192 680 OFFCURVE",
"182 658 OFFCURVE",
"179 646 QCURVE",
"179 644 LINE SMOOTH",
"179 453 OFFCURVE",
"258 76 OFFCURVE",
"329 -30 QCURVE",
"740 9 OFFCURVE",
"934 180 QCURVE",
"1059 355 OFFCURVE",
"1059 658 QCURVE SMOOTH",
"1059 671 OFFCURVE",
"1060 731 OFFCURVE",
"1060 748 QCURVE SMOOTH",
"1060 847 OFFCURVE",
"1019 993 OFFCURVE",
"953 1040 QCURVE",
"873 1088 OFFCURVE",
"786 1088 QCURVE SMOOTH",
"690 1088 OFFCURVE",
"627 1052 QCURVE SMOOTH",
"588 1029 OFFCURVE",
"544 994 OFFCURVE",
"492 931 OFFCURVE",
"468 839 OFFCURVE",
"468 776 QCURVE SMOOTH",
"468 756 LINE",
"606 725 LINE",
"610 755 LINE SMOOTH",
"614 785 OFFCURVE",
"639 823 OFFCURVE",
"677 838 OFFCURVE",
"706 842 OFFCURVE",
"726 842 QCURVE SMOOTH",
"734 842 LINE SMOOTH",
"737 842 OFFCURVE",
"748 839 OFFCURVE",
"749 839 QCURVE",
"789 828 OFFCURVE",
"839 786 OFFCURVE",
"863 716 OFFCURVE",
"870 646 OFFCURVE",
"870 591 QCURVE SMOOTH",
"870 525 OFFCURVE",
"847 428 OFFCURVE",
"835 413 QCURVE"
);
}
);
width = 1132;
}
);
note = tet;
unicode = 05D8;
},
{
glyphname = yod;
lastChange = "2018-07-29 15:09:15 +0000";
layers = (
{
layerId = "C33DBFF5-9F9F-4FD4-87E4-27DD273F2A02";
paths = (
{
closed = 1;
nodes = (
"94 903 LINE",
"135 800 LINE",
"153 800 LINE SMOOTH",
"202 800 OFFCURVE",
"265 786 OFFCURVE",
"291 759 OFFCURVE",
"298 735 OFFCURVE",
"298 716 QCURVE SMOOTH",
"298 705 OFFCURVE",
"294 654 OFFCURVE",
"294 639 QCURVE SMOOTH",
"294 620 OFFCURVE",
"285 505 OFFCURVE",
"285 469 QCURVE SMOOTH",
"285 450 LINE",
"393 401 LINE",
"402 430 LINE SMOOTH",
"459 612 OFFCURVE",
"490 748 OFFCURVE",
"490 816 QCURVE SMOOTH",
"490 947 OFFCURVE",
"441 993 QCURVE SMOOTH",
"426 1007 OFFCURVE",
"406 1023 OFFCURVE",
"393 1033 OFFCURVE",
"378 1040 OFFCURVE",
"370 1043 OFFCURVE",
"346 1050 OFFCURVE",
"338 1052 QCURVE",
"313 1060 OFFCURVE",
"292 1067 OFFCURVE",
"266 1086 OFFCURVE",
"258 1096 OFFCURVE",
"220 1142 OFFCURVE",
"204 1160 QCURVE",
"184 1153 LINE",
"164 1160 LINE",
"97 1091 OFFCURVE",
"61 942 QCURVE"
);
}
);
width = 564;
}
);
note = yod;
unicode = 05D9;
},
{
glyphname = finalkaf;
lastChange = "2018-07-29 15:09:15 +0000";
layers = (
{
layerId = "C33DBFF5-9F9F-4FD4-87E4-27DD273F2A02";
paths = (
{
closed = 1;
nodes = (
"647 -300 OFFCURVE",
"633 -415 QCURVE",
"696 -465 LINE",
"714 -441 LINE SMOOTH",
"783 -345 OFFCURVE",
"825 -221 OFFCURVE",
"825 -160 QCURVE",
"829 -125 OFFCURVE",
"829 -78 QCURVE",
"834 -36 OFFCURVE",
"834 20 QCURVE SMOOTH",
"834 95 OFFCURVE",
"797 408 OFFCURVE",
"797 496 QCURVE SMOOTH",
"797 597 OFFCURVE",
"813 688 QCURVE",
"813 690 LINE SMOOTH",
"813 731 OFFCURVE",
"863 794 OFFCURVE",
"917 830 QCURVE",
"917 844 LINE SMOOTH",
"917 964 OFFCURVE",
"857 1078 QCURVE",
"668 1052 OFFCURVE",
"516 1052 QCURVE SMOOTH",
"363 1052 OFFCURVE",
"249 1075 QCURVE SMOOTH",
"235 1078 OFFCURVE",
"210 1138 OFFCURVE",
"206 1143 QCURVE",
"187 1164 LINE",
"166 1144 LINE SMOOTH",
"120 1098 OFFCURVE",
"75 1010 OFFCURVE",
"59 948 QCURVE",
"92 915 LINE",
"107 842 LINE",
"123 837 OFFCURVE",
"213 810 OFFCURVE",
"240 803 OFFCURVE",
"309 787 OFFCURVE",
"375 778 OFFCURVE",
"421 773 QCURVE",
"423 773 LINE SMOOTH",
"532 773 OFFCURVE",
"644 785 QCURVE",
"642 780 OFFCURVE",
"605 701 OFFCURVE",
"594 675 OFFCURVE",
"572 615 OFFCURVE",
"564 571 OFFCURVE",
"564 550 QCURVE SMOOTH",
"564 482 LINE",
"574 414 OFFCURVE",
"607 196 OFFCURVE",
"618 116 OFFCURVE",
"637 -21 OFFCURVE",
"642 -96 OFFCURVE",
"647 -198 OFFCURVE",
"647 -252 QCURVE SMOOTH"
);
}
);
width = 992;
}
);
note = finalkaf;
unicode = 05DA;
},
{
glyphname = kaf;
lastChange = "2018-07-29 15:09:15 +0000";
layers = (
{
layerId = "C33DBFF5-9F9F-4FD4-87E4-27DD273F2A02";
paths = (
{
closed = 1;
nodes = (
"836 972 OFFCURVE",
"795 1027 OFFCURVE",
"740 1051 OFFCURVE",
"693 1059 OFFCURVE",
"663 1059 QCURVE SMOOTH",
"636 1059 OFFCURVE",
"518 1052 OFFCURVE",
"488 1052 QCURVE SMOOTH",
"429 1052 OFFCURVE",
"356 1062 QCURVE",
"326 1071 OFFCURVE",
"281 1097 OFFCURVE",
"264 1111 OFFCURVE",
"231 1150 OFFCURVE",
"229 1152 QCURVE",
"210 1173 LINE",
"189 1153 LINE SMOOTH",
"143 1107 OFFCURVE",
"98 1019 OFFCURVE",
"82 957 QCURVE",
"116 921 LINE",
"155 783 LINE",
"571 783 LINE",
"604 780 OFFCURVE",
"649 758 OFFCURVE",
"677 714 OFFCURVE",
"691 678 OFFCURVE",
"711 604 OFFCURVE",
"719 583 QCURVE",
"722 571 OFFCURVE",
"739 512 OFFCURVE",
"748 475 OFFCURVE",
"757 427 OFFCURVE",
"757 411 QCURVE SMOOTH",
"757 378 OFFCURVE",
"743 363 QCURVE SMOOTH",
"706 324 OFFCURVE",
"572 271 OFFCURVE",
"395 249 OFFCURVE",
"246 241 OFFCURVE",
"153 241 QCURVE SMOOTH",
"135 241 LINE",
"115 196 OFFCURVE",
"94 125 OFFCURVE",
"84 78 OFFCURVE",
"71 0 QCURVE SMOOTH",
"66 -33 LINE",
"99 -33 LINE SMOOTH",
"308 -33 OFFCURVE",
"672 36 OFFCURVE",
"848 134 QCURVE",
"933 243 OFFCURVE",
"933 417 QCURVE SMOOTH",
"933 473 OFFCURVE",
"914 617 OFFCURVE",
"895 712 OFFCURVE",
"854 897 OFFCURVE",
"847 930 QCURVE"
);
}
);
width = 970;
}
);
note = kaf;
unicode = 05DB;
},
{
glyphname = lamed;
lastChange = "2018-07-29 15:09:15 +0000";
layers = (
{
layerId = "C33DBFF5-9F9F-4FD4-87E4-27DD273F2A02";
paths = (
{
closed = 1;
nodes = (
"652 320 OFFCURVE",
"877 705 OFFCURVE",
"906 802 QCURVE",
"906 806 LINE SMOOTH",
"906 922 OFFCURVE",
"834 1004 QCURVE",
"812 1024 OFFCURVE",
"784 1042 OFFCURVE",
"761 1049 QCURVE",
"746 1052 LINE",
"250 1050 LINE SMOOTH",
"241 1050 OFFCURVE",
"234 1060 QCURVE SMOOTH",
"215 1086 OFFCURVE",
"215 1141 QCURVE SMOOTH",
"215 1192 OFFCURVE",
"270 1480 OFFCURVE",
"270 1549 QCURVE SMOOTH",
"270 1609 OFFCURVE",
"240 1669 OFFCURVE",
"200 1669 QCURVE SMOOTH",
"182 1669 OFFCURVE",
"167 1659 QCURVE",
"26 1502 LINE",
"14 1482 OFFCURVE",
"14 1463 QCURVE SMOOTH",
"14 1413 OFFCURVE",
"78 1406 QCURVE",
"82 1406 LINE",
"110 1413 OFFCURVE",
"124 1413 QCURVE",
"126 1408 OFFCURVE",
"124 1399 QCURVE",
"124 1369 OFFCURVE",
"105 1302 OFFCURVE",
"82 1238 OFFCURVE",
"63 1089 OFFCURVE",
"63 987 QCURVE SMOOTH",
"63 883 OFFCURVE",
"143 764 OFFCURVE",
"214 764 QCURVE SMOOTH",
"625 764 LINE SMOOTH",
"632 764 OFFCURVE",
"652 749 OFFCURVE",
"673 710 OFFCURVE",
"673 683 QCURVE",
"644 581 OFFCURVE",
"574 437 OFFCURVE",
"517 368 OFFCURVE",
"466 310 OFFCURVE",
"433 236 OFFCURVE",
"429 181 QCURVE",
"429 163 LINE SMOOTH",
"429 126 OFFCURVE",
"435 108 QCURVE SMOOTH",
"444 78 OFFCURVE",
"508 3 OFFCURVE",
"559 -20 QCURVE SMOOTH",
"586 -32 LINE",
"600 -7 LINE",
"686 124 OFFCURVE",
"686 233 QCURVE SMOOTH",
"686 253 LINE",
"665 259 LINE",
"642 267 OFFCURVE",
"637 271 QCURVE",
"631 277 OFFCURVE",
"634 282 QCURVE"
);
}
);
width = 976;
}
);
note = lamed;
unicode = 05DC;
},
{
glyphname = finalmem;
lastChange = "2018-07-29 15:09:15 +0000";
layers = (
{
layerId = "C33DBFF5-9F9F-4FD4-87E4-27DD273F2A02";
paths = (
{
closed = 1;
nodes = (
"401 222 OFFCURVE",
"393 272 QCURVE",
"374 328 LINE SMOOTH",
"356 383 OFFCURVE",
"319 584 OFFCURVE",
"319 674 QCURVE SMOOTH",
"319 760 OFFCURVE",
"333 810 QCURVE",
"463 827 OFFCURVE",
"588 827 QCURVE SMOOTH",
"795 827 OFFCURVE",
"836 782 QCURVE",
"840 777 OFFCURVE",
"857 699 OFFCURVE",
"875 548 OFFCURVE",
"875 470 QCURVE SMOOTH",
"875 339 LINE",
"797 320 OFFCURVE",
"668 286 OFFCURVE",
"586 264 OFFCURVE",
"522 245 OFFCURVE",
"489 235 OFFCURVE",
"466 227 OFFCURVE",
"455 223 OFFCURVE",
"447 222 OFFCURVE",
"441 222 QCURVE SMOOTH"
);
},
{
closed = 1;
nodes = (
"146 821 LINE SMOOTH",
"148 821 OFFCURVE",
"164 816 OFFCURVE",
"191 810 OFFCURVE",
"206 810 QCURVE SMOOTH",
"208 810 LINE",
"173 722 OFFCURVE",
"173 548 QCURVE SMOOTH",
"173 362 OFFCURVE",
"213 141 QCURVE",
"213 39 OFFCURVE",
"267 -48 OFFCURVE",
"336 -48 QCURVE SMOOTH",
"341 -48 LINE",
"1051 161 LINE",
"1057 185 OFFCURVE",
"1075 247 OFFCURVE",
"1082 284 OFFCURVE",
"1082 307 QCURVE SMOOTH",
"1082 340 OFFCURVE",
"1069 379 QCURVE",
"1054 390 OFFCURVE",
"1045 401 OFFCURVE",
"1041 413 QCURVE",
"1041 668 OFFCURVE",
"999 924 QCURVE SMOOTH",
"998 929 OFFCURVE",
"992 969 OFFCURVE",
"987 985 OFFCURVE",
"975 1019 OFFCURVE",
"958 1034 OFFCURVE",
"931 1055 OFFCURVE",
"890 1063 OFFCURVE",
"864 1063 QCURVE SMOOTH",
"811 1063 OFFCURVE",
"600 1052 OFFCURVE",
"548 1052 QCURVE SMOOTH",
"422 1052 OFFCURVE",
"329 1074 QCURVE",
"304 1078 OFFCURVE",
"264 1102 OFFCURVE",
"244 1124 OFFCURVE",
"215 1162 OFFCURVE",
"207 1171 QCURVE SMOOTH",
"187 1192 LINE",
"167 1172 LINE SMOOTH",
"121 1127 OFFCURVE",
"76 1044 OFFCURVE",
"60 985 QCURVE",
"93 953 LINE",
"124 821 LINE"
);
}
);
width = 1120;
}
);
note = finalmem;
unicode = 05DD;
},
{
glyphname = mem;
lastChange = "2018-07-29 15:09:15 +0000";
layers = (
{
layerId = "C33DBFF5-9F9F-4FD4-87E4-27DD273F2A02";
paths = (
{
closed = 1;
nodes = (
"92 852 LINE",
"120 846 LINE SMOOTH",
"165 836 OFFCURVE",
"228 805 OFFCURVE",
"257 771 OFFCURVE",
"268 745 OFFCURVE",
"268 734 QCURVE SMOOTH",
"268 725 OFFCURVE",
"211 595 OFFCURVE",
"143 438 OFFCURVE",
"86 244 OFFCURVE",
"86 178 QCURVE SMOOTH",
"86 134 LINE",
"126 154 LINE SMOOTH",
"143 162 OFFCURVE",
"171 179 OFFCURVE",
"194 194 OFFCURVE",
"210 205 OFFCURVE",
"226 219 OFFCURVE",
"235 227 OFFCURVE",
"249 241 OFFCURVE",
"251 243 QCURVE",
"267 278 OFFCURVE",
"310 380 OFFCURVE",
"337 442 OFFCURVE",
"377 526 OFFCURVE",
"413 580 OFFCURVE",
"464 646 OFFCURVE",
"522 691 OFFCURVE",
"597 739 OFFCURVE",
"691 775 OFFCURVE",
"747 789 QCURVE",
"788 755 OFFCURVE",
"811 686 QCURVE SMOOTH",
"833 617 OFFCURVE",
"833 466 QCURVE SMOOTH",
"833 418 LINE SMOOTH",
"833 348 OFFCURVE",
"781 276 OFFCURVE",
"729 261 QCURVE",
"557 228 OFFCURVE",
"292 228 QCURVE SMOOTH",
"276 228 LINE",
"218 119 OFFCURVE",
"218 56 QCURVE SMOOTH",
"218 13 OFFCURVE",
"247 -42 QCURVE",
"289 -38 OFFCURVE",
"443 -25 OFFCURVE",
"549 -17 OFFCURVE",
"694 4 OFFCURVE",
"794 28 OFFCURVE",
"903 73 OFFCURVE",
"968 130 OFFCURVE",
"1011 214 OFFCURVE",
"1011 267 QCURVE SMOOTH",
"1011 402 LINE",
"1011 477 LINE SMOOTH",
"1011 537 OFFCURVE",
"1009 631 OFFCURVE",
"998 765 OFFCURVE",
"980 867 OFFCURVE",
"945 976 OFFCURVE",
"897 1047 OFFCURVE",
"824 1093 OFFCURVE",
"778 1093 QCURVE SMOOTH",
"772 1093 LINE",
"769 1092 OFFCURVE",
"725 1074 OFFCURVE",
"687 1058 OFFCURVE",
"621 1026 OFFCURVE",
"561 993 OFFCURVE",
"483 942 OFFCURVE",
"446 914 QCURVE",
"436 948 OFFCURVE",
"411 961 QCURVE",
"388 975 OFFCURVE",
"354 996 OFFCURVE",
"326 1017 OFFCURVE",
"308 1030 OFFCURVE",
"292 1048 OFFCURVE",
"285 1056 OFFCURVE",
"276 1076 OFFCURVE",
"273 1084 OFFCURVE",
"265 1109 OFFCURVE",
"263 1115 QCURVE SMOOTH",
"248 1156 LINE",
"217 1125 LINE SMOOTH",
"178 1088 OFFCURVE",
"137 1030 OFFCURVE",
"108 971 QCURVE",
"108 963 LINE SMOOTH",
"108 955 OFFCURVE",
"115 939 OFFCURVE",
"118 938 QCURVE"
);
}
);
width = 1076;
}
);
note = mem;
unicode = 05DE;
},
{
glyphname = finalnun;
lastChange = "2018-07-29 15:09:15 +0000";
layers = (
{
layerId = "C33DBFF5-9F9F-4FD4-87E4-27DD273F2A02";
paths = (
{
closed = 1;
nodes = (
"356 529 OFFCURVE",
"358 622 OFFCURVE",
"358 642 QCURVE SMOOTH",
"358 677 OFFCURVE",
"362 702 QCURVE",
"407 749 OFFCURVE",
"451 849 OFFCURVE",
"464 919 QCURVE",
"464 926 LINE SMOOTH",
"464 972 OFFCURVE",
"413 994 QCURVE",
"399 1001 OFFCURVE",
"375 1013 OFFCURVE",
"366 1018 OFFCURVE",
"354 1024 OFFCURVE",
"352 1025 OFFCURVE",
"341 1031 OFFCURVE",
"336 1035 OFFCURVE",
"314 1048 OFFCURVE",
"304 1055 QCURVE",
"265 1093 OFFCURVE",
"254 1174 QCURVE",
"248 1199 LINE",
"211 1174 LINE",
"114 1114 OFFCURVE",
"89 1026 QCURVE",
"104 994 LINE",
"69 910 LINE",
"77 868 LINE",
"224 761 LINE",
"187 703 OFFCURVE",
"158 581 OFFCURVE",
"158 498 QCURVE SMOOTH",
"158 434 OFFCURVE",
"174 326 OFFCURVE",
"207 187 OFFCURVE",
"214 147 QCURVE",
"214 144 OFFCURVE",
"236 -17 OFFCURVE",
"248 -138 OFFCURVE",
"248 -183 QCURVE SMOOTH",
"248 -223 OFFCURVE",
"234 -302 OFFCURVE",
"212 -374 OFFCURVE",
"211 -379 QCURVE",
"211 -379 OFFCURVE",
"212 -368 QCURVE",
"210 -383 LINE",
"210 -384 OFFCURVE",
"209 -395 QCURVE",
"209 -486 LINE",
"260 -399 LINE",
"265 -389 OFFCURVE",
"301 -350 OFFCURVE",
"311 -341 QCURVE",
"296 -366 LINE",
"315 -342 LINE SMOOTH",
"381 -261 OFFCURVE",
"447 -70 OFFCURVE",
"447 -15 QCURVE SMOOTH",
"447 57 OFFCURVE",
"419 192 OFFCURVE",
"384 283 OFFCURVE",
"356 426 OFFCURVE",
"356 505 QCURVE SMOOTH"
);
}
);
width = 548;
}
);
note = finalnun;
unicode = 05DF;
},
{
glyphname = nun;
lastChange = "2018-07-29 15:09:15 +0000";
layers = (
{
layerId = "C33DBFF5-9F9F-4FD4-87E4-27DD273F2A02";
paths = (
{
closed = 1;
nodes = (
"568 284 OFFCURVE",
"508 485 OFFCURVE",
"468 661 OFFCURVE",
"468 731 QCURVE SMOOTH",
"468 762 OFFCURVE",
"474 807 QCURVE",
"474 809 LINE SMOOTH",
"474 826 OFFCURVE",
"502 885 OFFCURVE",
"509 919 QCURVE",
"507 932 LINE",
"497 962 OFFCURVE",
"421 1040 OFFCURVE",
"357 1077 QCURVE",
"329 1099 OFFCURVE",
"313 1123 OFFCURVE",
"309 1146 QCURVE SMOOTH",
"302 1187 LINE",
"266 1163 LINE SMOOTH",
"179 1107 OFFCURVE",
"139 1010 QCURVE",
"154 978 LINE",
"126 896 LINE",
"147 886 LINE SMOOTH",
"188 867 OFFCURVE",
"214 854 OFFCURVE",
"262 824 OFFCURVE",
"289 802 QCURVE",
"310 708 OFFCURVE",
"318 440 OFFCURVE",
"323 396 QCURVE SMOOTH",
"338 293 LINE",
"236 238 OFFCURVE",
"124 238 QCURVE SMOOTH",
"112 238 LINE",
"47 160 OFFCURVE",
"47 89 QCURVE SMOOTH",
"47 38 OFFCURVE",
"76 -22 QCURVE SMOOTH",
"85 -41 LINE",
"106 -36 LINE",
"127 -32 OFFCURVE",
"240 -12 OFFCURVE",
"304 2 OFFCURVE",
"402 29 OFFCURVE",
"489 67 OFFCURVE",
"531 92 QCURVE",
"554 123 OFFCURVE",
"578 235 QCURVE"
);
}
);
width = 620;
}
);
note = nun;
unicode = 05E0;
},
{
glyphname = samekh;
lastChange = "2018-07-29 15:09:15 +0000";
layers = (
{
layerId = "C33DBFF5-9F9F-4FD4-87E4-27DD273F2A02";
paths = (
{
closed = 1;
nodes = (
"808 376 OFFCURVE",
"584 227 OFFCURVE",
"458 223 QCURVE",
"401 292 OFFCURVE",
"332 408 OFFCURVE",
"303 524 OFFCURVE",
"297 601 OFFCURVE",
"297 670 QCURVE SMOOTH",
"297 681 LINE SMOOTH",
"297 699 OFFCURVE",
"324 777 OFFCURVE",
"342 791 QCURVE",
"601 791 OFFCURVE",
"732 807 QCURVE",
"763 783 OFFCURVE",
"854 571 OFFCURVE",
"855 483 QCURVE"
);
},
{
closed = 1;
nodes = (
"140 410 OFFCURVE",
"294 77 OFFCURVE",
"402 -29 QCURVE",
"470 -39 LINE",
"501 -26 OFFCURVE",
"616 22 OFFCURVE",
"676 48 OFFCURVE",
"768 94 OFFCURVE",
"828 136 OFFCURVE",
"897 198 OFFCURVE",
"924 234 QCURVE",
"932 258 OFFCURVE",
"964 342 OFFCURVE",
"975 379 OFFCURVE",
"992 448 OFFCURVE",
"997 522 OFFCURVE",
"997 574 QCURVE SMOOTH",
"997 667 OFFCURVE",
"976 808 OFFCURVE",
"923 931 OFFCURVE",
"882 1000 OFFCURVE",
"837 1066 QCURVE",
"822 1066 LINE SMOOTH",
"806 1066 OFFCURVE",
"540 1052 OFFCURVE",
"456 1052 QCURVE SMOOTH",
"330 1052 OFFCURVE",
"232 1076 OFFCURVE",
"215 1120 QCURVE SMOOTH",
"200 1160 LINE",
"170 1130 LINE SMOOTH",
"114 1074 OFFCURVE",
"74 1018 OFFCURVE",
"61 967 QCURVE",
"94 934 LINE",
"112 848 LINE",
"176 829 OFFCURVE",
"220 821 QCURVE",
"213 810 OFFCURVE",
"176 755 OFFCURVE",
"169 742 OFFCURVE",
"149 700 OFFCURVE",
"145 670 OFFCURVE",
"140 618 OFFCURVE",
"140 584 QCURVE SMOOTH"
);
}
);
width = 1041;
}
);
note = samekh;
unicode = 05E1;
},
{
glyphname = ayin;
lastChange = "2018-07-29 15:09:15 +0000";
layers = (
{
layerId = "C33DBFF5-9F9F-4FD4-87E4-27DD273F2A02";
paths = (
{
closed = 1;
nodes = (
"201 726 OFFCURVE",
"201 694 QCURVE SMOOTH",
"201 632 OFFCURVE",
"259 490 OFFCURVE",
"373 296 OFFCURVE",
"385 273 QCURVE",
"371 264 OFFCURVE",
"340 248 OFFCURVE",
"307 236 OFFCURVE",
"280 226 OFFCURVE",
"242 217 OFFCURVE",
"220 212 OFFCURVE",
"180 206 OFFCURVE",
"165 204 OFFCURVE",
"125 198 OFFCURVE",
"122 198 QCURVE",
"115 171 LINE",
"88 114 OFFCURVE",
"88 32 QCURVE SMOOTH",
"88 -3 OFFCURVE",
"105 -116 OFFCURVE",
"115 -137 QCURVE",
"146 -123 LINE",
"222 -94 OFFCURVE",
"330 -48 OFFCURVE",
"467 19 OFFCURVE",
"565 82 OFFCURVE",
"676 170 OFFCURVE",
"752 262 OFFCURVE",
"827 384 OFFCURVE",
"872 519 OFFCURVE",
"901 687 OFFCURVE",
"902 782 QCURVE",
"936 796 LINE",
"1014 970 LINE",
"992 981 LINE SMOOTH",
"969 993 OFFCURVE",
"884 1030 OFFCURVE",
"832 1055 OFFCURVE",
"764 1111 OFFCURVE",
"737 1149 QCURVE",
"719 1166 LINE",
"693 1149 LINE",
"636 1117 OFFCURVE",
"575 1021 OFFCURVE",
"575 969 QCURVE SMOOTH",
"575 948 OFFCURVE",
"579 916 OFFCURVE",
"585 893 OFFCURVE",
"586 889 QCURVE",
"598 870 OFFCURVE",
"628 841 OFFCURVE",
"673 820 OFFCURVE",
"695 811 OFFCURVE",
"752 794 OFFCURVE",
"755 793 QCURVE",
"728 645 OFFCURVE",
"604 402 OFFCURVE",
"521 348 QCURVE",
"521 392 OFFCURVE",
"474 501 OFFCURVE",
"417 591 OFFCURVE",
"369 719 OFFCURVE",
"368 778 QCURVE",
"387 837 OFFCURVE",
"460 959 QCURVE",
"476 974 LINE",
"443 985 LINE SMOOTH",
"295 1035 OFFCURVE",
"197 1117 QCURVE SMOOTH",
"175 1135 LINE",
"158 1117 LINE",
"84 1025 OFFCURVE",
"84 865 QCURVE SMOOTH",
"84 840 LINE",
"96 823 OFFCURVE",
"123 797 OFFCURVE",
"144 783 OFFCURVE",
"170 771 OFFCURVE",
"184 767 OFFCURVE",
"207 762 OFFCURVE",
"210 761 QCURVE"
);
}
);
width = 1086;
}
);
note = ayin;
unicode = 05E2;
},
{
glyphname = finalpe;
lastChange = "2018-07-29 15:09:15 +0000";
layers = (
{
layerId = "C33DBFF5-9F9F-4FD4-87E4-27DD273F2A02";
paths = (
{
closed = 1;
nodes = (
"356 1183 LINE",
"325 1176 LINE",
"265 1160 OFFCURVE",
"188 1054 OFFCURVE",
"157 973 QCURVE",
"179 918 LINE",
"83 836 OFFCURVE",
"83 731 QCURVE SMOOTH",
"83 695 OFFCURVE",
"100 623 QCURVE",
"73 587 OFFCURVE",
"73 536 QCURVE SMOOTH",
"73 524 OFFCURVE",
"76 500 OFFCURVE",
"82 478 OFFCURVE",
"89 457 OFFCURVE",
"97 439 OFFCURVE",
"104 423 OFFCURVE",
"112 410 OFFCURVE",
"117 401 OFFCURVE",
"119 398 QCURVE SMOOTH",
"121 395 LINE",
"101 401 LINE",
"133 386 LINE",
"184 365 OFFCURVE",
"238 365 QCURVE SMOOTH",
"289 365 OFFCURVE",
"378 392 QCURVE",
"428 470 OFFCURVE",
"428 542 QCURVE SMOOTH",
"428 586 OFFCURVE",
"409 637 QCURVE SMOOTH",
"399 667 LINE",
"365 654 LINE SMOOTH",
"324 639 OFFCURVE",
"298 639 QCURVE SMOOTH",
"226 639 OFFCURVE",
"224 768 QCURVE",
"229 790 OFFCURVE",
"238 813 OFFCURVE",
"261 844 OFFCURVE",
"302 862 OFFCURVE",
"334 866 QCURVE",
"419 866 OFFCURVE",
"550 820 OFFCURVE",
"621 768 QCURVE SMOOTH",
"638 755 OFFCURVE",
"657 737 OFFCURVE",
"688 678 OFFCURVE",
"705 599 OFFCURVE",
"718 452 OFFCURVE",
"718 354 QCURVE SMOOTH",
"718 335 OFFCURVE",
"712 256 OFFCURVE",
"712 235 QCURVE SMOOTH",
"712 134 OFFCURVE",
"756 -186 OFFCURVE",
"756 -249 QCURVE SMOOTH",
"756 -289 LINE SMOOTH",
"756 -320 OFFCURVE",
"750 -357 QCURVE SMOOTH",
"744 -400 LINE",
"785 -390 LINE",
"841 -373 OFFCURVE",
"896 -301 OFFCURVE",
"906 -229 QCURVE",
"906 -227 LINE SMOOTH",
"906 -168 OFFCURVE",
"904 105 OFFCURVE",
"904 171 QCURVE SMOOTH",
"904 524 OFFCURVE",
"862 875 OFFCURVE",
"798 938 QCURVE",
"764 974 OFFCURVE",
"649 1012 OFFCURVE",
"509 1037 OFFCURVE",
"476 1050 QCURVE",
"474 1051 OFFCURVE",
"438 1074 OFFCURVE",
"433 1078 OFFCURVE",
"406 1098 OFFCURVE",
"398 1108 OFFCURVE",
"380 1128 OFFCURVE",
"370 1147 OFFCURVE",
"365 1159 QCURVE"
);
}
);
width = 963;
}
);
note = finalpe;
unicode = 05E3;
},
{
glyphname = pe;
lastChange = "2018-07-29 15:09:15 +0000";
layers = (
{
layerId = "C33DBFF5-9F9F-4FD4-87E4-27DD273F2A02";
paths = (
{
closed = 1;
nodes = (
"283 1189 OFFCURVE",
"179 1033 OFFCURVE",
"176 974 QCURVE",
"176 961 LINE",
"196 917 LINE",
"164 887 OFFCURVE",
"128 842 OFFCURVE",
"96 762 OFFCURVE",
"96 715 QCURVE SMOOTH",
"96 670 OFFCURVE",
"113 611 QCURVE",
"75 551 OFFCURVE",
"75 497 QCURVE SMOOTH",
"75 457 OFFCURVE",
"103 408 OFFCURVE",
"138 388 OFFCURVE",
"178 371 QCURVE",
"234 363 OFFCURVE",
"279 363 QCURVE SMOOTH",
"328 363 OFFCURVE",
"382 371 QCURVE",
"386 378 OFFCURVE",
"426 446 OFFCURVE",
"441 475 OFFCURVE",
"458 528 OFFCURVE",
"458 549 QCURVE SMOOTH",
"458 589 OFFCURVE",
"449 619 QCURVE SMOOTH",
"437 663 LINE",
"398 634 LINE SMOOTH",
"372 615 OFFCURVE",
"343 615 QCURVE SMOOTH",
"313 615 OFFCURVE",
"284 635 QCURVE",
"276 640 OFFCURVE",
"260 710 OFFCURVE",
"259 744 QCURVE",
"259 793 OFFCURVE",
"314 847 OFFCURVE",
"367 847 QCURVE SMOOTH",
"502 847 OFFCURVE",
"634 815 OFFCURVE",
"697 768 QCURVE SMOOTH",
"787 698 OFFCURVE",
"788 325 QCURVE",
"665 281 OFFCURVE",
"323 233 OFFCURVE",
"149 233 QCURVE SMOOTH",
"135 233 LINE",
"61 134 OFFCURVE",
"61 -7 QCURVE SMOOTH",
"61 -35 LINE",
"89 -35 LINE SMOOTH",
"659 -35 OFFCURVE",
"866 43 QCURVE",
"872 52 OFFCURVE",
"897 83 OFFCURVE",
"909 101 OFFCURVE",
"924 136 OFFCURVE",
"928 156 QCURVE SMOOTH",
"961 327 OFFCURVE",
"961 541 QCURVE SMOOTH",
"961 580 OFFCURVE",
"952 685 OFFCURVE",
"928 833 OFFCURVE",
"872 965 OFFCURVE",
"832 999 QCURVE",
"801 1022 OFFCURVE",
"682 1049 OFFCURVE",
"564 1062 OFFCURVE",
"453 1081 OFFCURVE",
"384 1123 OFFCURVE",
"384 1159 QCURVE SMOOTH",
"384 1176 LINE",
"354 1189 OFFCURVE",
"339 1189 QCURVE SMOOTH"
);
}
);
width = 1013;
}
);
note = pe;
unicode = 05E4;
},
{
glyphname = finaltsadi;
lastChange = "2018-07-29 15:09:15 +0000";
layers = (
{
layerId = "C33DBFF5-9F9F-4FD4-87E4-27DD273F2A02";
paths = (
{
closed = 1;
nodes = (
"471 490 OFFCURVE",
"511 575 OFFCURVE",
"559 639 QCURVE SMOOTH",
"589 679 OFFCURVE",
"675 734 OFFCURVE",
"724 750 OFFCURVE",
"733 750 QCURVE SMOOTH",
"739 750 OFFCURVE",
"764 748 OFFCURVE",
"772 748 QCURVE",
"780 744 LINE",
"789 739 OFFCURVE",
"810 730 OFFCURVE",
"817 730 QCURVE SMOOTH",
"832 730 LINE",
"866 783 OFFCURVE",
"894 835 OFFCURVE",
"920 899 OFFCURVE",
"932 925 QCURVE",
"944 938 LINE",
"917 947 LINE",
"889 958 OFFCURVE",
"838 998 OFFCURVE",
"789 1059 OFFCURVE",
"759 1102 OFFCURVE",
"733 1141 QCURVE",
"723 1144 LINE",
"721 1144 OFFCURVE",
"717 1143 QCURVE",
"694 1140 OFFCURVE",
"668 1133 OFFCURVE",
"617 1105 OFFCURVE",
"580 1063 OFFCURVE",
"537 980 OFFCURVE",
"521 923 QCURVE",
"518 899 LINE",
"579 828 LINE",
"451 756 OFFCURVE",
"383 624 QCURVE",
"376 649 OFFCURVE",
"376 699 QCURVE SMOOTH",
"376 731 LINE SMOOTH",
"376 749 OFFCURVE",
"377 753 QCURVE",
"394 761 LINE",
"396 766 OFFCURVE",
"444 843 OFFCURVE",
"471 913 OFFCURVE",
"484 970 QCURVE",
"486 971 LINE",
"459 1014 OFFCURVE",
"374 1076 OFFCURVE",
"303 1102 OFFCURVE",
"238 1138 OFFCURVE",
"228 1159 QCURVE",
"209 1191 LINE",
"182 1159 LINE SMOOTH",
"170 1145 OFFCURVE",
"149 1118 OFFCURVE",
"133 1097 OFFCURVE",
"118 1070 OFFCURVE",
"108 1055 OFFCURVE",
"96 1027 OFFCURVE",
"92 1016 OFFCURVE",
"81 986 OFFCURVE",
"79 979 OFFCURVE",
"69 945 OFFCURVE",
"68 942 QCURVE",
"64 920 LINE",
"99 873 OFFCURVE",
"152 829 OFFCURVE",
"223 785 QCURVE",
"224 533 OFFCURVE",
"290 287 QCURVE",
"333 92 OFFCURVE",
"333 -278 QCURVE SMOOTH",
"333 -340 OFFCURVE",
"326 -390 QCURVE",
"318 -435 LINE",
"378 -394 LINE SMOOTH",
"434 -358 OFFCURVE",
"510 -222 OFFCURVE",
"538 -95 OFFCURVE",
"538 -35 QCURVE SMOOTH",
"538 -13 OFFCURVE",
"528 75 OFFCURVE",
"528 98 QCURVE SMOOTH",
"528 104 LINE",
"519 156 OFFCURVE",
"486 284 OFFCURVE",
"471 374 OFFCURVE",
"471 430 QCURVE SMOOTH"
);
}
);
width = 1015;
}
);
note = finaltsadi;
unicode = 05E5;
},
{
glyphname = tsadi;
lastChange = "2018-07-29 15:09:15 +0000";
layers = (
{
layerId = "C33DBFF5-9F9F-4FD4-87E4-27DD273F2A02";
paths = (
{
closed = 1;
nodes = (
"614 516 OFFCURVE",
"614 534 QCURVE SMOOTH",
"614 555 OFFCURVE",
"625 585 QCURVE",
"633 601 OFFCURVE",
"652 651 OFFCURVE",
"664 673 OFFCURVE",
"694 709 OFFCURVE",
"748 745 OFFCURVE",
"791 768 QCURVE",
"795 766 OFFCURVE",
"815 756 OFFCURVE",
"827 750 OFFCURVE",
"848 745 OFFCURVE",
"860 745 QCURVE SMOOTH",
"874 745 OFFCURVE",
"884 758 QCURVE",
"894 773 OFFCURVE",
"965 902 OFFCURVE",
"983 942 QCURVE",
"945 978 OFFCURVE",
"853 1057 OFFCURVE",
"795 1111 OFFCURVE",
"768 1146 QCURVE SMOOTH",
"750 1168 LINE",
"727 1149 LINE SMOOTH",
"678 1111 OFFCURVE",
"613 1028 OFFCURVE",
"573 956 OFFCURVE",
"563 945 QCURVE SMOOTH",
"549 930 LINE",
"561 916 LINE",
"592 875 OFFCURVE",
"627 854 QCURVE",
"584 810 OFFCURVE",
"505 677 OFFCURVE",
"481 614 QCURVE",
"390 677 OFFCURVE",
"382 763 QCURVE",
"422 755 LINE",
"422 790 LINE SMOOTH",
"422 799 OFFCURVE",
"468 949 OFFCURVE",
"472 983 QCURVE SMOOTH",
"475 1005 LINE",
"450 1012 LINE SMOOTH",
"378 1032 OFFCURVE",
"266 1108 OFFCURVE",
"244 1163 QCURVE SMOOTH",
"234 1188 LINE",
"208 1178 LINE SMOOTH",
"178 1166 OFFCURVE",
"118 1040 OFFCURVE",
"97 961 OFFCURVE",
"91 934 QCURVE",
"93 924 LINE",
"95 911 LINE",
"132 860 OFFCURVE",
"197 806 OFFCURVE",
"243 787 QCURVE",
"243 776 LINE SMOOTH",
"243 655 OFFCURVE",
"358 481 QCURVE SMOOTH",
"377 454 OFFCURVE",
"416 414 OFFCURVE",
"474 364 OFFCURVE",
"492 347 QCURVE SMOOTH",
"573 268 LINE",
"434 221 OFFCURVE",
"282 221 QCURVE SMOOTH",
"264 221 OFFCURVE",
"178 213 OFFCURVE",
"164 213 QCURVE SMOOTH",
"146 213 LINE",
"139 194 OFFCURVE",
"113 133 OFFCURVE",
"107 116 OFFCURVE",
"94 81 OFFCURVE",
"89 57 OFFCURVE",
"81 21 OFFCURVE",
"75 -7 QCURVE SMOOTH",
"68 -44 LINE",
"106 -40 LINE SMOOTH",
"155 -34 OFFCURVE",
"354 -14 OFFCURVE",
"450 0 QCURVE",
"460 2 OFFCURVE",
"527 12 OFFCURVE",
"558 17 OFFCURVE",
"624 31 OFFCURVE",
"659 42 OFFCURVE",
"716 61 OFFCURVE",
"750 82 OFFCURVE",
"792 112 OFFCURVE",
"816 145 OFFCURVE",
"836 189 OFFCURVE",
"839 214 QCURVE",
"839 216 LINE SMOOTH",
"839 260 OFFCURVE",
"785 359 OFFCURVE",
"703 441 OFFCURVE",
"647 489 OFFCURVE",
"625 504 QCURVE"
);
}
);
width = 1052;
}
);
note = tsadi;
unicode = 05E6;
},
{
glyphname = qof;
lastChange = "2018-07-29 15:09:15 +0000";
layers = (
{
layerId = "C33DBFF5-9F9F-4FD4-87E4-27DD273F2A02";
paths = (
{
closed = 1;
nodes = (
"232 760 OFFCURVE",
"217 734 OFFCURVE",
"199 674 OFFCURVE",
"199 644 QCURVE SMOOTH",
"199 534 OFFCURVE",
"227 38 OFFCURVE",
"227 -82 QCURVE SMOOTH",
"227 -268 OFFCURVE",
"205 -382 QCURVE SMOOTH",
"190 -466 LINE",
"251 -407 LINE SMOOTH",
"258 -400 OFFCURVE",
"311 -354 OFFCURVE",
"347 -320 OFFCURVE",
"399 -260 OFFCURVE",
"431 -204 OFFCURVE",
"455 -129 OFFCURVE",
"455 -90 QCURVE SMOOTH",
"455 32 OFFCURVE",
"368 406 OFFCURVE",
"360 510 QCURVE SMOOTH",
"339 771 LINE",
"481 791 OFFCURVE",
"733 793 QCURVE",
"756 763 OFFCURVE",
"783 723 OFFCURVE",
"812 657 OFFCURVE",
"818 621 QCURVE",
"559 372 LINE",
"555 367 OFFCURVE",
"523 325 OFFCURVE",
"508 303 OFFCURVE",
"485 264 OFFCURVE",
"475 227 OFFCURVE",
"475 208 QCURVE SMOOTH",
"475 129 OFFCURVE",
"534 103 QCURVE",
"558 97 LINE",
"570 116 LINE SMOOTH",
"621 193 OFFCURVE",
"716 302 OFFCURVE",
"806 369 OFFCURVE",
"876 405 OFFCURVE",
"922 422 QCURVE",
"946 482 OFFCURVE",
"963 594 OFFCURVE",
"963 685 QCURVE SMOOTH",
"963 930 OFFCURVE",
"875 1079 QCURVE",
"688 1053 OFFCURVE",
"545 1053 QCURVE SMOOTH",
"494 1053 LINE SMOOTH",
"234 1053 OFFCURVE",
"196 1145 QCURVE SMOOTH",
"178 1187 LINE",
"150 1152 LINE",
"100 1094 OFFCURVE",
"69 992 OFFCURVE",
"69 887 QCURVE SMOOTH",
"69 874 LINE",
"112 840 OFFCURVE",
"173 814 OFFCURVE",
"251 793 QCURVE"
);
}
);
width = 1028;
}
);
note = qof;
unicode = 05E7;
},
{
glyphname = resh;
lastChange = "2018-07-29 15:09:15 +0000";
layers = (
{
layerId = "C33DBFF5-9F9F-4FD4-87E4-27DD273F2A02";
paths = (
{
closed = 1;
nodes = (
"790 434 OFFCURVE",
"790 253 QCURVE SMOOTH",
"790 150 OFFCURVE",
"753 52 QCURVE SMOOTH",
"731 -5 LINE",
"816 -39 LINE",
"869 1 OFFCURVE",
"949 206 OFFCURVE",
"949 393 QCURVE SMOOTH",
"949 589 LINE SMOOTH",
"949 661 OFFCURVE",
"943 774 OFFCURVE",
"920 905 OFFCURVE",
"880 992 OFFCURVE",
"808 1050 OFFCURVE",
"758 1050 QCURVE SMOOTH",
"336 1050 LINE",
"321 1053 OFFCURVE",
"295 1061 OFFCURVE",
"271 1074 OFFCURVE",
"258 1081 OFFCURVE",
"237 1100 OFFCURVE",
"232 1105 OFFCURVE",
"211 1129 OFFCURVE",
"210 1130 QCURVE SMOOTH",
"190 1151 LINE",
"170 1131 LINE SMOOTH",
"104 1065 OFFCURVE",
"64 917 QCURVE",
"98 881 LINE",
"128 783 LINE",
"689 783 LINE",
"721 766 OFFCURVE",
"745 655 QCURVE SMOOTH"
);
}
);
width = 1021;
}
);
note = resh;
unicode = 05E8;
},
{
glyphname = shin;
lastChange = "2018-07-29 15:09:15 +0000";
layers = (
{
layerId = "C33DBFF5-9F9F-4FD4-87E4-27DD273F2A02";
paths = (
{
closed = 1;
nodes = (
"431 300 OFFCURVE",
"408 354 OFFCURVE",
"383 427 OFFCURVE",
"363 492 OFFCURVE",
"345 553 OFFCURVE",
"344 556 QCURVE",
"341 568 OFFCURVE",
"324 619 OFFCURVE",
"319 641 OFFCURVE",
"313 686 OFFCURVE",
"313 713 QCURVE SMOOTH",
"313 754 OFFCURVE",
"337 793 QCURVE",
"364 812 OFFCURVE",
"452 925 OFFCURVE",
"456 968 QCURVE",
"450 974 LINE",
"292 1094 LINE",
"268 1130 OFFCURVE",
"268 1182 QCURVE SMOOTH",
"268 1213 LINE",
"225 1182 LINE",
"195 1162 OFFCURVE",
"145 1109 OFFCURVE",
"116 1064 OFFCURVE",
"91 1009 OFFCURVE",
"82 977 OFFCURVE",
"72 939 OFFCURVE",
"72 938 QCURVE",
"67 905 LINE",
"195 814 LINE SMOOTH",
"201 810 OFFCURVE",
"201 805 QCURVE SMOOTH",
"201 780 OFFCURVE",
"177 718 OFFCURVE",
"176 637 QCURVE SMOOTH",
"176 598 LINE",
"319 44 LINE",
"340 -18 OFFCURVE",
"446 -18 QCURVE SMOOTH",
"474 -18 OFFCURVE",
"498 -6 QCURVE",
"529 4 OFFCURVE",
"592 31 OFFCURVE",
"664 71 OFFCURVE",
"716 100 OFFCURVE",
"799 155 OFFCURVE",
"837 180 OFFCURVE",
"930 243 OFFCURVE",
"943 252 QCURVE",
"1000 280 LINE",
"1130 642 LINE SMOOTH",
"1139 669 OFFCURVE",
"1187 711 OFFCURVE",
"1209 711 QCURVE SMOOTH",
"1222 711 LINE",
"1229 720 OFFCURVE",
"1268 768 OFFCURVE",
"1275 779 OFFCURVE",
"1298 814 OFFCURVE",
"1307 837 OFFCURVE",
"1321 876 OFFCURVE",
"1328 901 QCURVE",
"1333 904 LINE",
"1188 1025 LINE SMOOTH",
"1181 1031 OFFCURVE",
"1169 1065 OFFCURVE",
"1163 1099 OFFCURVE",
"1157 1132 OFFCURVE",
"1157 1133 QCURVE",
"1152 1134 LINE",
"1146 1134 OFFCURVE",
"1134 1135 OFFCURVE",
"1132 1135 QCURVE SMOOTH",
"1116 1135 LINE",
"1078 1112 OFFCURVE",
"1026 1054 OFFCURVE",
"1006 1016 OFFCURVE",
"978 944 OFFCURVE",
"971 930 QCURVE",
"964 905 LINE",
"1065 810 LINE",
"857 423 LINE",
"820 365 OFFCURVE",
"688 271 OFFCURVE",
"620 271 QCURVE SMOOTH",
"614 271 OFFCURVE",
"589 272 OFFCURVE",
"582 272 QCURVE",
"669 602 LINE SMOOTH",
"690 688 OFFCURVE",
"769 745 QCURVE SMOOTH",
"786 758 OFFCURVE",
"799 761 OFFCURVE",
"807 756 QCURVE",
"829 747 LINE",
"844 763 LINE SMOOTH",
"866 788 OFFCURVE",
"913 886 OFFCURVE",
"923 919 QCURVE",
"927 922 LINE",
"908 938 OFFCURVE",
"845 991 OFFCURVE",
"818 1015 OFFCURVE",
"777 1052 OFFCURVE",
"760 1073 OFFCURVE",
"740 1101 OFFCURVE",
"733 1125 OFFCURVE",
"733 1138 QCURVE SMOOTH",
"733 1175 LINE",
"685 1138 LINE SMOOTH",
"589 1069 OFFCURVE",
"558 1020 QCURVE SMOOTH",
"542 996 OFFCURVE",
"515 921 QCURVE",
"508 886 LINE",
"607 826 LINE",
"565 759 OFFCURVE",
"518 672 OFFCURVE",
"488 576 OFFCURVE",
"477 516 OFFCURVE",
"451 358 OFFCURVE",
"439 293 QCURVE"
);
}
);
width = 1406;
}
);
note = shin;
unicode = 05E9;
},
{
glyphname = tav;
lastChange = "2018-07-29 15:09:15 +0000";
layers = (
{
layerId = "C33DBFF5-9F9F-4FD4-87E4-27DD273F2A02";
paths = (
{
closed = 1;
nodes = (
"730 788 LINE SMOOTH",
"768 788 OFFCURVE",
"790 750 QCURVE",
"803 695 OFFCURVE",
"857 482 OFFCURVE",
"882 369 OFFCURVE",
"906 211 OFFCURVE",
"906 146 QCURVE SMOOTH",
"906 108 OFFCURVE",
"900 52 QCURVE",
"994 -36 LINE",
"1010 0 LINE SMOOTH",
"1072 146 OFFCURVE",
"1072 260 QCURVE SMOOTH",
"1072 263 LINE",
"984 837 LINE",
"982 845 OFFCURVE",
"972 899 OFFCURVE",
"966 922 OFFCURVE",
"952 969 OFFCURVE",
"938 991 OFFCURVE",
"914 1024 OFFCURVE",
"885 1040 OFFCURVE",
"843 1052 OFFCURVE",
"818 1052 QCURVE SMOOTH",
"381 1052 LINE SMOOTH",
"329 1052 OFFCURVE",
"277 1073 OFFCURVE",
"254 1112 QCURVE SMOOTH",
"236 1143 LINE",
"210 1118 LINE SMOOTH",
"170 1078 OFFCURVE",
"128 924 OFFCURVE",
"128 866 QCURVE SMOOTH",
"128 847 OFFCURVE",
"137 839 OFFCURVE",
"139 828 QCURVE",
"311 797 LINE",
"254 728 OFFCURVE",
"203 615 OFFCURVE",
"203 528 QCURVE SMOOTH",
"203 416 OFFCURVE",
"256 273 QCURVE",
"229 256 OFFCURVE",
"183 235 OFFCURVE",
"96 204 OFFCURVE",
"64 191 QCURVE",
"53 149 OFFCURVE",
"53 114 QCURVE SMOOTH",
"53 78 OFFCURVE",
"80 -32 OFFCURVE",
"82 -46 QCURVE SMOOTH",
"87 -75 LINE",
"116 -68 LINE SMOOTH",
"179 -53 OFFCURVE",
"325 4 OFFCURVE",
"408 43 OFFCURVE",
"493 84 QCURVE",
"493 320 LINE",
"430 320 LINE",
"375 450 OFFCURVE",
"375 554 QCURVE SMOOTH",
"375 647 OFFCURVE",
"450 785 OFFCURVE",
"491 788 QCURVE"
);
}
);
width = 1105;
}
);
note = tav;
unicode = 05EA;
},
{
glyphname = geresh;
lastChange = "2018-07-29 15:09:15 +0000";
layers = (
{
layerId = "C33DBFF5-9F9F-4FD4-87E4-27DD273F2A02";
paths = (
{
closed = 1;
nodes = (
"411 1122 LINE",
"274 1161 LINE",
"273 1161 OFFCURVE",
"254 1164 OFFCURVE",
"248 1164 QCURVE SMOOTH",
"213 1164 OFFCURVE",
"198 1134 QCURVE",
"198 1133 OFFCURVE",
"197 1132 QCURVE",
"197 1128 OFFCURVE",
"193 1118 QCURVE",
"141 911 OFFCURVE",
"102 703 QCURVE SMOOTH",
"98 683 LINE",
"116 674 LINE",
"144 658 OFFCURVE",
"171 658 QCURVE SMOOTH",
"187 658 LINE",
"301 860 LINE",
"416 1052 LINE",
"416 1060 LINE SMOOTH",
"416 1088 OFFCURVE",
"414 1104 QCURVE"
);
}
);
width = 451;
}
);
note = geresh;
unicode = 05F3;
},
{
glyphname = quoteleft;
lastChange = "2018-07-29 15:09:15 +0000";
layers = (
{
layerId = "C33DBFF5-9F9F-4FD4-87E4-27DD273F2A02";
paths = (
{
closed = 1;
nodes = (
"334 1395 LINE",
"334 1397 LINE SMOOTH",
"334 1449 OFFCURVE",
"273 1508 OFFCURVE",
"213 1508 QCURVE SMOOTH",
"152 1508 OFFCURVE",
"90 1448 OFFCURVE",
"90 1395 QCURVE SMOOTH",
"90 1364 LINE",
"142 1028 LINE",
"150 953 OFFCURVE",
"150 944 QCURVE SMOOTH",
"150 939 OFFCURVE",
"154 928 OFFCURVE",
"171 913 OFFCURVE",
"185 911 QCURVE SMOOTH",
"191 910 OFFCURVE",
"211 908 OFFCURVE",
"213 908 QCURVE SMOOTH",
"226 908 OFFCURVE",
"241 911 QCURVE",
"254 913 OFFCURVE",
"268 923 OFFCURVE",
"274 937 OFFCURVE",
"275 938 QCURVE"
);
}
);
width = 422;
}
);
note = quoteleft;
unicode = 2018;
},
{
glyphname = quoteright;
lastChange = "2018-07-29 15:09:15 +0000";
layers = (
{
layerId = "C33DBFF5-9F9F-4FD4-87E4-27DD273F2A02";
paths = (
{
closed = 1;
nodes = (
"334 1395 LINE",
"334 1397 LINE SMOOTH",
"334 1449 OFFCURVE",
"273 1508 OFFCURVE",
"213 1508 QCURVE SMOOTH",
"152 1508 OFFCURVE",
"90 1448 OFFCURVE",
"90 1395 QCURVE SMOOTH",
"90 1364 LINE",
"142 1028 LINE",
"150 953 OFFCURVE",
"150 944 QCURVE SMOOTH",
"150 939 OFFCURVE",
"154 928 OFFCURVE",
"171 913 OFFCURVE",
"185 911 QCURVE SMOOTH",
"191 910 OFFCURVE",
"211 908 OFFCURVE",
"213 908 QCURVE SMOOTH",
"226 908 OFFCURVE",
"241 911 QCURVE",
"254 913 OFFCURVE",
"268 923 OFFCURVE",
"274 937 OFFCURVE",
"275 938 QCURVE"
);
}
);
width = 422;
}
);
note = quoteright;
unicode = 2019;
},
{
glyphname = newsheqel;
lastChange = "2018-07-29 15:09:15 +0000";
layers = (
{
layerId = "C33DBFF5-9F9F-4FD4-87E4-27DD273F2A02";
paths = (
{
closed = 1;
nodes = (
"683 251 OFFCURVE",
"583 398 OFFCURVE",
"583 479 QCURVE SMOOTH",
"583 494 OFFCURVE",
"584 501 QCURVE",
"588 502 LINE",
"591 503 OFFCURVE",
"605 509 OFFCURVE",
"612 513 QCURVE",
"638 684 LINE",
"616 684 LINE",
"550 708 OFFCURVE",
"476 747 OFFCURVE",
"454 770 OFFCURVE",
"443 790 QCURVE",
"443 800 LINE",
"512 800 LINE SMOOTH",
"602 800 OFFCURVE",
"663 807 QCURVE",
"657 760 OFFCURVE",
"657 720 QCURVE SMOOTH",
"657 640 OFFCURVE",
"718 343 OFFCURVE",
"720 251 QCURVE"
);
},
{
closed = 1;
nodes = (
"336 755 OFFCURVE",
"367 800 QCURVE",
"406 800 LINE",
"348 765 OFFCURVE",
"342 610 QCURVE",
"341 604 OFFCURVE",
"361 564 OFFCURVE",
"364 555 QCURVE",
"364 538 LINE",
"391 526 OFFCURVE",
"437 516 OFFCURVE",
"443 514 QCURVE",
"464 473 OFFCURVE",
"479 329 OFFCURVE",
"493 285 QCURVE SMOOTH",
"510 230 OFFCURVE",
"560 143 OFFCURVE",
"609 90 OFFCURVE",
"686 -3 OFFCURVE",
"718 -52 QCURVE SMOOTH",
"742 -90 OFFCURVE",
"783 -90 QCURVE SMOOTH",
"837 -90 OFFCURVE",
"892 -35 QCURVE SMOOTH",
"963 35 OFFCURVE",
"1068 175 OFFCURVE",
"1124 272 QCURVE",
"1124 274 LINE",
"1156 362 LINE",
"1156 415 OFFCURVE",
"1142 574 OFFCURVE",
"1142 605 QCURVE SMOOTH",
"1142 682 OFFCURVE",
"1167 742 QCURVE",
"1171 749 OFFCURVE",
"1202 764 OFFCURVE",
"1214 773 QCURVE",
"1214 988 LINE",
"1105 1041 LINE SMOOTH",
"1006 1089 OFFCURVE",
"994 1109 QCURVE",
"994 1119 LINE",
"970 1119 LINE",
"938 1100 OFFCURVE",
"892 1004 OFFCURVE",
"886 955 QCURVE",
"886 1069 LINE",
"857 1069 LINE",
"747 1049 OFFCURVE",
"573 1049 QCURVE SMOOTH",
"530 1049 OFFCURVE",
"355 1052 OFFCURVE",
"311 1052 QCURVE SMOOTH",
"292 1052 LINE SMOOTH",
"247 1052 OFFCURVE",
"183 1116 QCURVE",
"155 1116 LINE",
"155 1110 LINE",
"123 1100 OFFCURVE",
"75 972 OFFCURVE",
"75 902 QCURVE SMOOTH",
"75 853 OFFCURVE",
"88 818 QCURVE",
"88 800 LINE",
"174 800 LINE",
"151 726 OFFCURVE",
"151 621 QCURVE SMOOTH",
"151 526 OFFCURVE",
"206 121 OFFCURVE",
"206 29 QCURVE SMOOTH",
"206 22 LINE",
"206 -58 LINE",
"255 5 LINE SMOOTH",
"357 137 OFFCURVE",
"396 208 QCURVE",
"396 214 LINE SMOOTH",
"396 250 OFFCURVE",
"337 561 OFFCURVE",
"336 656 QCURVE"
);
},
{
closed = 1;
nodes = (
"834 797 OFFCURVE",
"901 831 QCURVE",
"1032 779 LINE",
"1032 394 LINE",
"1013 367 OFFCURVE",
"1000 350 OFFCURVE",
"939 296 OFFCURVE",
"888 261 QCURVE",
"881 259 OFFCURVE",
"860 248 OFFCURVE",
"854 246 QCURVE",
"790 246 LINE",
"905 437 LINE",
"900 467 OFFCURVE",
"834 627 OFFCURVE",
"834 702 QCURVE SMOOTH"
);
}
);
width = 1389;
}
);
note = newsheqel;
unicode = 20AA;
},
{
glyphname = Euro;
lastChange = "2018-07-29 15:09:15 +0000";
layers = (
{
layerId = "C33DBFF5-9F9F-4FD4-87E4-27DD273F2A02";
paths = (
{
closed = 1;
nodes = (
"1062 170 OFFCURVE",
"1062 188 QCURVE",
"1061 241 OFFCURVE",
"1003 241 QCURVE SMOOTH",
"1002 241 OFFCURVE",
"963 238 QCURVE",
"845 164 OFFCURVE",
"745 164 QCURVE SMOOTH",
"638 164 OFFCURVE",
"468 295 OFFCURVE",
"418 385 QCURVE",
"431 383 OFFCURVE",
"531 365 OFFCURVE",
"561 360 OFFCURVE",
"647 346 OFFCURVE",
"687 341 OFFCURVE",
"763 332 OFFCURVE",
"818 329 OFFCURVE",
"890 326 OFFCURVE",
"925 326 QCURVE",
"1000 514 LINE",
"959 514 LINE SMOOTH",
"859 516 OFFCURVE",
"817 516 QCURVE SMOOTH",
"758 516 LINE SMOOTH",
"522 516 OFFCURVE",
"392 544 QCURVE",
"392 556 LINE",
"513 556 OFFCURVE",
"927 541 OFFCURVE",
"1042 541 QCURVE",
"1103 765 LINE",
"1062 765 LINE",
"908 740 OFFCURVE",
"682 740 QCURVE SMOOTH",
"649 740 OFFCURVE",
"510 741 OFFCURVE",
"473 741 QCURVE SMOOTH",
"417 741 LINE",
"423 778 OFFCURVE",
"443 844 OFFCURVE",
"488 925 OFFCURVE",
"547 982 OFFCURVE",
"644 1022 OFFCURVE",
"704 1022 QCURVE SMOOTH",
"736 1022 LINE SMOOTH",
"793 1022 OFFCURVE",
"865 971 OFFCURVE",
"865 932 QCURVE SMOOTH",
"865 906 OFFCURVE",
"848 879 QCURVE SMOOTH",
"808 817 LINE",
"879 838 LINE SMOOTH",
"938 856 OFFCURVE",
"976 856 QCURVE SMOOTH",
"989 856 OFFCURVE",
"1019 843 OFFCURVE",
"1055 821 OFFCURVE",
"1063 817 QCURVE",
"1102 817 LINE",
"1102 921 LINE SMOOTH",
"1102 991 OFFCURVE",
"1058 1083 OFFCURVE",
"995 1139 QCURVE",
"995 1143 LINE",
"872 1194 OFFCURVE",
"751 1194 QCURVE SMOOTH",
"647 1194 OFFCURVE",
"463 1115 OFFCURVE",
"329 982 OFFCURVE",
"233 825 OFFCURVE",
"203 738 QCURVE",
"141 723 OFFCURVE",
"114 703 QCURVE",
"104 694 OFFCURVE",
"104 663 QCURVE SMOOTH",
"104 637 OFFCURVE",
"116 576 OFFCURVE",
"124 564 QCURVE",
"154 564 LINE",
"154 538 LINE",
"127 538 LINE",
"100 507 OFFCURVE",
"100 449 QCURVE SMOOTH",
"100 396 LINE",
"172 396 LINE",
"233 164 OFFCURVE",
"510 -86 OFFCURVE",
"675 -86 QCURVE SMOOTH",
"786 -86 OFFCURVE",
"987 37 OFFCURVE",
"1054 148 QCURVE"
);
}
);
width = 1127;
}
);
note = Euro;
unicode = 20AC;
},
{
glyphname = dottedcircle;
lastChange = "2018-07-29 15:09:15 +0000";
layers = (
{
layerId = "C33DBFF5-9F9F-4FD4-87E4-27DD273F2A02";
paths = (
{
closed = 1;
nodes = (
"90 484 OFFCURVE",
"121 433 OFFCURVE",
"163 428 QCURVE",
"163 427 OFFCURVE",
"172 428 QCURVE",
"181 428 LINE SMOOTH",
"224 428 OFFCURVE",
"266 482 OFFCURVE",
"266 572 OFFCURVE",
"216 627 OFFCURVE",
"176 627 QCURVE SMOOTH",
"168 627 OFFCURVE",
"163 626 QCURVE",
"90 617 OFFCURVE",
"90 527 QCURVE SMOOTH"
);
},
{
closed = 1;
nodes = (
"964 627 OFFCURVE",
"959 626 QCURVE",
"886 617 OFFCURVE",
"886 527 QCURVE SMOOTH",
"886 484 OFFCURVE",
"917 433 OFFCURVE",
"959 428 QCURVE",
"977 428 LINE SMOOTH",
"1020 428 OFFCURVE",
"1062 482 OFFCURVE",
"1062 572 OFFCURVE",
"1012 627 OFFCURVE",
"972 627 QCURVE SMOOTH"
);
},
{
closed = 1;
nodes = (
"566 1095 OFFCURVE",
"561 1094 QCURVE",
"488 1085 OFFCURVE",
"488 995 QCURVE SMOOTH",
"488 952 OFFCURVE",
"519 901 OFFCURVE",
"561 896 QCURVE",
"579 896 LINE SMOOTH",
"622 896 OFFCURVE",
"664 950 OFFCURVE",
"664 1040 OFFCURVE",
"614 1095 OFFCURVE",
"574 1095 QCURVE SMOOTH"
);
},
{
closed = 1;
nodes = (
"543 158 OFFCURVE",
"502 128 OFFCURVE",
"496 105 QCURVE SMOOTH",
"488 75 OFFCURVE",
"488 49 QCURVE SMOOTH",
"488 -31 OFFCURVE",
"561 -40 QCURVE",
"579 -40 LINE SMOOTH",
"622 -40 OFFCURVE",
"664 14 OFFCURVE",
"664 104 OFFCURVE",
"616 158 OFFCURVE",
"576 158 QCURVE SMOOTH"
);
},
{
closed = 1;
nodes = (
"845 703 OFFCURVE",
"878 667 OFFCURVE",
"908 662 QCURVE",
"910 662 OFFCURVE",
"915 662 OFFCURVE",
"921 662 OFFCURVE",
"922 662 QCURVE SMOOTH",
"955 662 OFFCURVE",
"1003 701 OFFCURVE",
"1007 723 QCURVE SMOOTH",
"1011 742 OFFCURVE",
"1011 764 QCURVE SMOOTH",
"1011 803 OFFCURVE",
"975 856 OFFCURVE",
"938 860 QCURVE",
"932 861 OFFCURVE",
"922 861 QCURVE SMOOTH",
"880 861 OFFCURVE",
"835 808 OFFCURVE",
"835 765 QCURVE SMOOTH",
"835 746 OFFCURVE",
"840 723 QCURVE SMOOTH"
);
},
{
closed = 1;
nodes = (
"845 235 OFFCURVE",
"878 199 OFFCURVE",
"908 194 QCURVE",
"922 194 LINE SMOOTH",
"955 194 OFFCURVE",
"1003 233 OFFCURVE",
"1007 255 QCURVE SMOOTH",
"1011 274 OFFCURVE",
"1011 296 QCURVE SMOOTH",
"1011 335 OFFCURVE",
"975 388 OFFCURVE",
"938 392 QCURVE",
"932 393 OFFCURVE",
"922 393 QCURVE SMOOTH",
"880 393 OFFCURVE",
"835 340 OFFCURVE",
"835 297 QCURVE SMOOTH",
"835 278 OFFCURVE",
"840 255 QCURVE SMOOTH"
);
},
{
closed = 1;
nodes = (
"151 703 OFFCURVE",
"184 667 OFFCURVE",
"214 662 QCURVE",
"216 662 OFFCURVE",
"221 662 OFFCURVE",
"227 662 OFFCURVE",
"228 662 QCURVE SMOOTH",
"261 662 OFFCURVE",
"309 701 OFFCURVE",
"313 723 QCURVE SMOOTH",
"317 742 OFFCURVE",
"317 764 QCURVE SMOOTH",
"317 803 OFFCURVE",
"281 856 OFFCURVE",
"244 860 QCURVE",
"238 861 OFFCURVE",
"228 861 QCURVE SMOOTH",
"186 861 OFFCURVE",
"141 808 OFFCURVE",
"141 765 QCURVE SMOOTH",
"141 746 OFFCURVE",
"146 723 QCURVE SMOOTH"
);
},
{
closed = 1;
nodes = (
"151 235 OFFCURVE",
"184 199 OFFCURVE",
"214 194 QCURVE",
"228 194 LINE SMOOTH",
"261 194 OFFCURVE",
"309 233 OFFCURVE",
"313 255 QCURVE SMOOTH",
"317 274 OFFCURVE",
"317 296 QCURVE SMOOTH",
"317 335 OFFCURVE",
"281 388 OFFCURVE",
"244 392 QCURVE",
"238 393 OFFCURVE",
"228 393 QCURVE SMOOTH",
"186 393 OFFCURVE",
"141 340 OFFCURVE",
"141 297 QCURVE SMOOTH",
"141 278 OFFCURVE",
"146 255 QCURVE SMOOTH"
);
},
{
closed = 1;
nodes = (
"306 845 OFFCURVE",
"362 836 QCURVE",
"376 836 LINE SMOOTH",
"409 836 OFFCURVE",
"457 874 OFFCURVE",
"461 896 QCURVE SMOOTH",
"465 915 OFFCURVE",
"465 938 QCURVE SMOOTH",
"465 977 OFFCURVE",
"429 1030 OFFCURVE",
"392 1034 QCURVE",
"386 1035 OFFCURVE",
"376 1035 QCURVE SMOOTH",
"334 1035 OFFCURVE",
"289 981 OFFCURVE",
"289 938 QCURVE SMOOTH",
"289 919 OFFCURVE",
"294 896 QCURVE SMOOTH"
);
},
{
closed = 1;
nodes = (
"704 845 OFFCURVE",
"760 836 QCURVE",
"774 836 LINE SMOOTH",
"807 836 OFFCURVE",
"855 874 OFFCURVE",
"859 896 QCURVE SMOOTH",
"863 915 OFFCURVE",
"863 938 QCURVE SMOOTH",
"863 977 OFFCURVE",
"827 1030 OFFCURVE",
"790 1034 QCURVE",
"784 1035 OFFCURVE",
"774 1035 QCURVE SMOOTH",
"732 1035 OFFCURVE",
"687 981 OFFCURVE",
"687 938 QCURVE SMOOTH",
"687 919 OFFCURVE",
"692 896 QCURVE SMOOTH"
);
},
{
closed = 1;
nodes = (
"299 61 OFFCURVE",
"332 25 OFFCURVE",
"362 20 QCURVE",
"376 20 LINE SMOOTH",
"409 20 OFFCURVE",
"457 59 OFFCURVE",
"461 81 QCURVE SMOOTH",
"465 100 OFFCURVE",
"465 122 QCURVE SMOOTH",
"465 161 OFFCURVE",
"429 214 OFFCURVE",
"392 218 QCURVE",
"386 219 OFFCURVE",
"376 219 QCURVE SMOOTH",
"334 219 OFFCURVE",
"289 166 OFFCURVE",
"289 123 QCURVE SMOOTH",
"289 104 OFFCURVE",
"294 81 QCURVE SMOOTH"
);
},
{
closed = 1;
nodes = (
"697 61 OFFCURVE",
"730 25 OFFCURVE",
"760 20 QCURVE",
"774 20 LINE SMOOTH",
"807 20 OFFCURVE",
"855 59 OFFCURVE",
"859 81 QCURVE SMOOTH",
"863 100 OFFCURVE",
"863 122 QCURVE SMOOTH",
"863 161 OFFCURVE",
"827 214 OFFCURVE",
"790 218 QCURVE",
"784 219 OFFCURVE",
"774 219 QCURVE SMOOTH",
"732 219 OFFCURVE",
"687 166 OFFCURVE",
"687 123 QCURVE SMOOTH",
"687 104 OFFCURVE",
"692 81 QCURVE SMOOTH"
);
}
);
width = 1150;
}
);
note = dottedcircle;
unicode = 25CC;
},
{
glyphname = hiriq_yod;
lastChange = "2018-07-29 16:57:15 +0000";
layers = (
{
layerId = "C33DBFF5-9F9F-4FD4-87E4-27DD273F2A02";
paths = (
{
closed = 1;
nodes = (
"94 903 LINE",
"135 800 LINE",
"153 800 LINE SMOOTH",
"202 800 OFFCURVE",
"265 786 OFFCURVE",
"291 759 OFFCURVE",
"298 735 OFFCURVE",
"298 716 QCURVE SMOOTH",
"298 705 OFFCURVE",
"294 654 OFFCURVE",
"294 639 QCURVE SMOOTH",
"294 620 OFFCURVE",
"285 505 OFFCURVE",
"285 469 QCURVE SMOOTH",
"285 450 LINE",
"393 401 LINE",
"402 430 LINE SMOOTH",
"459 612 OFFCURVE",
"490 748 OFFCURVE",
"490 816 QCURVE SMOOTH",
"490 947 OFFCURVE",
"441 993 QCURVE SMOOTH",
"426 1007 OFFCURVE",
"406 1023 OFFCURVE",
"393 1033 OFFCURVE",
"378 1040 OFFCURVE",
"370 1043 OFFCURVE",
"346 1050 OFFCURVE",
"338 1052 QCURVE",
"313 1060 OFFCURVE",
"292 1067 OFFCURVE",
"266 1086 OFFCURVE",
"258 1096 OFFCURVE",
"220 1142 OFFCURVE",
"204 1160 QCURVE",
"184 1153 LINE",
"164 1160 LINE",
"97 1091 OFFCURVE",
"61 942 QCURVE"
);
},
{
closed = 1;
nodes = (
"389 97 OFFCURVE",
"445 159 OFFCURVE",
"445 206 QCURVE SMOOTH",
"445 252 OFFCURVE",
"391 316 OFFCURVE",
"347 316 QCURVE SMOOTH",
"305 316 OFFCURVE",
"249 253 OFFCURVE",
"249 206 QCURVE SMOOTH",
"249 161 OFFCURVE",
"303 97 OFFCURVE",
"347 97 QCURVE SMOOTH"
);
}
);
width = 564;
}
);
note = hiriq_yod;
unicode = FB1D;
},
{
glyphname = ayinalt;
lastChange = "2018-07-29 15:09:15 +0000";
layers = (
{
layerId = "C33DBFF5-9F9F-4FD4-87E4-27DD273F2A02";
paths = (
{
closed = 1;
nodes = (
"218 46 OFFCURVE",
"241 -28 QCURVE",
"388 -28 LINE SMOOTH",
"627 -28 OFFCURVE",
"785 61 QCURVE SMOOTH",
"955 154 OFFCURVE",
"1095 486 OFFCURVE",
"1097 753 QCURVE",
"1131 766 LINE",
"1209 965 LINE",
"1187 976 LINE SMOOTH",
"1164 987 OFFCURVE",
"1079 1022 OFFCURVE",
"1028 1046 OFFCURVE",
"960 1099 OFFCURVE",
"933 1135 QCURVE SMOOTH",
"915 1158 LINE",
"889 1142 LINE",
"834 1105 OFFCURVE",
"774 995 OFFCURVE",
"774 938 QCURVE SMOOTH",
"774 903 OFFCURVE",
"784 876 QCURVE SMOOTH",
"785 873 LINE",
"786 870 LINE",
"799 848 OFFCURVE",
"830 816 OFFCURVE",
"868 795 OFFCURVE",
"894 783 OFFCURVE",
"942 766 OFFCURVE",
"953 762 QCURVE",
"952 683 OFFCURVE",
"930 539 OFFCURVE",
"882 389 OFFCURVE",
"785 289 OFFCURVE",
"718 278 QCURVE",
"718 285 OFFCURVE",
"715 318 OFFCURVE",
"715 324 QCURVE SMOOTH",
"715 362 OFFCURVE",
"686 442 OFFCURVE",
"643 517 OFFCURVE",
"601 595 OFFCURVE",
"571 696 OFFCURVE",
"571 748 QCURVE",
"592 820 OFFCURVE",
"662 943 QCURVE SMOOTH",
"677 970 LINE",
"645 981 LINE SMOOTH",
"481 1037 OFFCURVE",
"392 1109 QCURVE SMOOTH",
"370 1127 LINE",
"353 1104 LINE SMOOTH",
"279 1007 OFFCURVE",
"279 836 QCURVE SMOOTH",
"279 827 LINE",
"284 819 LINE",
"301 796 OFFCURVE",
"327 766 OFFCURVE",
"355 749 OFFCURVE",
"366 743 OFFCURVE",
"400 733 OFFCURVE",
"405 731 QCURVE",
"396 698 OFFCURVE",
"396 664 QCURVE SMOOTH",
"396 602 OFFCURVE",
"459 455 OFFCURVE",
"566 277 OFFCURVE",
"583 241 QCURVE",
"537 225 OFFCURVE",
"485 225 QCURVE SMOOTH",
"454 225 OFFCURVE",
"390 237 OFFCURVE",
"305 259 OFFCURVE",
"271 265 QCURVE SMOOTH",
"252 268 LINE",
"242 250 LINE SMOOTH",
"218 204 OFFCURVE",
"218 93 QCURVE SMOOTH",
"218 82 OFFCURVE",
"218 82 QCURVE"
);
}
);
width = 1278;
}
);
note = ayinalt;
unicode = FB20;
},
{
glyphname = alefwide;
lastChange = "2018-07-29 15:09:15 +0000";
layers = (
{
layerId = "C33DBFF5-9F9F-4FD4-87E4-27DD273F2A02";
paths = (
{
closed = 1;
nodes = (
"1557 330 OFFCURVE",
"1503 372 OFFCURVE",
"1416 431 OFFCURVE",
"1361 462 QCURVE",
"1440 560 OFFCURVE",
"1450 737 QCURVE",
"1478 732 LINE",
"1488 741 LINE",
"1557 798 OFFCURVE",
"1601 928 QCURVE SMOOTH",
"1610 952 LINE",
"1588 964 LINE SMOOTH",
"1456 1039 OFFCURVE",
"1381 1138 QCURVE SMOOTH",
"1355 1173 LINE",
"1332 1136 LINE SMOOTH",
"1286 1062 OFFCURVE",
"1225 911 QCURVE SMOOTH",
"1216 889 LINE",
"1236 875 LINE SMOOTH",
"1305 829 OFFCURVE",
"1305 757 QCURVE SMOOTH",
"1305 721 OFFCURVE",
"1240 611 OFFCURVE",
"1185 567 QCURVE",
"1129 585 OFFCURVE",
"1050 614 OFFCURVE",
"908 674 OFFCURVE",
"801 734 OFFCURVE",
"668 830 OFFCURVE",
"571 933 OFFCURVE",
"482 1074 OFFCURVE",
"457 1153 QCURVE SMOOTH",
"437 1213 LINE",
"247 922 LINE",
"333 825 LINE",
"189 598 OFFCURVE",
"189 384 QCURVE SMOOTH",
"189 323 OFFCURVE",
"252 189 OFFCURVE",
"298 139 QCURVE",
"241 63 OFFCURVE",
"227 3 QCURVE",
"224 -7 LINE",
"262 -90 LINE",
"291 -74 LINE SMOOTH",
"349 -42 OFFCURVE",
"415 -9 OFFCURVE",
"515 22 OFFCURVE",
"560 22 QCURVE",
"589 46 LINE",
"594 70 LINE SMOOTH",
"599 93 OFFCURVE",
"619 212 OFFCURVE",
"630 284 QCURVE SMOOTH",
"639 348 LINE",
"584 313 LINE SMOOTH",
"549 291 OFFCURVE",
"517 291 QCURVE SMOOTH",
"466 291 OFFCURVE",
"357 379 OFFCURVE",
"357 448 QCURVE SMOOTH",
"357 514 OFFCURVE",
"428 639 OFFCURVE",
"460 647 QCURVE",
"462 647 LINE",
"462 648 OFFCURVE",
"464 648 QCURVE",
"502 636 OFFCURVE",
"866 414 QCURVE",
"868 411 LINE",
"876 408 LINE",
"895 400 OFFCURVE",
"931 384 QCURVE SMOOTH",
"1022 344 OFFCURVE",
"1145 286 OFFCURVE",
"1278 211 OFFCURVE",
"1366 137 OFFCURVE",
"1444 37 OFFCURVE",
"1469 -24 QCURVE SMOOTH",
"1477 -42 LINE",
"1497 -42 LINE SMOOTH",
"1515 -42 OFFCURVE",
"1525 -25 QCURVE SMOOTH",
"1542 3 OFFCURVE",
"1614 177 OFFCURVE",
"1629 253 QCURVE SMOOTH",
"1632 270 LINE",
"1618 281 LINE SMOOTH"
);
}
);
width = 1722;
}
);
note = alefwide;
unicode = FB21;
},
{
glyphname = daletwide;
lastChange = "2018-07-29 15:09:15 +0000";
layers = (
{
layerId = "C33DBFF5-9F9F-4FD4-87E4-27DD273F2A02";
paths = (
{
closed = 1;
nodes = (
"645 783 LINE SMOOTH",
"1193 783 OFFCURVE",
"1368 792 QCURVE",
"1352 734 OFFCURVE",
"1352 664 QCURVE SMOOTH",
"1352 594 LINE SMOOTH",
"1352 581 OFFCURVE",
"1364 479 OFFCURVE",
"1364 467 QCURVE SMOOTH",
"1364 463 LINE",
"1365 459 LINE SMOOTH",
"1397 334 OFFCURVE",
"1416 131 OFFCURVE",
"1416 -15 QCURVE SMOOTH",
"1416 -29 LINE",
"1475 -82 LINE",
"1495 -55 LINE SMOOTH",
"1581 66 OFFCURVE",
"1599 152 QCURVE SMOOTH",
"1606 187 OFFCURVE",
"1606 229 QCURVE SMOOTH",
"1606 304 OFFCURVE",
"1541 619 OFFCURVE",
"1541 670 QCURVE SMOOTH",
"1541 707 OFFCURVE",
"1614 794 OFFCURVE",
"1667 807 QCURVE SMOOTH",
"1690 813 LINE",
"1690 837 LINE SMOOTH",
"1690 959 OFFCURVE",
"1639 1055 QCURVE SMOOTH",
"1629 1073 LINE",
"1608 1070 LINE SMOOTH",
"1543 1061 OFFCURVE",
"1083 1044 OFFCURVE",
"991 1044 QCURVE SMOOTH",
"926 1044 OFFCURVE",
"599 1056 OFFCURVE",
"546 1061 QCURVE",
"516 1067 OFFCURVE",
"484 1089 OFFCURVE",
"451 1137 OFFCURVE",
"443 1146 QCURVE SMOOTH",
"422 1169 LINE",
"400 1147 LINE SMOOTH",
"323 1070 OFFCURVE",
"296 965 QCURVE SMOOTH",
"292 949 LINE",
"327 914 LINE",
"360 811 LINE",
"371 806 LINE",
"375 804 OFFCURVE",
"378 803 QCURVE",
"427 784 OFFCURVE",
"599 783 QCURVE SMOOTH"
);
}
);
width = 1748;
}
);
note = daletwide;
unicode = FB22;
},
{
glyphname = hewide;
lastChange = "2018-07-29 15:09:15 +0000";
layers = (
{
layerId = "C33DBFF5-9F9F-4FD4-87E4-27DD273F2A02";
paths = (
{
closed = 1;
nodes = (
"903 801 LINE SMOOTH",
"1268 801 OFFCURVE",
"1399 809 QCURVE",
"1374 731 OFFCURVE",
"1374 610 QCURVE SMOOTH",
"1374 540 LINE",
"1374 537 LINE",
"1390 458 OFFCURVE",
"1412 266 OFFCURVE",
"1431 37 OFFCURVE",
"1437 -17 QCURVE",
"1439 -29 LINE",
"1496 -79 LINE",
"1515 -53 LINE SMOOTH",
"1601 62 OFFCURVE",
"1619 154 QCURVE SMOOTH",
"1627 196 OFFCURVE",
"1627 231 QCURVE SMOOTH",
"1627 309 OFFCURVE",
"1562 633 OFFCURVE",
"1562 686 QCURVE SMOOTH",
"1562 775 OFFCURVE",
"1634 824 QCURVE SMOOTH",
"1647 833 LINE",
"1647 849 LINE SMOOTH",
"1647 953 OFFCURVE",
"1590 1057 QCURVE SMOOTH",
"1580 1076 LINE",
"1560 1073 LINE SMOOTH",
"1496 1064 OFFCURVE",
"1060 1053 OFFCURVE",
"929 1053 QCURVE SMOOTH",
"913 1053 OFFCURVE",
"714 1049 OFFCURVE",
"651 1049 QCURVE SMOOTH",
"507 1049 OFFCURVE",
"459 1058 QCURVE SMOOTH",
"435 1063 OFFCURVE",
"396 1085 OFFCURVE",
"380 1100 OFFCURVE",
"345 1143 OFFCURVE",
"339 1149 QCURVE",
"318 1172 LINE",
"296 1150 LINE SMOOTH",
"218 1072 OFFCURVE",
"192 968 QCURVE SMOOTH",
"188 953 LINE",
"221 917 LINE",
"259 801 LINE"
);
},
{
closed = 1;
nodes = (
"384 736 LINE",
"217 518 OFFCURVE",
"217 268 QCURVE SMOOTH",
"217 163 OFFCURVE",
"249 -17 QCURVE SMOOTH",
"252 -32 LINE",
"338 -75 LINE",
"353 -52 LINE",
"393 15 OFFCURVE",
"457 215 QCURVE",
"463 231 LINE",
"452 243 LINE",
"441 256 OFFCURVE",
"425 277 OFFCURVE",
"415 300 OFFCURVE",
"409 314 OFFCURVE",
"405 342 OFFCURVE",
"403 355 OFFCURVE",
"401 396 OFFCURVE",
"400 406 QCURVE SMOOTH",
"399 414 OFFCURVE",
"399 462 QCURVE",
"403 544 OFFCURVE",
"415 621 OFFCURVE",
"436 710 QCURVE"
);
}
);
width = 1691;
}
);
note = hewide;
unicode = FB23;
},
{
glyphname = kafwide;
lastChange = "2018-07-29 15:09:15 +0000";
layers = (
{
layerId = "C33DBFF5-9F9F-4FD4-87E4-27DD273F2A02";
paths = (
{
closed = 1;
nodes = (
"1491 468 OFFCURVE",
"1472 612 OFFCURVE",
"1453 706 OFFCURVE",
"1412 893 OFFCURVE",
"1405 925 QCURVE",
"1394 968 OFFCURVE",
"1352 1024 OFFCURVE",
"1296 1048 OFFCURVE",
"1251 1056 OFFCURVE",
"1222 1056 QCURVE SMOOTH",
"1199 1056 OFFCURVE",
"886 1045 OFFCURVE",
"860 1045 QCURVE SMOOTH",
"813 1045 OFFCURVE",
"467 1056 OFFCURVE",
"435 1061 QCURVE",
"408 1070 OFFCURVE",
"367 1095 OFFCURVE",
"350 1110 OFFCURVE",
"320 1146 OFFCURVE",
"316 1150 QCURVE",
"295 1173 LINE",
"273 1151 LINE SMOOTH",
"195 1073 OFFCURVE",
"169 969 QCURVE SMOOTH",
"165 953 LINE",
"200 918 LINE",
"236 802 LINE",
"1141 802 LINE",
"1169 799 OFFCURVE",
"1207 772 OFFCURVE",
"1231 722 OFFCURVE",
"1245 676 OFFCURVE",
"1264 600 OFFCURVE",
"1272 576 QCURVE",
"1275 564 OFFCURVE",
"1292 505 OFFCURVE",
"1301 470 OFFCURVE",
"1310 422 OFFCURVE",
"1310 405 QCURVE SMOOTH",
"1310 354 OFFCURVE",
"1297 341 QCURVE",
"1261 299 OFFCURVE",
"909 246 OFFCURVE",
"507 228 OFFCURVE",
"274 228 QCURVE SMOOTH",
"217 228 LINE",
"209 210 LINE SMOOTH",
"202 194 OFFCURVE",
"191 163 OFFCURVE",
"181 126 OFFCURVE",
"175 104 OFFCURVE",
"166 59 OFFCURVE",
"163 44 OFFCURVE",
"154 -11 OFFCURVE",
"153 -16 QCURVE SMOOTH",
"147 -51 LINE",
"183 -51 LINE SMOOTH",
"453 -51 OFFCURVE",
"1265 49 OFFCURVE",
"1400 124 QCURVE SMOOTH",
"1405 127 LINE",
"1409 132 LINE SMOOTH",
"1491 238 OFFCURVE",
"1491 411 QCURVE SMOOTH"
);
}
);
width = 1578;
}
);
note = kafwide;
unicode = FB24;
},
{
glyphname = lamedwide;
lastChange = "2018-07-29 15:09:15 +0000";
layers = (
{
layerId = "C33DBFF5-9F9F-4FD4-87E4-27DD273F2A02";
paths = (
{
closed = 1;
nodes = (
"1421 1055 OFFCURVE",
"1377 1063 QCURVE",
"1374 1064 LINE",
"1371 1064 LINE SMOOTH",
"1316 1064 OFFCURVE",
"506 1050 OFFCURVE",
"456 1050 QCURVE SMOOTH",
"448 1050 OFFCURVE",
"440 1063 QCURVE SMOOTH",
"424 1091 OFFCURVE",
"424 1148 QCURVE SMOOTH",
"424 1194 OFFCURVE",
"478 1482 OFFCURVE",
"478 1552 QCURVE SMOOTH",
"478 1598 OFFCURVE",
"470 1631 QCURVE",
"469 1634 LINE",
"468 1638 LINE",
"446 1674 OFFCURVE",
"407 1674 QCURVE SMOOTH",
"397 1674 OFFCURVE",
"392 1673 QCURVE",
"380 1667 OFFCURVE",
"376 1666 QCURVE",
"372 1664 LINE",
"231 1506 LINE",
"230 1504 LINE",
"218 1487 OFFCURVE",
"218 1465 QCURVE SMOOTH",
"218 1437 OFFCURVE",
"242 1419 QCURVE SMOOTH",
"256 1408 OFFCURVE",
"285 1405 QCURVE",
"289 1405 LINE",
"293 1406 LINE",
"317 1413 OFFCURVE",
"328 1413 QCURVE",
"328 1402 LINE SMOOTH",
"328 1374 OFFCURVE",
"283 1218 OFFCURVE",
"280 1201 QCURVE",
"267 1102 OFFCURVE",
"267 980 QCURVE SMOOTH",
"267 917 OFFCURVE",
"298 829 OFFCURVE",
"350 789 OFFCURVE",
"398 774 OFFCURVE",
"426 774 QCURVE SMOOTH",
"1254 794 LINE SMOOTH",
"1258 794 OFFCURVE",
"1265 789 QCURVE",
"1293 765 OFFCURVE",
"1295 722 QCURVE",
"1295 712 LINE",
"1273 620 OFFCURVE",
"1208 460 OFFCURVE",
"1157 375 OFFCURVE",
"1106 298 OFFCURVE",
"1101 286 QCURVE",
"1097 278 OFFCURVE",
"1096 270 QCURVE",
"1079 217 OFFCURVE",
"1079 158 QCURVE SMOOTH",
"1079 141 OFFCURVE",
"1083 87 OFFCURVE",
"1083 81 QCURVE SMOOTH",
"1083 80 OFFCURVE",
"1085 70 QCURVE",
"1089 59 OFFCURVE",
"1106 26 OFFCURVE",
"1159 -37 OFFCURVE",
"1191 -55 QCURVE",
"1217 -67 LINE",
"1230 -42 LINE SMOOTH",
"1297 80 OFFCURVE",
"1297 188 QCURVE SMOOTH",
"1297 211 LINE",
"1275 217 LINE",
"1269 219 OFFCURVE",
"1265 221 QCURVE SMOOTH",
"1250 229 OFFCURVE",
"1250 238 QCURVE SMOOTH",
"1250 241 OFFCURVE",
"1251 245 QCURVE",
"1265 287 OFFCURVE",
"1386 501 OFFCURVE",
"1507 733 OFFCURVE",
"1527 804 QCURVE SMOOTH",
"1528 808 LINE",
"1528 812 LINE SMOOTH",
"1528 936 OFFCURVE",
"1455 1021 QCURVE"
);
}
);
width = 1586;
}
);
note = lamedwide;
unicode = FB25;
},
{
glyphname = finalmemwide;
lastChange = "2018-07-29 15:09:15 +0000";
layers = (
{
layerId = "C33DBFF5-9F9F-4FD4-87E4-27DD273F2A02";
paths = (
{
closed = 1;
nodes = (
"168 815 LINE",
"192 815 LINE SMOOTH",
"194 815 OFFCURVE",
"208 808 OFFCURVE",
"234 801 OFFCURVE",
"251 801 QCURVE",
"218 713 OFFCURVE",
"216 526 QCURVE SMOOTH",
"216 513 LINE SMOOTH",
"216 338 OFFCURVE",
"256 106 QCURVE",
"256 -16 OFFCURVE",
"293 -60 QCURVE SMOOTH",
"309 -78 OFFCURVE",
"328 -85 QCURVE SMOOTH",
"349 -93 OFFCURVE",
"378 -93 QCURVE SMOOTH",
"380 -93 LINE",
"1587 89 LINE",
"1591 109 LINE SMOOTH",
"1593 120 OFFCURVE",
"1610 175 OFFCURVE",
"1619 223 OFFCURVE",
"1619 248 QCURVE SMOOTH",
"1619 276 OFFCURVE",
"1609 314 QCURVE SMOOTH",
"1606 324 LINE",
"1598 330 LINE SMOOTH",
"1583 341 OFFCURVE",
"1578 359 QCURVE",
"1578 617 OFFCURVE",
"1536 893 QCURVE SMOOTH",
"1535 899 OFFCURVE",
"1530 932 OFFCURVE",
"1526 949 OFFCURVE",
"1517 980 OFFCURVE",
"1506 997 OFFCURVE",
"1485 1020 OFFCURVE",
"1460 1031 OFFCURVE",
"1421 1040 OFFCURVE",
"1398 1040 QCURVE SMOOTH",
"1354 1040 OFFCURVE",
"960 1064 OFFCURVE",
"910 1064 QCURVE SMOOTH",
"769 1064 OFFCURVE",
"410 1075 OFFCURVE",
"373 1084 QCURVE",
"343 1090 OFFCURVE",
"303 1119 OFFCURVE",
"260 1178 OFFCURVE",
"254 1185 QCURVE SMOOTH",
"233 1208 LINE",
"211 1186 LINE SMOOTH",
"133 1108 OFFCURVE",
"107 1004 QCURVE SMOOTH",
"103 988 LINE",
"137 954 LINE"
);
},
{
closed = 1;
nodes = (
"1273 294 OFFCURVE",
"987 280 OFFCURVE",
"562 240 OFFCURVE",
"495 215 QCURVE",
"480 210 OFFCURVE",
"472 210 QCURVE SMOOTH",
"455 210 OFFCURVE",
"434 237 OFFCURVE",
"432 257 QCURVE",
"431 262 LINE",
"409 325 OFFCURVE",
"366 553 OFFCURVE",
"366 659 QCURVE SMOOTH",
"366 743 OFFCURVE",
"378 792 QCURVE",
"450 798 OFFCURVE",
"859 811 OFFCURVE",
"948 811 QCURVE SMOOTH",
"1061 809 OFFCURVE",
"1353 747 OFFCURVE",
"1375 718 QCURVE",
"1407 567 OFFCURVE",
"1407 422 QCURVE SMOOTH",
"1407 299 LINE"
);
}
);
width = 1716;
}
);
note = finalmemwide;
unicode = FB26;
},
{
glyphname = reshwide;
lastChange = "2018-07-29 15:09:15 +0000";
layers = (
{
layerId = "C33DBFF5-9F9F-4FD4-87E4-27DD273F2A02";
paths = (
{
closed = 1;
nodes = (
"1332 798 OFFCURVE",
"1343 788 OFFCURVE",
"1351 771 OFFCURVE",
"1357 759 OFFCURVE",
"1363 735 OFFCURVE",
"1366 723 OFFCURVE",
"1372 693 OFFCURVE",
"1373 689 QCURVE",
"1423 443 OFFCURVE",
"1423 239 QCURVE SMOOTH",
"1423 118 OFFCURVE",
"1386 40 QCURVE SMOOTH",
"1372 10 LINE",
"1461 -23 LINE",
"1474 -13 LINE SMOOTH",
"1587 71 OFFCURVE",
"1587 379 QCURVE SMOOTH",
"1587 576 LINE SMOOTH",
"1587 636 OFFCURVE",
"1583 729 OFFCURVE",
"1571 848 OFFCURVE",
"1545 933 OFFCURVE",
"1505 1010 OFFCURVE",
"1440 1050 OFFCURVE",
"1398 1050 QCURVE SMOOTH",
"521 1055 LINE",
"508 1058 OFFCURVE",
"485 1065 OFFCURVE",
"469 1072 OFFCURVE",
"450 1084 OFFCURVE",
"440 1091 OFFCURVE",
"424 1107 OFFCURVE",
"418 1113 OFFCURVE",
"402 1132 OFFCURVE",
"400 1134 QCURVE",
"379 1157 LINE",
"357 1135 LINE SMOOTH",
"261 1041 OFFCURVE",
"244 972 QCURVE SMOOTH",
"240 956 LINE",
"275 921 LINE",
"311 807 LINE",
"1326 802 LINE"
);
}
);
width = 1662;
}
);
note = reshwide;
unicode = FB27;
},
{
glyphname = tavwide;
lastChange = "2018-07-29 15:09:15 +0000";
layers = (
{
layerId = "C33DBFF5-9F9F-4FD4-87E4-27DD273F2A02";
paths = (
{
closed = 1;
nodes = (
"461 1060 LINE SMOOTH",
"413 1060 OFFCURVE",
"367 1081 OFFCURVE",
"344 1119 QCURVE SMOOTH",
"325 1153 LINE",
"297 1125 LINE SMOOTH",
"259 1087 OFFCURVE",
"220 965 OFFCURVE",
"220 904 QCURVE SMOOTH",
"220 870 OFFCURVE",
"226 836 QCURVE SMOOTH",
"230 815 LINE",
"397 785 LINE",
"289 645 OFFCURVE",
"289 484 QCURVE SMOOTH",
"289 370 OFFCURVE",
"341 231 QCURVE",
"314 214 OFFCURVE",
"262 190 OFFCURVE",
"178 161 OFFCURVE",
"164 155 QCURVE SMOOTH",
"150 149 LINE",
"146 134 LINE",
"139 103 OFFCURVE",
"139 71 QCURVE SMOOTH",
"139 43 OFFCURVE",
"149 -10 OFFCURVE",
"165 -71 OFFCURVE",
"168 -90 QCURVE SMOOTH",
"173 -122 LINE",
"205 -114 LINE SMOOTH",
"340 -81 OFFCURVE",
"548 31 QCURVE SMOOTH",
"564 39 LINE",
"564 279 LINE",
"506 279 LINE",
"458 404 OFFCURVE",
"458 511 QCURVE SMOOTH",
"458 630 OFFCURVE",
"520 738 QCURVE",
"534 765 OFFCURVE",
"556 775 QCURVE",
"564 775 LINE",
"1381 775 LINE SMOOTH",
"1414 775 OFFCURVE",
"1432 740 QCURVE",
"1440 702 OFFCURVE",
"1483 511 OFFCURVE",
"1502 417 OFFCURVE",
"1529 271 OFFCURVE",
"1540 156 OFFCURVE",
"1540 104 QCURVE SMOOTH",
"1540 68 OFFCURVE",
"1535 23 QCURVE SMOOTH",
"1533 8 LINE",
"1631 -83 LINE",
"1648 -44 LINE SMOOTH",
"1711 106 OFFCURVE",
"1711 218 QCURVE SMOOTH",
"1711 220 LINE",
"1622 795 LINE",
"1620 805 OFFCURVE",
"1606 885 OFFCURVE",
"1597 927 OFFCURVE",
"1571 996 OFFCURVE",
"1541 1032 OFFCURVE",
"1489 1061 OFFCURVE",
"1455 1061 QCURVE SMOOTH"
);
}
);
width = 1823;
}
);
note = tavwide;
unicode = FB28;
},
{
glyphname = hebrewplus;
lastChange = "2018-07-29 15:09:15 +0000";
layers = (
{
layerId = "C33DBFF5-9F9F-4FD4-87E4-27DD273F2A02";
paths = (
{
closed = 1;
nodes = (
"1153 308 LINE",
"1153 486 LINE",
"699 486 LINE",
"699 932 LINE",
"507 932 LINE",
"507 486 LINE",
"61 486 LINE",
"61 308 LINE"
);
}
);
width = 1253;
}
);
note = hebrewplus;
unicode = FB29;
},
{
glyphname = aleflamed;
lastChange = "2018-07-29 15:09:15 +0000";
layers = (
{
layerId = "C33DBFF5-9F9F-4FD4-87E4-27DD273F2A02";
paths = (
{
closed = 1;
nodes = (
"206 1625 LINE SMOOTH",
"20 1625 OFFCURVE",
"20 1413 QCURVE SMOOTH",
"20 1394 OFFCURVE",
"38 1351 OFFCURVE",
"50 1340 QCURVE SMOOTH",
"67 1325 LINE",
"85 1338 LINE SMOOTH",
"119 1364 OFFCURVE",
"141 1364 QCURVE SMOOTH",
"144 1364 LINE",
"146 1362 LINE SMOOTH",
"181 1328 OFFCURVE",
"195 1287 OFFCURVE",
"195 1208 QCURVE SMOOTH",
"195 1203 OFFCURVE",
"181 1102 OFFCURVE",
"167 973 OFFCURVE",
"167 934 QCURVE SMOOTH",
"167 861 OFFCURVE",
"212 712 OFFCURVE",
"231 681 QCURVE",
"284 586 OFFCURVE",
"429 435 OFFCURVE",
"579 326 OFFCURVE",
"733 218 OFFCURVE",
"900 57 OFFCURVE",
"967 -44 QCURVE",
"981 -67 LINE",
"1004 -53 LINE",
"1090 -6 OFFCURVE",
"1090 99 QCURVE SMOOTH",
"1090 158 OFFCURVE",
"1062 236 QCURVE",
"806 448 LINE",
"952 718 LINE",
"1037 694 LINE",
"1127 916 LINE",
"1094 921 LINE SMOOTH",
"1067 926 OFFCURVE",
"1016 951 OFFCURVE",
"959 999 OFFCURVE",
"929 1027 OFFCURVE",
"863 1097 OFFCURVE",
"856 1105 QCURVE",
"836 1098 LINE SMOOTH",
"796 1085 OFFCURVE",
"713 948 OFFCURVE",
"713 898 QCURVE SMOOTH",
"713 895 LINE",
"714 870 OFFCURVE",
"737 837 OFFCURVE",
"764 822 OFFCURVE",
"787 784 OFFCURVE",
"787 754 QCURVE SMOOTH",
"787 696 OFFCURVE",
"694 523 QCURVE",
"658 537 OFFCURVE",
"544 632 OFFCURVE",
"430 758 OFFCURVE",
"346 914 OFFCURVE",
"345 978 QCURVE",
"345 1015 OFFCURVE",
"370 1289 OFFCURVE",
"370 1354 QCURVE SMOOTH",
"370 1356 LINE",
"361 1422 OFFCURVE",
"315 1522 OFFCURVE",
"269 1576 OFFCURVE",
"218 1625 QCURVE"
);
}
);
width = 1192;
}
);
note = aleflamed;
unicode = FB4F;
},
{
glyphname = "hatafsegol_CGJ_meteg-hb";
lastChange = "2018-07-29 15:09:15 +0000";
layers = (
{
layerId = "C33DBFF5-9F9F-4FD4-87E4-27DD273F2A02";
paths = (
{
closed = 1;
nodes = (
"622 -130 LINE",
"508 -130 LINE",
"508 -575 LINE",
"623 -575 LINE"
);
},
{
closed = 1;
nodes = (
"793 -588 OFFCURVE",
"848 -527 OFFCURVE",
"848 -480 QCURVE SMOOTH",
"848 -434 OFFCURVE",
"794 -370 OFFCURVE",
"751 -370 QCURVE SMOOTH",
"709 -370 OFFCURVE",
"654 -433 OFFCURVE",
"654 -480 QCURVE SMOOTH",
"654 -525 OFFCURVE",
"708 -588 OFFCURVE",
"751 -588 QCURVE SMOOTH"
);
},
{
closed = 1;
nodes = (
"793 -334 OFFCURVE",
"848 -273 OFFCURVE",
"848 -226 QCURVE SMOOTH",
"848 -180 OFFCURVE",
"794 -116 OFFCURVE",
"751 -116 QCURVE SMOOTH",
"709 -116 OFFCURVE",
"654 -179 OFFCURVE",
"654 -226 QCURVE SMOOTH",
"654 -271 OFFCURVE",
"708 -334 OFFCURVE",
"751 -334 QCURVE SMOOTH"
);
},
{
closed = 1;
nodes = (
"283 -271 OFFCURVE",
"337 -334 OFFCURVE",
"381 -334 QCURVE SMOOTH",
"422 -334 OFFCURVE",
"477 -272 OFFCURVE",
"477 -225 QCURVE SMOOTH",
"477 -179 OFFCURVE",
"423 -116 OFFCURVE",
"339 -116 OFFCURVE",
"283 -178 OFFCURVE",
"283 -225 QCURVE SMOOTH"
);
},
{
closed = 1;
nodes = (
"165 -525 OFFCURVE",
"219 -588 OFFCURVE",
"263 -588 QCURVE SMOOTH",
"304 -588 OFFCURVE",
"359 -526 OFFCURVE",
"359 -479 QCURVE SMOOTH",
"359 -433 OFFCURVE",
"305 -370 OFFCURVE",
"221 -370 OFFCURVE",
"165 -432 OFFCURVE",
"165 -479 QCURVE SMOOTH"
);
},
{
closed = 1;
nodes = (
"102 -116 OFFCURVE",
"47 -178 OFFCURVE",
"47 -225 QCURVE SMOOTH",
"47 -271 OFFCURVE",
"101 -334 OFFCURVE",
"143 -334 QCURVE SMOOTH",
"186 -334 OFFCURVE",
"241 -272 OFFCURVE",
"241 -225 QCURVE SMOOTH",
"241 -179 OFFCURVE",
"187 -116 OFFCURVE",
"143 -116 QCURVE SMOOTH"
);
}
);
width = 447;
}
);
note = hatafsegolmidmeteg;
},
{
glyphname = "hatafpatah__meteg-hb.null";
lastChange = "2018-07-29 15:09:15 +0000";
layers = (
{
layerId = "C33DBFF5-9F9F-4FD4-87E4-27DD273F2A02";
paths = (
{
closed = 1;
nodes = (
"415 -135 LINE",
"61 -135 LINE",
"61 -284 LINE",
"415 -284 LINE"
);
},
{
closed = 1;
nodes = (
"593 -130 LINE",
"479 -130 LINE",
"479 -575 LINE",
"593 -575 LINE"
);
},
{
closed = 1;
nodes = (
"785 -586 OFFCURVE",
"841 -523 OFFCURVE",
"841 -476 QCURVE SMOOTH",
"841 -430 OFFCURVE",
"787 -366 OFFCURVE",
"743 -366 QCURVE SMOOTH",
"702 -366 OFFCURVE",
"646 -429 OFFCURVE",
"646 -476 QCURVE SMOOTH",
"646 -522 OFFCURVE",
"700 -586 OFFCURVE",
"743 -586 QCURVE SMOOTH"
);
},
{
closed = 1;
nodes = (
"785 -332 OFFCURVE",
"841 -269 OFFCURVE",
"841 -222 QCURVE SMOOTH",
"841 -176 OFFCURVE",
"787 -112 OFFCURVE",
"743 -112 QCURVE SMOOTH",
"702 -112 OFFCURVE",
"646 -175 OFFCURVE",
"646 -222 QCURVE SMOOTH",
"646 -268 OFFCURVE",
"700 -332 OFFCURVE",
"743 -332 QCURVE SMOOTH"
);
}
);
width = 451;
}
);
note = hatafpatahmidmeteg;
},
{
glyphname = "hatafqamats_CGJ_meteg-hb";
lastChange = "2018-07-29 15:09:15 +0000";
layers = (
{
layerId = "C33DBFF5-9F9F-4FD4-87E4-27DD273F2A02";
paths = (
{
closed = 1;
nodes = (
"435 -290 LINE",
"435 -141 LINE",
"84 -141 LINE",
"84 -290 LINE",
"210 -290 LINE",
"210 -300 LINE SMOOTH",
"210 -354 OFFCURVE",
"200 -374 QCURVE",
"162 -473 LINE",
"174 -515 OFFCURVE",
"199 -562 OFFCURVE",
"224 -583 QCURVE",
"250 -590 OFFCURVE",
"268 -590 OFFCURVE",
"293 -585 QCURVE",
"332 -545 OFFCURVE",
"358 -474 QCURVE",
"319 -375 LINE SMOOTH",
"308 -344 OFFCURVE",
"308 -300 QCURVE SMOOTH",
"308 -290 LINE"
);
},
{
closed = 1;
nodes = (
"622 -131 LINE",
"494 -131 LINE",
"494 -576 LINE",
"622 -576 LINE"
);
},
{
closed = 1;
nodes = (
"809 -590 OFFCURVE",
"864 -528 OFFCURVE",
"864 -481 QCURVE SMOOTH",
"864 -435 OFFCURVE",
"810 -372 OFFCURVE",
"726 -372 OFFCURVE",
"670 -434 OFFCURVE",
"670 -481 QCURVE SMOOTH",
"670 -527 OFFCURVE",
"724 -590 OFFCURVE",
"768 -590 QCURVE SMOOTH"
);
},
{
closed = 1;
nodes = (
"809 -336 OFFCURVE",
"864 -274 OFFCURVE",
"864 -227 QCURVE SMOOTH",
"864 -181 OFFCURVE",
"810 -118 OFFCURVE",
"726 -118 OFFCURVE",
"670 -180 OFFCURVE",
"670 -227 QCURVE SMOOTH",
"670 -273 OFFCURVE",
"724 -336 OFFCURVE",
"768 -336 QCURVE SMOOTH"
);
}
);
width = 474;
}
);
note = hatafqamatsmidmeteg;
},
